<svg xmlns="http://www.w3.org/2000/svg" viewBox="0 0 150 259"><defs><style>.cls-1,.cls-41{isolation:isolate;}.cls-2{fill:#d3d2d1;}.cls-3{fill:#1f6286;}.cls-4{fill:#e6e4e2;}.cls-5{fill:#215d7e;}.cls-6{fill:#fdd319;}.cls-7{fill:#e9c31a;}.cls-8{fill:#f7caaa;}.cls-9{fill:#f5c59b;}.cls-10{fill:#fff;}.cls-11{fill:#f6cfac;}.cls-12{fill:#dea93f;}.cls-13{fill:#235775;}.cls-14{fill:#ceccca;}.cls-15{fill:#c48138;}.cls-16{fill:#a36e37;}.cls-17{fill:#cecdca;}.cls-18{fill:#f3af61;}.cls-19{fill:#ba8754;}.cls-20{fill:#ed9838;}.cls-21{fill:#ffe988;}.cls-22{fill:#e8a65c;}.cls-23{fill:#afadad;}.cls-24{fill:#d9991f;}.cls-25{fill:#e9e7e6;}.cls-26{fill:#db8e39;}.cls-27{fill:#e5c01b;}.cls-28{fill:#f2b280;}.cls-29{fill:#22526e;}.cls-30{fill:#b67939;}.cls-31{fill:#c59470;}.cls-32{fill:#bc8d5e;}.cls-33{fill:#aaa8a8;}.cls-34{fill:#986737;}.cls-35{fill:#9e7855;}.cls-36{fill:#888b87;}.cls-37{fill:#596270;}.cls-38{fill:#a3a6a2;}.cls-39{fill:#ddddd7;}.cls-40{fill:#b2772e;}.cls-41{fill:#d3d7de;fill-opacity:0.89;opacity:0.85;mix-blend-mode:multiply;}.cls-42{fill:#006695;}.cls-43{fill:#225877;}.cls-44{fill:#c9a791;}.cls-45{fill:#0b131b;}.cls-46{fill:#f3bd9d;}.cls-47{fill:#191c23;}.cls-48{fill:#c98361;}.cls-49{fill:#eeb292;}.cls-50{fill:#ad9284;}.cls-51{fill:#0b141c;}.cls-52{fill:#ab8a7b;}.cls-53{fill:#161a21;}.cls-54{fill:#dea482;}.cls-55{fill:#eabb9a;}.cls-56{fill:#2b3037;}.cls-57{fill:#fbdcc4;}.cls-58{fill:#4d4f57;}.cls-59{fill:#cab7aa;}.cls-60{fill:#f5c9ac;}.cls-61{fill:#c1dee4;}</style></defs><title>IH-held-placeholder</title><g class="cls-1"><g id="Ebene_1" data-name="Ebene 1"><g id="Symbols"><g id="Immoheld-Placeholder"><g id="held"><path id="Fill-1" class="cls-2" d="M59,259c-26.41,0-47.83-1-47.83-2.33,0-.4,2-.77,5.61-1.1H49.4v-.14h0v-1.05c3.09,0,6.29,0,9.57,0,5.42,0,10.63,0,15.49.13v.6h.26v.66H98.43q0-.19,0-.37c5.3.38,8.41.83,8.41,1.32C106.83,258,85.42,259,59,259"/><path id="Fill-2" class="cls-3" d="M13.23,225.59H13c5.72-3.36,15-3.36,20.72,0h.22c5.72,3.36,14.78,3.36,20.5,0h.22c5.72-3.36,15-3.36,20.72,0h-.22c5.72,3.36,15.21,3.36,20.93,0h-.22c5.72-3.36,15.21-3.36,20.93,0h-.22c5.49,3.22-12.46-76.17-30.87-128.62l-49.17.6c-18.41,52.83-29,131.38-23.33,128"/><path id="Fill-3" class="cls-4" d="M12.9,225.7h0a.67.67,0,0,0,.34-.1h0a.67.67,0,0,1-.34.1m104,0h0c3.58,0-6.91-49.22-20.47-95.24h0c13.56,46,24.05,95.25,20.47,95.25M13,225.59h0a20.84,20.84,0,0,1,10.22-2.52h0A20.84,20.84,0,0,0,13,225.59m99.69-1.69a24.21,24.21,0,0,0-6.35-.82c-.51,0-1,0-1.53,0h0q.76,0,1.52,0a24.2,24.2,0,0,1,6.36.83"/><path id="Fill-4" class="cls-5" d="M12.89,225.7h0c-2.91-.13-.34-27.25,6-60.08l8.85-7.18-.28-.12.11-.09a23.17,23.17,0,0,1-6.41-3.81c2-9.54,4.34-19.35,6.91-28.95v28.91a6.39,6.39,0,0,0-3.61,1.29s2.23,1.61,3.61,2.86v2.89H28a17.21,17.21,0,0,0,0,11.25h.15l0,.2c-3.06,18.73-4.84,36-5,50.2A20.84,20.84,0,0,0,13,225.59h.22a.67.67,0,0,1-.34.1m104,0h0a.62.62,0,0,1-.28-.09h.22a17.07,17.07,0,0,0-4.11-1.69,24.2,24.2,0,0,0-6.36-.83q-.76,0-1.52,0c-.85-14.37-3.88-32.06-8.07-51.17a13.15,13.15,0,0,0-.29-10.53h0v-31c13.55,46,24,95.24,20.47,95.24"/><path id="Fill-5" class="cls-6" d="M98.22,105.89H73.13V92.54H98.22c20.24,0,31.69-1.41,31.69-21.58V33.48h13.4V71c0,27.54-17.46,34.94-45.09,34.94"/><path id="Fill-6" class="cls-4" d="M98,106.14H96.43v-.25h1.79c16.16,0,28.84-2.53,36.58-10.14-7.72,7.81-20.5,10.39-36.83,10.39"/><path id="Fill-7" class="cls-7" d="M98.22,105.89H96.43v-5.25H97c22.41,0,40.07-5.23,40.07-32.44V35.41h6V71.21c0,11.26-2.92,19.15-8.26,24.55-7.74,7.61-20.42,10.14-36.58,10.14"/><path id="Fill-8" class="cls-8" d="M135,19.69V6.19a3.82,3.82,0,0,0-7.64,0V19.92a3,3,0,0,0-3,3l0,4.37v.68a7.48,7.48,0,0,0,7.5,7.47h13.35a4.55,4.55,0,0,0,4.56-4.54V24.24a4.55,4.55,0,0,0-4.56-4.54H135"/><path id="Fill-9" class="cls-9" d="M138.58,31.09h0a3.78,3.78,0,0,1-3.78-3.77V17.2a3.78,3.78,0,0,1,7.56,0V27.33a3.78,3.78,0,0,1-3.78,3.77"/><path id="Fill-10" class="cls-9" d="M145.89,33.07a3.78,3.78,0,0,1-3.78-3.77V19.18a3.78,3.78,0,0,1,7.56,0V29.3a3.78,3.78,0,0,1-3.78,3.77"/><path id="Fill-11" class="cls-10" d="M149.66,23.06V19.18a3.72,3.72,0,0,0-.39-1.67,3.72,3.72,0,0,1,.39,1.67v3.88m-.39-5.55h0m0,0h0m-3.49-2.07h0m0,0h0m0,0h0m0,0h0m0,0h0m0,0h0m0,0h0m0,0h0m0,0h0m0,0h0"/><path id="Fill-12" class="cls-11" d="M138.58,25.09a3.78,3.78,0,0,1-3.78-3.77V17.2a3.78,3.78,0,0,1,7.56,0v.64a3.72,3.72,0,0,0-.25,1.34v3.48a3.79,3.79,0,0,1-3.53,2.44"/><path id="Fill-13" class="cls-11" d="M145.89,27.07a3.78,3.78,0,0,1-3.78-3.77v-.65h0V19.18a3.72,3.72,0,0,1,.25-1.34h0a3.79,3.79,0,0,1,3.42-2.44h.11a3.79,3.79,0,0,1,3.37,2.07h0v0h0a3.72,3.72,0,0,1,.39,1.67V23.3a3.78,3.78,0,0,1-3.78,3.77"/><polygon id="Fill-14" class="cls-6" points="36.07 216.67 49.47 216.67 49.47 150.25 36.07 150.25 36.07 216.67"/><polygon id="Fill-15" class="cls-6" points="74.78 217.33 88.19 217.33 88.19 155.68 74.78 155.68 74.78 217.33"/><path id="Fill-16" class="cls-12" d="M88.19,217.33h0v-.07h0v-.08H85.49V184.43c.92-.42,1.83-.88,2.7-1.39v34.29"/><polyline id="Fill-17" class="cls-13" points="49.47 216.67 49.44 216.67 49.47 216.67 49.47 187.09 49.47 216.67"/><path id="Fill-18" class="cls-12" d="M49.47,216.67h0v-.15H44.8V192.57c-4.53-2.09-7.61-4.6-8.48-9.38a26.7,26.7,0,0,0,12.77,3.89h.38v29.58"/><path id="Fill-19" class="cls-10" d="M88.15,241.88a14.48,14.48,0,0,1,10.27,13.84H74.75V217.27h13.4v24.61"/><path id="Fill-20" class="cls-14" d="M98.42,255.16a14.48,14.48,0,0,0-10.26-13.28v-.08a14.49,14.49,0,0,1,10.26,13.37"/><polygon id="Fill-21" class="cls-15" points="85.39 217.26 85.49 217.26 85.49 217.18 85.39 217.18 85.39 217.26"/><polygon id="Fill-22" class="cls-16" points="85.49 217.26 88.15 217.26 88.15 217.18 85.49 217.18 85.49 217.26"/><path id="Fill-23" class="cls-17" d="M98.42,255.63l-2.76-.25c0-6.52-4.33-10-10.27-11.84V217.27h2.76v24.53h0v.08a14.48,14.48,0,0,1,10.26,13.28c0,.16,0,.32,0,.47"/><path id="Fill-24" class="cls-10" d="M15.9,255.57A14.49,14.49,0,0,1,30.41,241.1H36V216.52h13.4v27.19h0v11.86H15.9"/><path id="Fill-25" class="cls-18" d="M15.9,255.5h0A14.49,14.49,0,0,1,30.41,241H36v.07H30.41A14.49,14.49,0,0,0,15.9,255.5"/><polygon id="Fill-26" class="cls-19" points="36.03 216.52 36.07 216.52 36.07 216.45 36.03 216.45 36.03 216.52"/><polygon id="Fill-27" class="cls-20" points="36.07 216.52 40.21 216.52 40.21 216.45 36.07 216.45 36.07 216.52"/><path id="Fill-28" class="cls-21" d="M20.17,255.5H15.9a14.49,14.49,0,0,1,14.52-14.4H36V216.52h4.18V242.7H34.59a14.5,14.5,0,0,0-14.42,12.8"/><path id="Fill-29" class="cls-18" d="M74.75,254.46H74.5V225.11l.26.13v29.22"/><path id="Fill-30" class="cls-22" d="M74.75,255.06H74.5v-.6h.26v.59"/><path id="Fill-31" class="cls-19" d="M74.75,225.24l-.26-.13v-9h.29v1.12h0v8"/><polygon id="Fill-32" class="cls-20" points="74.78 217.26 78.91 217.26 78.91 216.15 74.78 216.15 74.78 217.26"/><polygon id="Fill-33" class="cls-21" points="74.75 255.06 78.91 255.06 78.91 217.26 74.75 217.26 74.75 255.06"/><path id="Fill-34" class="cls-14" d="M49.4,254.38V243.71h0v10.67h0"/><path id="Fill-35" class="cls-23" d="M49.44,255.43h0v-1.05h0v1.05"/><polyline id="Fill-36" class="cls-17" points="49.4 255.43 45.02 255.43 45.02 216.52 49.44 216.52 49.44 243.71 49.4 243.71 49.4 255.43"/><path id="Fill-37" class="cls-24" d="M74.45,256.43H98.2a.67.67,0,1,0,0-1.33H74.45a.67.67,0,1,0,0,1.33"/><path id="Fill-38" class="cls-24" d="M15.89,256.43H49.37a.67.67,0,1,0,0-1.33H15.89a.67.67,0,1,0,0,1.33"/><path id="Fill-39" class="cls-24" d="M74.52,247.43a2.93,2.93,0,0,1,0,5.87v-5.87"/><path id="Fill-40" class="cls-24" d="M49.43,247.43a2.93,2.93,0,0,0,0,5.87v-5.87"/><path id="Fill-41" class="cls-10" d="M74.7,218.43H88.58a1.25,1.25,0,1,0,0-2.5H74.7a1.25,1.25,0,1,0,0,2.5"/><path id="Fill-42" class="cls-10" d="M35.91,218.1H49.79a1.25,1.25,0,1,0,0-2.5H35.91a1.25,1.25,0,1,0,0,2.5"/><path id="Fill-43" class="cls-6" d="M96.43,170.38H28.09V112.2c0-13.64,11.09-19.7,24.78-19.7H90.72a5.71,5.71,0,0,1,5.72,5.7v72.18"/><path id="Fill-44" class="cls-10" d="M49.09,187.09h25.6c8.14,0,21.77-6.58,21.77-14.69H28.33c0,8.11,12.62,14.69,20.76,14.69"/><path id="Fill-45" class="cls-25" d="M92.67,92.54H91.34a5.78,5.78,0,0,0-.62,0H72.34l0-.05H92.67v.09"/><path id="Fill-46" class="cls-26" d="M92.67,92.84a5.7,5.7,0,0,0-1.33-.31h1.33v.31"/><path id="Fill-47" class="cls-27" d="M92.67,161.42H90.94v-.57a1.41,1.41,0,0,0-1.41-1.4H89a1.41,1.41,0,0,0-1.41,1.4v.57H82.56a1.42,1.42,0,0,0,.08-.47l-1.16-1.15a6.55,6.55,0,0,0-3.85-1.86.84.84,0,0,0-.83-.72H74.92a.84.84,0,0,0-.82.67H71.16a.92.92,0,0,0-.92.92v2.52H60.76V106h2.05A7.15,7.15,0,0,0,70,98.86,7,7,0,0,0,68.82,95H73a5,5,0,0,0-.68-2.52H90.72a5.78,5.78,0,0,1,.62,0,5.7,5.7,0,0,1,1.33.31v68.57"/><path id="Fill-48" class="cls-3" d="M52.17,90a5.05,5.05,0,0,0-5.06,5H57.23a5.05,5.05,0,0,0-5.06-5"/><path id="Fill-49" class="cls-3" d="M68,90a5.05,5.05,0,0,0-5.06,5H73A5.05,5.05,0,0,0,68,90"/><path id="Fill-50" class="cls-28" d="M38.44,166a2.94,2.94,0,0,1-4.13-.31l-5.47-6.36a38,38,0,0,0-4.37-3.61c1.22-1,4.52-2.25,8.81-.19l5.47,6.36a2.92,2.92,0,0,1-.32,4.11"/><path id="Fill-51" class="cls-13" d="M28.56,174.3q-.21-.71-.36-1.43l0-.2h.1a8.12,8.12,0,0,0,.23,1.63"/><path id="Fill-52" class="cls-29" d="M28.2,172.87l0-.2h.07l0,.2"/><path id="Fill-53" class="cls-15" d="M49.06,161.42h-2.8l.25-.48-.14-5.86,2.78,5.87-.08.47m-4.4,0H41.82l-.08-.32,2.42-6,.21,5.86.29.49m-8-2-1.12-1.3a1.18,1.18,0,0,1,1.12,1.18v.13"/><path id="Fill-54" class="cls-17" d="M75.62,183.94a1.5,1.5,0,0,1-1.51-1.5V175H70.64v.19a.73.73,0,0,1-.73.73H54a.73.73,0,0,1-.73-.73V175H50.43c.06.24.11.47.15.71l0,.23v0h0v.18l0,.4c0,.28,0,.6,0,.89a11.64,11.64,0,0,1-.17,1.61,11.17,11.17,0,0,1-.34,1.4,11.64,11.64,0,0,1-.81,2c-.12.23-.22.41-.3.53l-.13.2a.68.68,0,0,1-.57.31.67.67,0,0,1-.59-1l0-.05.07-.14c.05-.1.13-.26.22-.47a10.19,10.19,0,0,0,.57-1.78,9.55,9.55,0,0,0,.2-1.22,9.78,9.78,0,0,0,0-1.37c0-.23,0-.43-.07-.69l-.08-.5v-.07h0v0h0l0-.17a4.21,4.21,0,0,0-.2-.67,3.09,3.09,0,0,0-.17-.4H43.49a4.57,4.57,0,0,0-.24.63,4.28,4.28,0,0,0-.16.68l0,.17h0v0h0v.08l0,.5c0,.26,0,.46,0,.69a9.83,9.83,0,0,0,.12,1.36,9.38,9.38,0,0,0,.27,1.21A10.14,10.14,0,0,0,44,182c.1.2.19.35.24.46l.08.14,0,.05a.67.67,0,0,1-.58,1,.68.68,0,0,1-.55-.28l-.14-.19c-.08-.12-.2-.29-.33-.51a11.65,11.65,0,0,1-.93-1.93,11,11,0,0,1-.42-1.37,11.53,11.53,0,0,1-.27-1.6c0-.29,0-.61,0-.89v-.64l0-.23a6.13,6.13,0,0,1,.15-.93s0-.09,0-.14H35.6v.74a.83.83,0,0,1,.62.94l-.46,2.85-.59-.56-.59.56-.46-2.85a.83.83,0,0,1,.57-.92V175H28.78q-.12-.34-.22-.69a8.12,8.12,0,0,1-.23-1.63h24.8v1.19a.75.75,0,0,0,.75.75H70.2a.75.75,0,0,0,.75-.75v-1.19H96.3a15.72,15.72,0,0,1-.8,2.32H89.77v1a.93.93,0,0,1,.69,1l-.52,3.18H88.62L88.1,177a.93.93,0,0,1,.63-1v-1H77.66v7.45a1.51,1.51,0,0,1-1.51,1.5h-.54Zm-21-10.83H69.45v-.44H54.64Z"/><path id="Fill-55" class="cls-30" d="M90.94,161.42H87.62v-.57a1.41,1.41,0,0,1,1.41-1.4h.5a1.41,1.41,0,0,1,1.41,1.4v.57m-8.38,0h-12a.75.75,0,0,0-.31-.08v-2.52a.92.92,0,0,1,.92-.92H74.1a.84.84,0,0,1,.82-.67h1.87a.84.84,0,0,1,.83.72,6.55,6.55,0,0,1,3.85,1.86L82.64,161a1.42,1.42,0,0,1-.08.47"/><path id="Fill-56" class="cls-31" d="M36.64,161.42h-3v-2.16a1.18,1.18,0,0,1,1.18-1.18h.67l1.12,1.3v2"/><path id="Fill-57" class="cls-32" d="M96.47,172.67H28a17.21,17.21,0,0,1,0-11.25H96.47a13.28,13.28,0,0,1,0,11.25"/><path id="Fill-58" class="cls-33" d="M70.2,174.61H53.88a.75.75,0,0,1-.75-.75v-1.19h1.51v.44H69.45v-.44H71v1.19a.75.75,0,0,1-.75.75"/><path id="Fill-59" class="cls-15" d="M60.76,161.42H53.54a.75.75,0,0,1,.35-.09h6.87v.09"/><path id="Fill-60" class="cls-30" d="M70.24,161.42H60.76v-.09h9.48v.08"/><path id="Fill-61" class="cls-34" d="M70.55,161.42h-.31v-.08a.75.75,0,0,1,.31.08"/><path id="Fill-62" class="cls-35" d="M71,172.67H69.45v-4.2h-5.9a.5.5,0,1,1,0-1h5.9v-4.64H54.64v9.84H53.13V162.08a.75.75,0,0,1,.4-.66h17a.75.75,0,0,1,.4.66v5.39h.27a.5.5,0,1,1,0,1H71v4.2"/><path id="Fill-63" class="cls-10" d="M69.45,172.11H54.64V161.83H69.45v4.64h-5.9a.5.5,0,1,0,0,1h5.9v4.64Zm1.77-5.64H71v-5.39a.75.75,0,0,0-.75-.75H53.88a.75.75,0,0,0-.75.75v11.78a.75.75,0,0,0,.75.75H70.2a.75.75,0,0,0,.75-.75v-5.39h.27a.5.5,0,1,0,0-1Z"/><polygon id="Fill-64" class="cls-36" points="89.52 174.9 90.58 174.9 90.58 167.1 89.52 167.1 89.52 174.9"/><path id="Fill-65" class="cls-36" d="M90.76,178H89.4l-.53-3.26a1,1,0,0,1,.95-1.11h.53a1,1,0,0,1,.95,1.11L90.76,178"/><path id="Fill-66" class="cls-37" d="M90.34,167.86h-.52a1.44,1.44,0,0,1-1.44-1.44v-8.26a1.44,1.44,0,0,1,1.44-1.44h.52a1.44,1.44,0,0,1,1.44,1.44v8.26a1.44,1.44,0,0,1-1.44,1.44"/><polygon id="Fill-67" class="cls-36" points="34.05 174.51 35 174.51 35 164.63 34.05 164.63 34.05 174.51"/><path id="Fill-68" class="cls-36" d="M35.16,177.31l-.61-.58-.61.58-.48-2.92a.86.86,0,0,1,.85-1h.48a.86.86,0,0,1,.85,1l-.48,2.92"/><path id="Fill-69" class="cls-37" d="M34.86,165.31h-.62A1.21,1.21,0,0,1,33,164.1v-7.57a1.21,1.21,0,0,1,1.21-1.21h.62a1.21,1.21,0,0,1,1.21,1.21v7.57a1.21,1.21,0,0,1-1.21,1.21"/><path id="Fill-70" class="cls-38" d="M76.62,181.86h-.55a1.54,1.54,0,0,1-1.55-1.54l0-25a.86.86,0,0,1,.86-.86h1.92a.86.86,0,0,1,.87.86l0,25a1.54,1.54,0,0,1-1.55,1.54"/><path id="Fill-71" class="cls-37" d="M70.55,156.08v2.74a.94.94,0,0,0,.94.94h10.3a1.48,1.48,0,0,0,1.48-1.48l-1.19-1.18a6.73,6.73,0,0,0-4.76-2H71.49a.94.94,0,0,0-.94.94"/><path id="Fill-72" class="cls-37" d="M47.76,164.63l-.2.75c-.1.28-.22.66-.38,1l-.26.57-.33.6c-.24.41-.52.83-.82,1.25s-.63.84-1,1.25-.66.83-.94,1.25a8.12,8.12,0,0,0-.75,1.3,4.9,4.9,0,0,0-.25.68,4.34,4.34,0,0,0-.17.7l0,.17s0,0,0,0h0v0l-.05.57c0,.26,0,.47,0,.71a10.09,10.09,0,0,0,.12,1.4,9.71,9.71,0,0,0,.28,1.24,10.42,10.42,0,0,0,.69,1.79c.1.21.19.36.25.47l.09.14,0,.05a.69.69,0,0,1-.24.94.69.69,0,0,1-.91-.19l-.14-.2c-.08-.12-.2-.3-.34-.52a12,12,0,0,1-1-2,11.37,11.37,0,0,1-.43-1.41,11.87,11.87,0,0,1-.27-1.64c0-.29,0-.63,0-.91V174l0-.24a6.2,6.2,0,0,1,.15-1,6.92,6.92,0,0,1,.27-.94,10.22,10.22,0,0,1,.81-1.7c.3-.53.62-1,.92-1.45a19.54,19.54,0,0,0,1.43-2.34l.22-.49.16-.44c.1-.27.14-.48.2-.67l.14-.77a1.38,1.38,0,0,1,2.72.51l0,.1"/><polyline id="Fill-73" class="cls-39" points="45.25 163.54 47.78 164.53 48.9 158.27 46.06 152.25 46.2 158.26 45.41 159.78 45.25 163.54"/><path id="Fill-74" class="cls-37" d="M42.83,164.7l.25.74c.12.28.26.65.44,1l.3.56.37.58c.26.39.57.8.9,1.2s.68.8,1,1.19.7.79,1,1.2a8.11,8.11,0,0,1,.83,1.25,5,5,0,0,1,.29.66,4.34,4.34,0,0,1,.21.68l0,.17s0,0,0,0h0l.09.59c0,.26,0,.47.07.71a10.14,10.14,0,0,1,0,1.4,9.68,9.68,0,0,1-.2,1.26,10.4,10.4,0,0,1-.59,1.82c-.09.21-.17.37-.22.48l-.08.15,0,.06a.69.69,0,0,0,1.2.68l.13-.2c.08-.13.18-.31.31-.54a11.91,11.91,0,0,0,.83-2,11.31,11.31,0,0,0,.35-1.43,11.82,11.82,0,0,0,.17-1.65c0-.29,0-.63,0-.91l0-.41,0-.19v0l0-.24a6.17,6.17,0,0,0-.21-.95,6.83,6.83,0,0,0-.33-.92,10.15,10.15,0,0,0-.91-1.65c-.33-.51-.68-1-1-1.39a19.54,19.54,0,0,1-1.56-2.25l-.25-.47-.19-.43c-.11-.27-.16-.47-.24-.65l-.19-.76a1.38,1.38,0,0,0-2.68.67l0,.1"/><polyline id="Fill-75" class="cls-39" points="45.27 163.47 42.8 164.6 41.31 158.41 43.79 152.24 44.01 158.25 44.89 159.72 45.27 163.47"/><path id="Fill-76" class="cls-40" d="M37.58,168.83H31.31a1.56,1.56,0,1,1,0-3.12h6.27a1.56,1.56,0,1,1,0,3.13"/><path id="Fill-77" class="cls-40" d="M48.61,168.83H42.34a1.56,1.56,0,1,1,0-3.12h6.27a1.56,1.56,0,1,1,0,3.13"/><path id="Fill-78" class="cls-40" d="M80.22,168.71H73.95a1.56,1.56,0,1,1,0-3.12h6.27a1.56,1.56,0,1,1,0,3.13"/><g id="Group-82"><path id="Fill-79" class="cls-40" d="M92.89,169.58H86.62a1.56,1.56,0,1,1,0-3.12h6.27a1.56,1.56,0,1,1,0,3.13"/><path id="Fill-81" class="cls-6" d="M.27,132.73C2.87,108.92,18.4,103.14,31,98.3a73,73,0,0,1,26.47-4.65l-.61,11.56c-1.61-.06-39.43-6-43.22,28.6-2.22,20.31,14,25.47,14.15,25.62L18,167.36C17.15,166.59-2.51,158.18.27,132.73Z"/></g><g id="Group-4"><g id="Group-2"><path id="Fill-36-2" data-name="Fill-36" class="cls-10" d="M63.36,147.55c-1,.55-1.92,1-2.63,1.29l.43,1,.44-1c-.71-.31-1.62-.75-2.65-1.32a36.32,36.32,0,0,1-4.35-2.78c-4.26-3.2-6.9-6.88-6.9-10.82,0-1.32,0-15.43,0-17.12l-.64,1a36.13,36.13,0,0,1,8.71-2.42,47.22,47.22,0,0,1,5.4-.63,41.07,41.07,0,0,1,13.44,2.77h0c0,.86-.06,3-.07,7.74v.63c0,5.81,0,7.77,0,8,0,4-2.63,7.71-6.86,10.89A34.94,34.94,0,0,1,63.36,147.55Z"/><path id="Fill-36-3" data-name="Fill-36" class="cls-41" d="M63.31,149.25c-1,.54-1.89,1-2.58,1.26l.42,1,.43-1c-.69-.3-1.59-.74-2.59-1.29a35.58,35.58,0,0,1-4.27-2.73c-4.17-3.13-6.76-6.74-6.76-10.61,0-1.29,0-15.12,0-16.77l-.62,1a35.4,35.4,0,0,1,8.53-2.37,46.27,46.27,0,0,1,5.29-.62,44.39,44.39,0,0,1,13.74,3l-.62-1c0,.84,0,3.62,0,8.27V128c0,5.69,0,7.62,0,7.88,0,3.94-2.57,7.56-6.72,10.67A34.23,34.23,0,0,1,63.31,149.25Zm13.08-13.36c0-.26,0-2.19,0-7.88v-.62c0-4.66,0-7.43,0-8.27v-.68l-.62-.28A46.22,46.22,0,0,0,61.16,115a45.48,45.48,0,0,0-14.71,3.18l-.62.28v.68c0,1.65,0,15.47,0,16.77,0,4.69,3,8.81,7.61,12.31A37.69,37.69,0,0,0,58,151.09c1.07.58,2,1,2.76,1.37l.43.19.43-.18c.75-.32,1.69-.77,2.75-1.35a36.34,36.34,0,0,0,4.49-2.86C73.45,144.78,76.39,140.65,76.39,135.89Z"/><path id="Fill-36-4" data-name="Fill-36" class="cls-42" d="M63.31,147.25c-1,.54-1.89,1-2.58,1.26l.42,1,.43-1c-.69-.3-1.59-.74-2.59-1.29a35.58,35.58,0,0,1-4.27-2.73c-4.17-3.13-6.76-6.74-6.76-10.61,0-1.29,0-15.12,0-16.77l0,.77a30.82,30.82,0,0,1,7.95-2.17,46.27,46.27,0,0,1,5.29-.62,44.39,44.39,0,0,1,13.74,3l-.62-2c0,.84,0,4.62,0,9.27V126c0,5.69,0,7.62,0,7.88,0,3.94-2.57,7.56-6.72,10.67A34.23,34.23,0,0,1,63.31,147.25Zm13.08-13.36c0-.26,0-2.19,0-7.88v-.62c0-4.66,0-7.43,0-8.27v-.68l-.62-.28A46.22,46.22,0,0,0,61.16,113a45.48,45.48,0,0,0-14.71,3.18l-.62.28v.68c0,1.65,0,15.47,0,16.77,0,4.69,3,8.81,7.61,12.31A37.69,37.69,0,0,0,58,149.09c1.07.58,2,1,2.76,1.37l.43.19.43-.18c.75-.32,1.69-.77,2.75-1.35a36.34,36.34,0,0,0,4.49-2.86C73.45,142.78,76.39,138.65,76.39,133.89Z"/></g><g id="Group-3"><polygon id="Path-2" class="cls-42" points="55.03 137.41 55.03 128.62 53.29 129.95 53.29 127.79 61.11 121.12 68.94 127.79 68.94 130.07 67.2 128.62 67.2 137.35 62.54 137.36 62.54 132.59 59.69 132.54 59.69 137.43 55.03 137.41"/><rect id="Rectangle-4" class="cls-10" x="59.69" y="126.8" width="2.84" height="2.84"/></g></g><path id="Fill-83" class="cls-4" d="M21.17,154.47a22.07,22.07,0,0,1-2.94-3,22.11,22.11,0,0,0,2.95,3v.06"/><path id="Fill-84" class="cls-5" d="M21.17,154.47h0v-.06h0v.06"/><path id="Fill-85" class="cls-43" d="M27.48,158.31a23,23,0,0,1-6.31-3.85v-.06a23.17,23.17,0,0,0,6.41,3.81l-.11.09"/><path id="Fill-86" class="cls-7" d="M24.68,160.25a1,1,0,0,1-.81-.38h0C19,153.91,9,154.47,9.67,135.17c.5-15.37,15.66-28.29,18.9-28.29h.08c-7.25,4.91-13.8,12.82-15.21,25.73-1,8.89,1.59,14.88,4.78,18.81a22.07,22.07,0,0,0,2.94,3h0a23,23,0,0,0,6.31,3.85L25.34,160a1,1,0,0,1-.66.23"/><path id="Fill-87" class="cls-8" d="M21,170.27l-2-2a5,5,0,0,1,0-7.06l5.43-5.36a5,5,0,0,1,7.09,0l2,2a5,5,0,0,1,0,7.06l-5.43,5.36a5,5,0,0,1-7.09,0"/><path id="Fill-88" class="cls-8" d="M29.69,174.87h0a3,3,0,0,1-4.23,0l-5.21-5.19a3,3,0,0,1,4.23-4.22l5.21,5.19a3,3,0,0,1,0,4.22"/><path id="Fill-89" class="cls-8" d="M34.75,171.67h0a3,3,0,0,1-4.23,0L24,165.13a3,3,0,1,1,4.23-4.22l6.57,6.54a3,3,0,0,1,0,4.22"/><path id="Fill-90" class="cls-8" d="M39.42,168.27h0a3,3,0,0,1-4.23,0l-8.38-8.35A3,3,0,0,1,31,155.7l8.38,8.35a3,3,0,0,1,0,4.22"/><path id="Fill-91" class="cls-10" d="M62.81,106H57.7a7.12,7.12,0,1,1,0-14.24h5.12a7.12,7.12,0,1,1,0,14.24"/><path id="Fill-92" class="cls-8" d="M61.89,103.93H58a6.09,6.09,0,0,1-6.1-6.08V59.36H68V97.85a6.09,6.09,0,0,1-6.1,6.08"/><path id="Fill-93" class="cls-14" d="M51.9,90a5.34,5.34,0,0,1-.05-.77v-.15h.06V90h0"/><path id="Fill-94" class="cls-13" d="M51.91,90.05V90h0v.07"/><path id="Fill-95" class="cls-44" d="M61.82,93.31H58c-3.07,0-5.62-.6-6-3.25v-1c1.21.1,2.45.15,3.71.15H67.93c0,3.35-2.74,4.07-6.1,4.07"/><path id="Fill-96" class="cls-8" d="M71.55,89.23H55.62c-14.82,0-27-7.09-27-21.86V34.73A12.68,12.68,0,0,1,41.33,22.11H80A12.68,12.68,0,0,1,92.69,34.73V73.16c0,11.59-9.52,16.07-21.14,16.07"/><path id="Fill-97" class="cls-45" d="M96.35,7.41A21.7,21.7,0,0,0,97.6.59V.14l-7.3,7.27H50A25.57,25.57,0,0,0,24.35,32.94V66.18c0,5.08,4.13,4.2,9.23,4.2h3V41.64a11.74,11.74,0,0,0,10.57-9.89H77.8A24.38,24.38,0,0,0,102.22,7.41H96.35"/><path id="Fill-98" class="cls-8" d="M71.55,89.23H55.62c-14.82,0-27-7.09-27-21.86V57.72h64V73.16c0,11.59-9.52,16.07-21.14,16.07"/><path id="Fill-99" class="cls-46" d="M92.65,57.72h-30V33.17H78.61s10.74-.22,11.93-5l.19-.12a12.49,12.49,0,0,1,1.92,6.66v23M78.54,52.53l-2.07,3.74,3.65.21L90.2,38.27l-3.65-.21L81.7,46.84a3.53,3.53,0,0,0-.82-.73L85.36,38l-1.84-.1a1.44,1.44,0,0,0-.92-.33H78.21A1.44,1.44,0,0,0,76.77,39a1.43,1.43,0,0,0,.4,1l-6,11,4.12,5.26,2.2-4a3.5,3.5,0,0,0,1.06.31"/><path id="Fill-100" class="cls-47" d="M90.54,28.18h0l.19-.12h0l-.19.12"/><path id="Fill-101" class="cls-46" d="M71.51,89.23H62.68V67c1.69-.25,3-2.12,3-4.41s-1.32-4.16-3-4.41v-.47h30V73.16c0,11.59-9.52,16.07-21.14,16.07m7-30.94a3.79,3.79,0,1,0,0,7.58h5.87a3.79,3.79,0,1,0,0-7.58H78.55"/><path id="Fill-102" class="cls-48" d="M62.56,68a.89.89,0,0,1-.63-1.52l.93-.93a3.88,3.88,0,0,0,0-5.49l-1.27-1.26V48.6a.89.89,0,0,1,1.79,0v9.5l.74.74a5.66,5.66,0,0,1,0,8l-.93.93a.89.89,0,0,1-.63.26"/><path id="Fill-103" class="cls-45" d="M50,43.33l-4.35.56A1.44,1.44,0,1,1,45.27,41l4.35-.56A1.44,1.44,0,1,1,50,43.33"/><path id="Fill-104" class="cls-10" d="M46.57,48.73a3.51,3.51,0,1,1,3.51,3.5,3.51,3.51,0,0,1-3.51-3.5"/><path id="Fill-105" class="cls-45" d="M48.39,48.17a2.28,2.28,0,1,1,2.28,2.27,2.27,2.27,0,0,1-2.28-2.27"/><path id="Fill-106" class="cls-45" d="M78.21,40.44H82.6a1.44,1.44,0,1,0,0-2.88H78.21a1.44,1.44,0,1,0,0,2.88"/><path id="Fill-107" class="cls-49" d="M84.42,65.88H78.55a3.79,3.79,0,1,1,0-7.58h5.87a3.79,3.79,0,1,1,0,7.58"/><path id="Fill-108" class="cls-46" d="M51,66.21H45.1a3.79,3.79,0,1,1,0-7.58H51a3.79,3.79,0,1,1,0,7.58"/><path id="Fill-109" class="cls-10" d="M82.5,49.06A3.51,3.51,0,1,0,79,52.56a3.51,3.51,0,0,0,3.51-3.5"/><path id="Fill-110" class="cls-45" d="M81.7,48.34a2.28,2.28,0,1,0-2.28,2.27,2.27,2.27,0,0,0,2.28-2.27"/><path id="Fill-111" class="cls-8" d="M36.71,58.43a7.85,7.85,0,1,1-7.86-7.83,7.84,7.84,0,0,1,7.86,7.83"/><path id="Fill-112" class="cls-50" d="M37.06,42.35h-.5v-.7A11.64,11.64,0,0,0,38,41.42l-.51.92h-.45m9-2.6.8-1.44-2.89-.16a11.69,11.69,0,0,0,3.2-6.4H62.68v1.41H49a8.28,8.28,0,0,1-3,6.58"/><path id="Fill-113" class="cls-51" d="M36.56,42.34c-.6,0-1-.05-1-.05L34.36,31.75H47.13a11.69,11.69,0,0,1-3.2,6.4l-4-.23L38,41.42a11.64,11.64,0,0,1-1.46.22v.7"/><path id="Fill-114" class="cls-52" d="M78.61,33.17H62.68V31.75H77.8a24.37,24.37,0,0,0,12.74-3.57c-1.2,4.76-11.93,5-11.93,5"/><path id="Fill-115" class="cls-53" d="M77.8,31.75h.1a24.37,24.37,0,0,0,12.64-3.57h0A24.37,24.37,0,0,1,77.8,31.75"/><path id="Fill-116" class="cls-45" d="M77.9,31.75A24.38,24.38,0,0,0,102.22,7.41H96.35A21.7,21.7,0,0,0,97.6.59V.14l-7.3,7.27H50A25.57,25.57,0,0,0,24.38,31.75H77.9"/><path id="Fill-117" class="cls-48" d="M72.24,70.38a15.62,15.62,0,0,1-3,.9,57,57,0,0,1-10.51.85l-1.66,0h-.65v0h0v0a9.27,9.27,0,0,1-2-.27,3.26,3.26,0,0,1-1.14-.5.87.87,0,0,1-.23-.26.53.53,0,0,1-.06-.27,1,1,0,0,0-2,0A2.54,2.54,0,0,0,51.21,72a2.83,2.83,0,0,0,.66.79,4.56,4.56,0,0,0,1.44.78,9.46,9.46,0,0,0,2.07.43c.57.06,1,.06,1,.06v-1l0,1s.93,0,2.36,0c1.79,0,4.39-.06,7-.32a38.64,38.64,0,0,0,3.89-.57,17.49,17.49,0,0,0,3.43-1,1,1,0,1,0-.81-1.83"/><path id="Fill-118" class="cls-54" d="M60.09,76.5H55.32a.75.75,0,1,1,0-1.5h4.77a.75.75,0,1,1,0,1.5"/><path id="Fill-119" class="cls-55" d="M28.57,63.28a4.84,4.84,0,0,1,0-9.66v9.66"/><path id="Fill-120" class="cls-56" d="M75.6,24.54l2.47-2.46a8.65,8.65,0,0,1-3.35.67l8.65-8.62a8.58,8.58,0,0,1-.67,3.34l3.93-3.92a11,11,0,0,1-11,11"/><path id="Fill-121" class="cls-57" d="M36.74,56.52l-.18-.23V44.08l1-1.73c2.22,0,5.92-.48,8.52-2.6L45.31,41h0A1.44,1.44,0,0,0,44,42.65a1.42,1.42,0,0,0,.14.46L36.74,56.52"/><path id="Fill-122" class="cls-58" d="M36.56,56.29,36.31,56a7.85,7.85,0,0,0-3.26-4.16l-.44-.56,3.94-7.18V56.29"/><path id="Fill-123" class="cls-58" d="M44.16,43.11a1.42,1.42,0,0,1-.14-.46A1.44,1.44,0,0,1,45.27,41h0l-1.15,2.08"/><path id="Fill-124" class="cls-57" d="M36.31,56l-3.26-4.16A7.85,7.85,0,0,1,36.31,56"/><path id="Fill-125" class="cls-59" d="M37.51,42.35l.51-.92a11.72,11.72,0,0,0,5.92-3.28l2.89.16L46,39.75c-2.6,2.12-6.3,2.55-8.52,2.6"/><path id="Fill-126" class="cls-58" d="M38,41.42l1.92-3.5,4,.23A11.72,11.72,0,0,1,38,41.42"/><path id="Fill-127" class="cls-57" d="M41.57,56.79l-3.65-.21L45,43.83a1.43,1.43,0,0,0,.46.08h.18L49,43.47,41.57,56.79m5.06-15.93L48,38.38l3.65.21-1.15,2.07a1.44,1.44,0,0,0-.71-.19h-.18l-3,.38"/><path id="Fill-128" class="cls-58" d="M45.45,43.9a1.43,1.43,0,0,1-.46-.08l1.64-3,3-.38h.18a1.44,1.44,0,0,1,.71.19L49,43.47l-3.32.43h-.18"/><path id="Fill-129" class="cls-60" d="M75.28,56.21l-4.12-5.26,6-11a1.44,1.44,0,0,0,1,.45H82.6a1.44,1.44,0,0,0,.92-2.54l1.84.1-4.49,8.11a3.5,3.5,0,1,0-3.39,6.12l-2.2,4"/><path id="Fill-130" class="cls-56" d="M82.6,40.44H78.21a1.44,1.44,0,0,1-1-.45l1.31-2.38,5,.29a1.44,1.44,0,0,1-.92,2.54"/><path id="Fill-131" class="cls-10" d="M77.48,52.23a3.5,3.5,0,1,1,3.39-6.12l-.19.34a2.27,2.27,0,1,0-2.19,4l-1,1.81"/><path id="Fill-132" class="cls-56" d="M78.49,50.41a2.27,2.27,0,1,1,2.19-4l-2.19,4"/><path id="Fill-133" class="cls-60" d="M80.12,56.48l-3.65-.21,2.07-3.74.45,0a3.5,3.5,0,0,0,2.71-5.73l4.86-8.77,3.65.21L80.12,56.48"/><path id="Fill-134" class="cls-10" d="M79,52.56l-.45,0,1.07-1.93a2.27,2.27,0,0,0,1.84-3.31l.25-.46A3.5,3.5,0,0,1,79,52.56"/><path id="Fill-135" class="cls-56" d="M79.61,50.6l1.84-3.31a2.27,2.27,0,0,1-1.84,3.31"/><path id="Fill-136" class="cls-3" d="M49.31,55.61l-8.13,0s-8.29.22-8.33-12.75c0-4.32,5.25-3.88,5.25-3.88l13.71,0s5.35.45,5.36,4.54-4.07,12.1-7.86,12.11ZM29.2,43C30.5,58.79,40.57,58.6,40.57,58.6l9.3,0c5.73,0,10.5-9.53,11.18-14.86s-6.3-7.7-6.3-7.7l-21,.07h-3.1A3.63,3.63,0,0,0,27,39.73L29.2,43Z"/><path id="Fill-137" class="cls-3" d="M70.62,43.45c0-4.09,5.33-4.57,5.33-4.57l13.71,0s5.27-.48,5.28,3.84c0,13-8.25,12.81-8.25,12.81l-8.13,0c-3.8,0-7.93-8-7.94-12.06Zm30.12-4h0a3.63,3.63,0,0,0-3.65-3.62H94L73,36s-7,2.42-6.25,7.74S72.29,58.5,78,58.48l9.29,0s10.07.12,11.26-15.71l2.16-3.25Z"/><polyline id="Fill-138" class="cls-3" points="67.94 44.16 58.64 44.19 58.63 39.55 67.92 39.52 67.94 44.16"/><path id="Fill-139" class="cls-61" d="M29.76,39.26a1,1,0,1,1,1,1,1,1,0,0,1-1-1"/><path id="Fill-140" class="cls-61" d="M96.38,39a1,1,0,1,1,1,1,1,1,0,0,1-1-1"/></g></g></g></g></g></svg>