<svg width="190px" height="56px" viewBox="0 0 190 56" version="1.1" xmlns="http://www.w3.org/2000/svg" xmlns:xlink="http://www.w3.org/1999/xlink">
    <defs>
        <path d="M25.0923668,48.8399688 C23.6856799,49.60428 22.4409375,50.202267 21.4671322,50.6230471 L22.0621118,52 L22.6663696,50.6270934 C21.6903682,50.1975256 20.4352408,49.5856321 19.0175793,48.8074339 C16.9421738,47.6681795 14.9072205,46.3810805 13.019023,44.9592761 C7.1557686,40.5399199 3.5149925,35.4558094 3.5149925,30.0017399 C3.5149925,28.1765022 3.50345309,8.67560546 3.49999834,6.35207405 L2.62332498,7.71865984 C5.80674109,6.26427147 9.98427531,5.14993809 14.6191015,4.36947055 C17.735084,3.84476412 21.0650708,3.5 22.05997,3.5 C26.034537,3.5 36.0100498,5.26972531 41.3772817,7.71893684 L40.5,6.35430433 C40.5,7.53914983 40.4976114,11.4558743 40.4931021,18.0215063 C40.4928034,18.4560019 40.4928034,18.4560019 40.4925041,18.8898246 C40.486882,26.9146917 40.4850075,29.6323778 40.4850075,30.0017399 C40.4850075,35.5569628 36.8675788,40.658459 31.0392096,45.0441143 C29.1681255,46.4525345 27.1508743,47.7214964 25.0923668,48.8399688 Z M43.4850075,30.0017399 C43.4850075,29.6335849 43.4868811,26.9171054 43.4925034,18.8918957 C43.4928027,18.458068 43.4928027,18.458068 43.4931014,18.0235667 C43.4976116,11.4565917 43.5,7.5402195 43.5,6.35430433 L43.5,5.38999893 L42.6227183,4.98967182 C36.8233109,2.34324703 26.433374,0.5 22.05997,0.5 C17.6921495,0.5 7.41730775,2.23020088 1.37667502,4.98994882 L0.498566237,5.39112515 L0.500001658,6.35653461 C0.503453932,8.67840177 0.514992504,28.1778762 0.514992504,30.0017399 C0.514992504,36.6190022 4.67285841,42.4251955 11.2138645,47.3553984 C13.2259681,48.8705039 15.3800441,50.2329474 17.573982,51.4372679 C19.0728107,52.2600213 20.4056333,52.9097924 21.457854,53.3729066 L22.0565904,53.6364286 L22.6570914,53.3769529 C23.7094107,52.922247 25.0342061,52.2858017 26.5246283,51.4759936 C28.7054094,50.2910849 30.8454494,48.944882 32.843193,47.4411215 C39.3489495,42.5457546 43.4850075,36.7128591 43.4850075,30.0017399 Z" id="path-1"></path>
        <filter x="-50%" y="-50%" width="200%" height="200%" filterUnits="objectBoundingBox" id="filter-2">
            <feOffset dx="0" dy="2" in="SourceAlpha" result="shadowOffsetOuter1"></feOffset>
            <feColorMatrix values="0 0 0 0 0   0 0 0 0 0   0 0 0 0 0  0 0 0 0.1 0" type="matrix" in="shadowOffsetOuter1"></feColorMatrix>
        </filter>
    </defs>
    <path d="M59.385625,35.1139241 C59.385625,35.4092827 59.652789,35.6751055 59.9496378,35.6751055 L63.5118238,35.6751055 C63.8086726,35.6751055 64.0758366,35.4092827 64.0758366,35.1139241 L64.0758366,15.5611814 C64.0758366,15.2658228 63.8086726,15 63.5118238,15 L59.9496378,15 C59.652789,15 59.385625,15.2658228 59.385625,15.5611814 L59.385625,35.1139241 Z M68.0041362,35.0253165 C68.0041362,35.3797468 68.2713001,35.6751055 68.6572036,35.6751055 L71.863171,35.6751055 C72.1897048,35.6751055 72.5162385,35.3797468 72.5162385,35.0253165 L72.5162385,28.2616034 C72.5162385,26.8734177 73.2286757,25.92827 74.6238652,25.92827 C76.1377943,25.92827 76.3752733,27.0506329 76.3752733,28.4388186 L76.3752733,35.0253165 C76.3752733,35.3797468 76.6721222,35.6751055 77.0283408,35.6751055 L80.2639931,35.6751055 C80.6498966,35.6751055 80.8873756,35.3797468 80.8873756,35.0253165 L80.8873756,28.2025316 C80.8873756,26.8734177 81.6294977,25.92827 82.8168931,25.92827 C84.4198768,25.92827 84.8354652,27.0506329 84.8354652,28.4388186 L84.8354652,35.0253165 C84.8354652,35.3797468 85.1026291,35.6751055 85.4885326,35.6751055 L88.6945,35.6751055 C89.0507186,35.6751055 89.3475675,35.3797468 89.3475675,35.0253165 L89.3475675,28.6455696 C89.3475675,24.7763713 87.9523779,21.7341772 83.7371245,21.7341772 C81.3920187,21.7341772 80.1155687,23.0337553 79.4031315,23.8016878 C78.1563664,22.443038 77.236135,21.7341772 75.3363024,21.7341772 C73.1099362,21.7341772 71.9819106,22.9156118 71.0913641,23.8016878 L70.5273513,22.4135021 C70.4382966,22.1772152 70.2008176,22.0295359 69.9633385,22.0295359 L68.6572036,22.0295359 C68.2713001,22.0295359 68.0041362,22.2953586 68.0041362,22.6793249 L68.0041362,35.0253165 Z M92.771224,35.0253165 C92.771224,35.3797468 93.038388,35.6751055 93.4242915,35.6751055 L96.6302589,35.6751055 C96.9567926,35.6751055 97.2833263,35.3797468 97.2833263,35.0253165 L97.2833263,28.2616034 C97.2833263,26.8734177 97.9957635,25.92827 99.3909531,25.92827 C100.904882,25.92827 101.142361,27.0506329 101.142361,28.4388186 L101.142361,35.0253165 C101.142361,35.3797468 101.43921,35.6751055 101.795429,35.6751055 L105.031081,35.6751055 C105.416984,35.6751055 105.654463,35.3797468 105.654463,35.0253165 L105.654463,28.2025316 C105.654463,26.8734177 106.396586,25.92827 107.583981,25.92827 C109.186965,25.92827 109.602553,27.0506329 109.602553,28.4388186 L109.602553,35.0253165 C109.602553,35.3797468 109.869717,35.6751055 110.25562,35.6751055 L113.461588,35.6751055 C113.817806,35.6751055 114.114655,35.3797468 114.114655,35.0253165 L114.114655,28.6455696 C114.114655,24.7763713 112.719466,21.7341772 108.504212,21.7341772 C106.159107,21.7341772 104.882657,23.0337553 104.170219,23.8016878 C102.923454,22.443038 102.003223,21.7341772 100.10339,21.7341772 C97.877024,21.7341772 96.7489984,22.9156118 95.8584519,23.8016878 L95.2944391,22.4135021 C95.2053845,22.1772152 94.9679054,22.0295359 94.7304263,22.0295359 L93.4242915,22.0295359 C93.038388,22.0295359 92.771224,22.2953586 92.771224,22.6793249 L92.771224,35.0253165 Z M116.73682,28.8227848 C116.73682,32.721519 119.972472,36 123.890877,36 C127.809282,36 131.015249,32.721519 131.015249,28.8227848 C131.015249,24.9831224 127.809282,21.7341772 123.890877,21.7341772 C119.972472,21.7341772 116.73682,24.9831224 116.73682,28.8227848 L116.73682,28.8227848 Z M121.011443,28.8227848 C121.011443,27.257384 122.287893,25.92827 123.890877,25.92827 C125.464176,25.92827 126.740626,27.257384 126.740626,28.8227848 C126.740626,30.4177215 125.464176,31.7763713 123.890877,31.7763713 C122.287893,31.7763713 121.011443,30.4177215 121.011443,28.8227848 L121.011443,28.8227848 Z M133.815523,35.0253165 C133.815523,35.3797468 134.112372,35.6751055 134.46859,35.6751055 L137.585503,35.6751055 C138.179201,35.6751055 138.327625,35.4683544 138.327625,35.0253165 L138.327625,28.5864979 C138.327625,26.5189873 139.247857,25.92827 140.346197,25.92827 C141.830442,25.92827 142.394454,27.0506329 142.394454,28.5864979 L142.394454,35.0253165 C142.394454,35.3797468 142.661618,35.6751055 143.047522,35.6751055 L146.253489,35.6751055 C146.580023,35.6751055 146.906557,35.3797468 146.906557,35.0253165 L146.906557,28.6455696 C146.906557,24.8649789 145.541052,21.7341772 141.236744,21.7341772 C140.227458,21.7341772 139.277542,22.0590717 138.327625,22.7088608 L138.327625,15.649789 C138.327625,15.3248945 138.030776,15 137.674558,15 L134.46859,15 C134.112372,15 133.815523,15.3248945 133.815523,15.649789 L133.815523,35.0253165 Z M149.558406,28.8523207 C149.558406,33.0759494 152.645634,36 156.742148,36 C158.909145,36 160.630868,35.2616034 161.818263,34.0506329 C162.115112,33.7552743 162.055742,33.3417722 161.847948,33.0759494 L160.334019,31.0970464 C160.126225,30.8312236 159.770006,30.8312236 159.473157,31.0970464 C158.87946,31.5105485 157.751434,31.9535865 156.860888,31.9535865 C154.99074,31.9535865 154.011139,30.6540084 154.011139,29.5907173 L162.471331,29.5907173 C162.768179,29.5907173 163.094713,29.3544304 163.124398,29 C163.154083,28.7932489 163.183768,28.3206751 163.183768,28.1139241 C163.183768,24.3628692 160.15591,21.7341772 156.682778,21.7341772 C152.615949,21.7341772 149.558406,25.0126582 149.558406,28.8523207 L149.558406,28.8523207 Z M154.515782,26.9915612 C154.693891,26.0759494 155.436013,25.3080169 156.564039,25.3080169 C157.721749,25.3080169 158.493556,26.0759494 158.552926,26.9915612 L154.515782,26.9915612 Z M165.835617,35.0253165 C165.835617,35.3797468 166.132466,35.6751055 166.488685,35.6751055 L169.694652,35.6751055 C170.050871,35.6751055 170.34772,35.3797468 170.34772,35.0253165 L170.34772,15.649789 C170.34772,15.3248945 170.050871,15 169.694652,15 L166.488685,15 C166.132466,15 165.835617,15.3248945 165.835617,15.649789 L165.835617,35.0253165 Z M173.207363,28.8523207 C173.207363,32.7510549 176.116482,36 179.975517,36 C183.003375,36 184.606359,33.8734177 184.606359,33.8734177 L184.992262,34.9957806 C185.111002,35.3797468 185.378166,35.6751055 185.704699,35.6751055 L187.040519,35.6751055 C187.396738,35.6751055 187.693587,35.3797468 187.693587,35.0253165 L187.693587,15.649789 C187.693587,15.3248945 187.396738,15 187.040519,15 L183.834552,15 C183.478333,15 183.181484,15.3248945 183.181484,15.649789 L183.181484,22.5021097 C182.736211,22.1476793 181.341022,21.7341772 180.005202,21.7341772 C176.353961,21.7341772 173.207363,24.0379747 173.207363,28.8523207 L173.207363,28.8523207 Z M177.749151,28.8227848 C177.749151,27.1687764 179.025601,25.92827 180.658269,25.92827 C182.350308,25.92827 183.567388,27.1687764 183.567388,28.8227848 C183.567388,30.5063291 182.350308,31.7763713 180.658269,31.7763713 C179.025601,31.7763713 177.749151,30.5063291 177.749151,28.8227848 L177.749151,28.8227848 Z" id="Immoheld" stroke="none" fill="#FBFBFF" fill-rule="evenodd"></path>
    <g id="Group-2" stroke="none" stroke-width="1" fill="none" fill-rule="evenodd">
        <path d="M25.1496262,49.2748135 C23.7139354,50.0548838 22.4435282,50.6652004 21.4496444,51.0946563 L22.0568917,52.5 L22.6736085,51.0987861 C21.6774833,50.6603612 20.3964769,50.0358513 18.9495853,49.2416078 C16.831388,48.0788637 14.7544769,46.7652265 12.8273475,45.3141065 C6.84320121,40.8036296 3.12735756,35.6146921 3.12735756,30.0481675 C3.12735756,28.185296 3.11558022,8.28231897 3.11205424,5.9108797 L2.21730514,7.30564252 C5.4663587,5.82126675 9.73002764,4.68395743 14.4604173,3.88739778 C17.6406468,3.35187266 21.0392931,3 22.0547057,3 C26.1112226,3 35.4828041,4.41049447 40.9607006,6.9102052 L40.9607006,6.9102052 C40.9607006,8.11948051 40.8725046,11.1199129 40.8679024,17.8209188 C40.8675975,18.2643731 40.8675975,18.2643731 40.8672921,18.7071406 C40.861554,26.8974688 40.8596409,29.6711897 40.8596409,30.0481675 C40.8596409,35.7179311 37.167626,40.9246127 31.2190843,45.4006939 C29.3094211,46.8381537 27.2505771,48.1332798 25.1496262,49.2748135 Z" id="Fill-36" fill="#FFFFFF"></path>
        <g id="Fill-36">
            <use fill="black" fill-opacity="1" filter="url(#filter-2)" xlink:href="#path-1"></use>
            <use fill="#006695" fill-rule="evenodd" xlink:href="#path-1"></use>
        </g>
    </g>
    <g id="Group-3" stroke="none" stroke-width="1" fill="none" fill-rule="evenodd" transform="translate(11.000000, 12.000000)">
        <polygon id="Path-2" fill="#006695" points="2.44444444 22.9636947 2.44444444 10.5768313 0 12.4431993 0 9.4016278 10.9945843 0 22 9.4016278 22 12.6185665 19.5555556 10.5768313 19.5555556 22.8857635 13 22.892649 13 16.1786752 9 16.0985532 9 23"></polygon>
        <rect id="Rectangle-4" fill="#FFFFFF" x="9" y="8" width="4" height="4"></rect>
    </g>
</svg>