<svg width="102px" height="108px" viewBox="59 98 102 108" version="1.1" xmlns="http://www.w3.org/2000/svg" xmlns:xlink="http://www.w3.org/1999/xlink">
    <defs></defs>
    <g id="noun_183061_cc" stroke="none" stroke-width="1" fill="none" fill-rule="evenodd" transform="translate(110.000000, 151.000000) rotate(9.000000) translate(-110.000000, -151.000000) translate(66.000000, 106.000000)">
        <g id="Group" transform="translate(0.000000, -0.000000)">
            <path d="M84.1373034,47.505065 C82.9873034,47.505065 82.0043034,48.215065 81.5943034,49.222065 C80.6103034,48.711065 79.6213034,48.522065 78.6313034,48.479065 C77.6133034,48.515065 76.5983034,48.708065 75.5803034,49.258065 C75.5473034,45.313065 74.7483034,41.551065 73.3093034,38.120065 C74.8133034,38.484065 76.1413034,38.306065 77.4073034,37.945065 C78.4833034,37.559065 79.5113034,37.027065 80.4253034,36.146065 C81.1503034,37.091065 82.2383034,37.741065 83.5233034,37.741065 C85.7143034,37.741065 87.4903034,35.968065 87.4903034,33.775065 C87.4903034,31.584065 85.7153034,29.809065 83.5233034,29.809065 C81.3313034,29.809065 79.5583034,31.583065 79.5583034,33.775065 C79.5583034,33.915065 79.6223034,34.033065 79.6363034,34.169065 C78.4433034,34.023065 77.3473034,34.176065 76.2983034,34.469065 C74.9953034,34.929065 73.7633034,35.608065 72.7263034,36.882065 C70.8693034,32.977065 68.2063034,29.528065 64.9083034,26.801065 C65.2793034,26.437065 65.6253034,26.055065 65.9573034,25.662065 C66.8893034,24.424065 67.7073034,23.099065 68.1293034,21.450065 C68.3243034,21.500065 68.5143034,21.571065 68.7253034,21.571065 C70.1613034,21.571065 71.3213034,20.411065 71.3213034,18.976065 C71.3213034,17.544065 70.1613034,16.384065 68.7253034,16.384065 C67.2933034,16.384065 66.1333034,17.544065 66.1333034,18.976065 C66.1333034,19.522065 66.3403034,20.000065 66.6253034,20.417065 C65.1763034,21.182065 64.0843034,22.230065 63.1053034,23.373065 C62.7593034,23.826065 62.4373034,24.298065 62.1423034,24.790065 C60.8713034,23.966065 59.5373034,23.237065 58.1403034,22.616065 C58.7143034,21.859065 59.1633034,21.053065 59.5463034,20.214065 C60.0213034,18.983065 60.3573034,17.693065 60.3703034,16.270065 C60.5673034,16.295065 60.7413034,16.384065 60.9443034,16.384065 C63.4713034,16.384065 65.5203034,14.335065 65.5203034,11.808065 C65.5203034,9.28106502 63.4713034,7.23306502 60.9443034,7.23306502 C58.4173034,7.23306502 56.3683034,9.28206502 56.3683034,11.809065 C56.3683034,13.369065 57.2003034,14.679065 58.3893034,15.503065 C57.4033034,16.492065 56.7213034,17.609065 56.1803034,18.787065 C55.8323034,19.673065 55.5513034,20.586065 55.4143034,21.557065 C52.7773034,20.683065 49.9753034,20.183065 47.0663034,20.094065 C47.4413034,18.837065 47.5893034,17.581065 47.6233034,16.328065 C47.5863034,15.106065 47.4433034,13.886065 47.0943034,12.665065 C48.9513034,11.923065 50.2643034,10.116065 50.2643034,7.99606502 C50.2643034,5.21606502 48.0123034,2.96306502 45.2313034,2.96306502 C42.4503034,2.96306502 40.1983034,5.21606502 40.1983034,7.99606502 C40.1983034,10.491065 42.0183034,12.548065 44.4033034,12.947065 C44.1103034,14.071065 44.0003034,15.199065 43.9673034,16.328065 C43.9993034,17.595065 44.1533034,18.862065 44.5343034,20.129065 C40.1223034,20.368065 35.9643034,21.550065 32.2803034,23.521065 C32.0483034,22.753065 31.7453034,22.029065 31.3813034,21.336065 C30.8423034,20.447065 30.2143034,19.608065 29.4143034,18.865065 C29.8353034,18.287065 30.1313034,17.612065 30.1313034,16.845065 C30.1313034,14.907065 28.5613034,13.335065 26.6223034,13.335065 C24.6833034,13.335065 23.1133034,14.906065 23.1133034,16.845065 C23.1133034,18.783065 24.6833034,20.354065 26.6223034,20.354065 C26.7973034,20.354065 26.9473034,20.279065 27.1153034,20.253065 C27.3403034,21.288065 27.7293034,22.231065 28.1973034,23.127065 C28.6143034,23.823065 29.0963034,24.483065 29.6603034,25.098065 C28.1043034,26.151065 26.6583034,27.343065 25.3343034,28.667065 C24.6913034,27.913065 23.9963034,27.225065 23.2533034,26.593065 C22.1713034,25.761065 21.0153034,25.030065 19.7093034,24.473065 C19.9343034,23.906065 20.0663034,23.287065 20.0663034,22.638065 C20.0663034,19.861065 17.8143034,17.605065 15.0293034,17.605065 C12.2523034,17.605065 9.9963034,19.861065 9.9963034,22.638065 C9.9963034,25.422065 12.2523034,27.675065 15.0293034,27.675065 C16.2463034,27.675065 17.3493034,27.225065 18.2203034,26.507065 C19.0163034,27.621065 19.9483034,28.570065 20.9513034,29.431065 C21.6823034,29.995065 22.4573034,30.509065 23.2783034,30.966065 C21.9153034,32.647065 20.7553034,34.488065 19.7833034,36.445065 C19.2483034,36.073065 18.6983034,35.738065 18.1233034,35.445065 C17.0133034,34.956065 15.8383034,34.591065 14.5533034,34.467065 C14.5573034,34.438065 14.5713034,34.413065 14.5713034,34.384065 C14.5713034,32.699065 13.2043034,31.332065 11.5193034,31.332065 C9.8343034,31.332065 8.4673034,32.699065 8.4673034,34.384065 C8.4673034,36.070065 9.8343034,37.437065 11.5193034,37.437065 C12.3153034,37.437065 13.0253034,37.116065 13.5723034,36.616065 C14.4713034,37.519065 15.4853034,38.190065 16.5563034,38.744065 C17.1843034,39.022065 17.8343034,39.247065 18.5053034,39.432065 C17.7913034,41.399065 17.2743034,43.462065 16.9913034,45.600065 C16.0063034,45.308065 15.0213034,45.201065 14.0353034,45.172065 C13.0823034,45.204065 12.1293034,45.300065 11.1803034,45.568065 C10.4593034,43.670065 8.6353034,42.316065 6.4823034,42.316065 C3.7053034,42.316065 1.4493034,44.569065 1.4493034,47.353065 C1.4493034,50.130065 3.7053034,52.386065 6.4823034,52.386065 C8.8813034,52.386065 10.8733034,50.708065 11.3833034,48.470065 C12.2683034,48.699065 13.1503034,48.799065 14.0353034,48.827065 C14.9423034,48.802065 15.8483034,48.705065 16.7553034,48.463065 C16.7443034,48.806065 16.7053034,49.142065 16.7053034,49.487065 C16.7053034,54.546065 17.9833034,59.303065 20.2283034,63.459065 C19.6433034,63.680065 19.0793034,63.938065 18.5433034,64.240065 C17.6793034,64.807065 16.8803034,65.479065 16.1943034,66.340065 C15.5693034,65.844065 14.8163034,65.504065 13.9563034,65.504065 C11.9363034,65.504065 10.2973034,67.143065 10.2973034,69.163065 C10.2973034,71.186065 11.9363034,72.825065 13.9563034,72.825065 C15.9803034,72.825065 17.6193034,71.186065 17.6193034,69.163065 C17.6193034,68.928065 17.5263034,68.721065 17.4833034,68.495065 C18.5723034,68.281065 19.5433034,67.871065 20.4493034,67.360065 C20.9673034,67.021065 21.4593034,66.631065 21.9233034,66.204065 C23.5973034,68.628065 25.6323034,70.772065 27.9383034,72.594065 C27.1103034,73.204065 26.3713034,73.889065 25.6863034,74.624065 C24.7763034,75.713065 23.9733034,76.902065 23.3983034,78.287065 C22.9693034,78.134065 22.5233034,78.012065 22.0453034,78.012065 C19.7713034,78.012065 17.9263034,79.858065 17.9263034,82.131065 C17.9263034,84.405065 19.7713034,86.251065 22.0453034,86.251065 C24.3193034,86.251065 26.1643034,84.405065 26.1643034,82.131065 C26.1643034,81.186065 25.7893034,80.354065 25.2543034,79.657065 C26.4753034,78.932065 27.4993034,78.037065 28.4243034,77.048065 C29.1383034,76.198065 29.8023034,75.303065 30.3303034,74.293065 C34.3563034,76.866065 39.0473034,78.476065 44.0913034,78.826065 C43.9453034,79.693065 43.8593034,80.560065 43.8383034,81.428065 C43.8803034,82.928065 44.0703034,84.427065 44.5773034,85.926065 C43.2563034,86.480065 42.3323034,87.782065 42.3323034,89.303065 C42.3323034,91.324065 43.9703034,92.961065 45.9913034,92.961065 C48.0153034,92.961065 49.6543034,91.323065 49.6543034,89.303065 C49.6543034,87.565065 48.4183034,86.180065 46.7953034,85.801065 C47.2703034,84.345065 47.4553034,82.885065 47.4943034,81.428065 C47.4733034,80.575065 47.3903034,79.726065 47.2523034,78.872065 C51.3033034,78.723065 55.1413034,77.759065 58.6173034,76.131065 C58.7133034,77.220065 59.0453034,78.180065 59.5023034,79.069065 C60.1093034,80.076065 60.8483034,81.011065 61.9863034,81.728065 C61.1913034,82.314065 60.6403034,83.207065 60.6403034,84.266065 C60.6403034,86.034065 62.0763034,87.468065 63.8413034,87.468065 C65.6093034,87.468065 67.0443034,86.033065 67.0443034,84.266065 C67.0443034,82.499065 65.6083034,81.065065 63.8413034,81.065065 C63.7633034,81.065065 63.6963034,81.104065 63.6163034,81.111065 C63.6773034,79.636065 63.2623034,78.430065 62.6963034,77.306065 C62.1963034,76.463065 61.5793034,75.689065 60.7393034,75.035065 C62.6353034,73.950065 64.3843034,72.661065 65.9833034,71.197065 C66.4873034,72.447065 67.2513034,73.411065 68.1223034,74.260065 C69.0383034,75.045065 70.0603034,75.716065 71.3353034,76.113065 C70.9703034,76.726065 70.7063034,77.401065 70.7063034,78.165065 C70.7063034,80.439065 72.5523034,82.285065 74.8253034,82.285065 C77.0983034,82.285065 78.9443034,80.439065 78.9443034,78.165065 C78.9443034,75.892065 77.0983034,74.046065 74.8253034,74.046065 C74.0503034,74.046065 73.3683034,74.317065 72.7473034,74.689065 C72.2453034,73.415065 71.4703034,72.437065 70.5893034,71.570065 C69.7003034,70.802065 68.7043034,70.145065 67.4723034,69.749065 C68.9113034,68.236065 70.1773034,66.572065 71.2713034,64.780065 C71.7673034,65.666065 72.4193034,66.326065 73.1523034,66.865065 C73.9803034,67.383065 74.8943034,67.775065 75.9983034,67.889065 C75.9693034,68.064065 75.8943034,68.221065 75.8943034,68.403065 C75.8943034,70.341065 77.4643034,71.912065 79.4023034,71.912065 C81.3403034,71.912065 82.9123034,70.342065 82.9123034,68.403065 C82.9123034,66.465065 81.3403034,64.894065 79.4023034,64.894065 C78.4843034,64.894065 77.6643034,65.265065 77.0393034,65.844065 C76.5473034,65.008065 75.9183034,64.376065 75.2153034,63.852065 C74.3913034,63.331065 73.4773034,62.934065 72.3733034,62.821065 C74.1523034,59.330065 75.2443034,55.442065 75.4983034,51.316065 C76.5393034,51.901065 77.5863034,52.097065 78.6313034,52.133065 C79.6353034,52.090065 80.6373034,51.901065 81.6373034,51.372065 C82.0693034,52.325065 83.0223034,52.996065 84.1373034,52.996065 C85.6493034,52.996065 86.8813034,51.765065 86.8813034,50.251065 C86.8813034,48.736065 85.6493034,47.505065 84.1373034,47.505065 L84.1373034,47.505065 Z M59.2663034,37.741065 C61.7933034,37.741065 63.8423034,39.791065 63.8423034,42.317065 C63.8423034,44.844065 61.7933034,46.894065 59.2663034,46.894065 C56.7393034,46.894065 54.6903034,44.844065 54.6903034,42.317065 C54.6903034,39.791065 56.7393034,37.741065 59.2663034,37.741065 L59.2663034,37.741065 Z M51.6883034,27.129065 C52.9133034,27.129065 53.9053034,28.122065 53.9053034,29.346065 C53.9053034,30.571065 52.9133034,31.563065 51.6883034,31.563065 C50.4653034,31.563065 49.4713034,30.571065 49.4713034,29.346065 C49.4713034,28.122065 50.4653034,27.129065 51.6883034,27.129065 L51.6883034,27.129065 Z M36.9823034,32.990065 C38.7603034,32.990065 40.1983034,34.428065 40.1983034,36.207065 C40.1983034,37.984065 38.7603034,39.423065 36.9823034,39.423065 C35.2053034,39.423065 33.7663034,37.985065 33.7663034,36.207065 C33.7653034,34.429065 35.2043034,32.990065 36.9823034,32.990065 L36.9823034,32.990065 Z M35.8003034,63.429065 C34.0233034,63.429065 32.5843034,61.991065 32.5843034,60.213065 C32.5843034,58.435065 34.0223034,56.996065 35.8003034,56.996065 C37.5783034,56.996065 39.0163034,58.434065 39.0163034,60.213065 C39.0163034,61.990065 37.5783034,63.429065 35.8003034,63.429065 L35.8003034,63.429065 Z M43.5933034,51.471065 C41.0663034,51.471065 39.0173034,49.422065 39.0173034,46.895065 C39.0173034,44.368065 41.0663034,42.318065 43.5933034,42.318065 C46.1203034,42.318065 48.1693034,44.368065 48.1693034,46.895065 C48.1693034,49.422065 46.1193034,51.471065 43.5933034,51.471065 L43.5933034,51.471065 Z M56.8283034,70.429065 C51.1853034,70.429065 46.6113034,65.853065 46.6113034,60.209065 C46.6113034,54.565065 51.1863034,49.993065 56.8283034,49.993065 C62.4733034,49.993065 67.0453034,54.565065 67.0453034,60.209065 C67.0453034,65.853065 62.4733034,70.429065 56.8283034,70.429065 L56.8283034,70.429065 Z" id="Shape" fill="#006695"></path>
            <path d="M83.668,44.542 C82.518,44.542 81.535,45.252 81.125,46.259 C80.141,45.748 79.152,45.559 78.162,45.516 C77.144,45.552 76.129,45.745 75.111,46.295 C75.078,42.35 74.279,38.588 72.84,35.157 C74.344,35.521 75.672,35.343 76.938,34.982 C78.014,34.596 79.042,34.064 79.956,33.183 C80.681,34.128 81.769,34.778 83.054,34.778 C85.245,34.778 87.021,33.005 87.021,30.812 C87.021,28.621 85.246,26.846 83.054,26.846 C80.862,26.846 79.089,28.62 79.089,30.812 C79.089,30.952 79.153,31.07 79.167,31.206 C77.974,31.06 76.878,31.213 75.829,31.506 C74.526,31.966 73.294,32.645 72.257,33.919 C70.4,30.014 67.737,26.565 64.439,23.838 C64.81,23.474 65.156,23.092 65.488,22.699 C66.42,21.461 67.238,20.136 67.66,18.487 C67.855,18.537 68.045,18.608 68.256,18.608 C69.692,18.608 70.852,17.448 70.852,16.013 C70.852,14.581 69.692,13.421 68.256,13.421 C66.824,13.421 65.664,14.581 65.664,16.013 C65.664,16.559 65.871,17.037 66.156,17.454 C64.707,18.219 63.615,19.267 62.636,20.41 C62.29,20.863 61.968,21.335 61.673,21.827 C60.402,21.003 59.068,20.274 57.671,19.653 C58.245,18.896 58.694,18.09 59.077,17.251 C59.552,16.02 59.888,14.73 59.901,13.307 C60.098,13.332 60.272,13.421 60.475,13.421 C63.002,13.421 65.051,11.372 65.051,8.845 C65.051,6.318 63.002,4.27 60.475,4.27 C57.948,4.27 55.899,6.319 55.899,8.846 C55.899,10.406 56.731,11.716 57.92,12.54 C56.934,13.529 56.252,14.646 55.711,15.824 C55.363,16.71 55.082,17.623 54.945,18.594 C52.308,17.72 49.506,17.22 46.597,17.131 C46.972,15.874 47.12,14.618 47.154,13.365 C47.117,12.143 46.974,10.923 46.625,9.702 C48.482,8.96 49.795,7.153 49.795,5.033 C49.795,2.253 47.543,4.26325641e-14 44.762,4.26325641e-14 C41.981,4.26325641e-14 39.729,2.253 39.729,5.033 C39.729,7.528 41.549,9.585 43.934,9.984 C43.641,11.108 43.531,12.236 43.498,13.365 C43.53,14.632 43.684,15.899 44.065,17.166 C39.653,17.405 35.495,18.587 31.811,20.558 C31.579,19.79 31.276,19.066 30.912,18.373 C30.373,17.484 29.745,16.645 28.945,15.902 C29.366,15.324 29.662,14.649 29.662,13.882 C29.662,11.944 28.092,10.372 26.153,10.372 C24.214,10.372 22.644,11.943 22.644,13.882 C22.644,15.82 24.214,17.391 26.153,17.391 C26.328,17.391 26.478,17.316 26.646,17.29 C26.871,18.325 27.26,19.268 27.728,20.164 C28.145,20.86 28.627,21.52 29.191,22.135 C27.635,23.188 26.189,24.38 24.865,25.704 C24.222,24.95 23.527,24.262 22.784,23.63 C21.702,22.798 20.546,22.067 19.24,21.51 C19.465,20.943 19.597,20.324 19.597,19.675 C19.597,16.898 17.345,14.642 14.56,14.642 C11.783,14.642 9.527,16.898 9.527,19.675 C9.527,22.459 11.783,24.712 14.56,24.712 C15.777,24.712 16.88,24.262 17.751,23.544 C18.547,24.658 19.479,25.607 20.482,26.468 C21.213,27.032 21.988,27.546 22.809,28.003 C21.446,29.684 20.286,31.525 19.314,33.482 C18.779,33.11 18.229,32.775 17.654,32.482 C16.544,31.993 15.369,31.628 14.084,31.504 C14.088,31.475 14.102,31.45 14.102,31.421 C14.102,29.736 12.735,28.369 11.05,28.369 C9.365,28.369 7.998,29.736 7.998,31.421 C7.998,33.107 9.365,34.474 11.05,34.474 C11.846,34.474 12.556,34.153 13.103,33.653 C14.002,34.556 15.016,35.227 16.087,35.781 C16.715,36.059 17.365,36.284 18.036,36.469 C17.322,38.436 16.805,40.499 16.522,42.637 C15.537,42.345 14.552,42.238 13.566,42.209 C12.613,42.241 11.66,42.337 10.711,42.605 C9.99,40.707 8.166,39.353 6.013,39.353 C3.236,39.353 0.98,41.606 0.98,44.39 C0.98,47.167 3.236,49.423 6.013,49.423 C8.412,49.423 10.404,47.745 10.914,45.507 C11.799,45.736 12.681,45.836 13.566,45.864 C14.473,45.839 15.379,45.742 16.286,45.5 C16.275,45.843 16.236,46.179 16.236,46.524 C16.236,51.583 17.514,56.34 19.759,60.496 C19.174,60.717 18.61,60.975 18.074,61.277 C17.21,61.844 16.411,62.516 15.725,63.377 C15.1,62.881 14.347,62.541 13.487,62.541 C11.467,62.541 9.828,64.18 9.828,66.2 C9.828,68.223 11.467,69.862 13.487,69.862 C15.511,69.862 17.15,68.223 17.15,66.2 C17.15,65.965 17.057,65.758 17.014,65.532 C18.103,65.318 19.074,64.908 19.98,64.397 C20.498,64.058 20.99,63.668 21.454,63.241 C23.128,65.665 25.163,67.809 27.469,69.631 C26.641,70.241 25.902,70.926 25.217,71.661 C24.307,72.75 23.504,73.939 22.929,75.324 C22.5,75.171 22.054,75.049 21.576,75.049 C19.302,75.049 17.457,76.895 17.457,79.168 C17.457,81.442 19.302,83.288 21.576,83.288 C23.85,83.288 25.695,81.442 25.695,79.168 C25.695,78.223 25.32,77.391 24.785,76.694 C26.006,75.969 27.03,75.074 27.955,74.085 C28.669,73.235 29.333,72.34 29.861,71.33 C33.887,73.903 38.578,75.513 43.622,75.863 C43.476,76.73 43.39,77.597 43.369,78.465 C43.411,79.965 43.601,81.464 44.108,82.963 C42.787,83.517 41.863,84.819 41.863,86.34 C41.863,88.361 43.501,89.998 45.522,89.998 C47.546,89.998 49.185,88.36 49.185,86.34 C49.185,84.602 47.949,83.217 46.326,82.838 C46.801,81.382 46.986,79.922 47.025,78.465 C47.004,77.612 46.921,76.763 46.783,75.909 C50.834,75.76 54.672,74.796 58.148,73.168 C58.244,74.257 58.576,75.217 59.033,76.106 C59.64,77.113 60.379,78.048 61.517,78.765 C60.722,79.351 60.171,80.244 60.171,81.303 C60.171,83.071 61.607,84.505 63.372,84.505 C65.14,84.505 66.575,83.07 66.575,81.303 C66.575,79.536 65.139,78.102 63.372,78.102 C63.294,78.102 63.227,78.141 63.147,78.148 C63.208,76.673 62.793,75.467 62.227,74.343 C61.727,73.5 61.11,72.726 60.27,72.072 C62.166,70.987 63.915,69.698 65.514,68.234 C66.018,69.484 66.782,70.448 67.653,71.297 C68.569,72.082 69.591,72.753 70.866,73.15 C70.501,73.763 70.237,74.438 70.237,75.202 C70.237,77.476 72.083,79.322 74.356,79.322 C76.629,79.322 78.475,77.476 78.475,75.202 C78.475,72.929 76.629,71.083 74.356,71.083 C73.581,71.083 72.899,71.354 72.278,71.726 C71.776,70.452 71.001,69.474 70.12,68.607 C69.231,67.839 68.235,67.182 67.003,66.786 C68.442,65.273 69.708,63.609 70.802,61.817 C71.298,62.703 71.95,63.363 72.683,63.902 C73.511,64.42 74.425,64.812 75.529,64.926 C75.5,65.101 75.425,65.258 75.425,65.44 C75.425,67.378 76.995,68.949 78.933,68.949 C80.871,68.949 82.443,67.379 82.443,65.44 C82.443,63.502 80.871,61.931 78.933,61.931 C78.015,61.931 77.195,62.302 76.57,62.881 C76.078,62.045 75.449,61.413 74.746,60.889 C73.922,60.368 73.008,59.971 71.904,59.858 C73.683,56.367 74.775,52.479 75.029,48.353 C76.07,48.938 77.117,49.134 78.162,49.17 C79.166,49.127 80.168,48.938 81.168,48.409 C81.6,49.362 82.553,50.033 83.668,50.033 C85.18,50.033 86.412,48.802 86.412,47.288 C86.412,45.773 85.18,44.542 83.668,44.542 L83.668,44.542 Z M58.797,34.778 C61.324,34.778 63.373,36.828 63.373,39.354 C63.373,41.881 61.324,43.931 58.797,43.931 C56.27,43.931 54.221,41.881 54.221,39.354 C54.221,36.828 56.27,34.778 58.797,34.778 L58.797,34.778 Z M51.219,24.166 C52.444,24.166 53.436,25.159 53.436,26.383 C53.436,27.608 52.444,28.6 51.219,28.6 C49.996,28.6 49.002,27.608 49.002,26.383 C49.002,25.159 49.996,24.166 51.219,24.166 L51.219,24.166 Z M36.513,30.027 C38.291,30.027 39.729,31.465 39.729,33.244 C39.729,35.021 38.291,36.46 36.513,36.46 C34.736,36.46 33.297,35.022 33.297,33.244 C33.296,31.466 34.735,30.027 36.513,30.027 L36.513,30.027 Z M35.331,60.466 C33.554,60.466 32.115,59.028 32.115,57.25 C32.115,55.472 33.553,54.033 35.331,54.033 C37.109,54.033 38.547,55.471 38.547,57.25 C38.547,59.027 37.109,60.466 35.331,60.466 L35.331,60.466 Z M43.124,48.508 C40.597,48.508 38.548,46.459 38.548,43.932 C38.548,41.405 40.597,39.355 43.124,39.355 C45.651,39.355 47.7,41.405 47.7,43.932 C47.7,46.459 45.65,48.508 43.124,48.508 L43.124,48.508 Z M56.359,67.466 C50.716,67.466 46.142,62.89 46.142,57.246 C46.142,51.602 50.717,47.03 56.359,47.03 C62.004,47.03 66.576,51.602 66.576,57.246 C66.576,62.89 62.004,67.466 56.359,67.466 L56.359,67.466 Z" id="Shape" fill="#FBFBFF"></path>
        </g>
    </g>
</svg>