<svg width="49px" height="48px" viewBox="-2 -2 49 48" version="1.1" xmlns="http://www.w3.org/2000/svg" xmlns:xlink="http://www.w3.org/1999/xlink">
    <defs></defs>
    <path d="M11.8318696,32.806625 L11.8318696,43.0109583 L21.3889694,32.806625 L38.0798778,32.806625 C41.8935189,32.806625 44.9856345,29.718875 44.9856345,25.9095 L44.9856345,6.897125 C44.9856345,3.08679167 41.8944771,0 38.0798778,0 L6.90575675,0 C3.09211559,0 0,3.08775 0,6.897125 L0,25.9095 C0,29.7198333 3.09211559,32.806625 6.90575675,32.806625 L11.8318696,32.806625 L11.8318696,32.806625 Z" id="Stroke-1" stroke="#FFFFFF" stroke-width="2.25" fill="none"></path>
    <path d="M17.9285212,22.5439292 C17.4570862,23.0154292 16.6924415,23.0154292 16.2210065,22.5439292 C15.7495715,22.0724292 15.7495715,21.3086375 16.2210065,20.8371375 L26.7497223,10.3060125 C27.2211574,9.8345125 27.985802,9.8345125 28.4572371,10.3060125 C28.9286721,10.7775125 28.9286721,11.5422625 28.4572371,12.0137625 L17.9285212,22.5439292 Z" id="Fill-5" stroke="none" fill="#FFFFFF" fill-rule="evenodd"></path>
    <path d="M17.9285212,22.5439292 C17.4570862,23.0154292 16.6924415,23.0154292 16.2210065,22.5439292 C15.7495715,22.0724292 15.7495715,21.3086375 16.2210065,20.8371375 L26.7497223,10.3060125 C27.2211574,9.8345125 27.985802,9.8345125 28.4572371,10.3060125 C28.9286721,10.7775125 28.9286721,11.5422625 28.4572371,12.0137625 L17.9285212,22.5439292 Z" id="Fill-5" stroke="none" fill="#FFFFFF" fill-rule="evenodd" transform="translate(22.339122, 16.424971) rotate(-90.000000) translate(-22.339122, -16.424971) "></path>
</svg>