<svg width="49px" height="48px" viewBox="-2 -2 49 48" version="1.1" xmlns="http://www.w3.org/2000/svg" xmlns:xlink="http://www.w3.org/1999/xlink">
    <defs></defs>
    <path d="M11.8501116,32.806625 L11.8501116,43.0109583 L21.4219461,32.806625 L38.138588,32.806625 C41.9581089,32.806625 45.0549918,29.718875 45.0549918,25.9095 L45.0549918,6.897125 C45.0549918,3.08679167 41.9590686,0 38.138588,0 L6.91640381,0 C3.0968829,0 0,3.08775 0,6.897125 L0,25.9095 C0,29.7198333 3.0968829,32.806625 6.91640381,32.806625 L11.8501116,32.806625 L11.8501116,32.806625 Z" id="Stroke-1" stroke="#FFFFFF" stroke-width="2.25" fill="none"></path>
    <path d="M15.6743349,15.8571583 L20.660825,20.8366583 C21.1329869,21.3081583 21.1329869,22.0729083 20.660825,22.5444083 C20.1886631,23.0159083 19.4228396,23.0159083 18.9506777,22.5444083 L13.9641876,17.5649083 C13.4920257,17.0934083 13.4920257,16.3286583 13.9641876,15.8571583 C14.4363495,15.3856583 15.202173,15.3856583 15.6743349,15.8571583" id="Fill-3" stroke="none" fill="#FFFFFF" fill-rule="evenodd"></path>
    <path d="M31.2074051,12.0137625 L20.6624565,22.5439292 C20.1902946,23.0154292 19.4244711,23.0154292 18.9523092,22.5439292 C18.4801473,22.0724292 18.4801473,21.3086375 18.9523092,20.8371375 L29.4972578,10.3060125 C29.9694197,9.8345125 30.7352433,9.8345125 31.2074051,10.3060125 C31.679567,10.7775125 31.679567,11.5422625 31.2074051,12.0137625" id="Fill-5" stroke="none" fill="#FFFFFF" fill-rule="evenodd"></path>
</svg>