<svg width="58px" height="53px" viewBox="61 256 58 53" version="1.1" xmlns="http://www.w3.org/2000/svg" xmlns:xlink="http://www.w3.org/1999/xlink">
    <defs></defs>
    <g id="noun_4933_cc" stroke="none" stroke-width="1" fill="none" fill-rule="evenodd" transform="translate(61.000000, 257.000000)">
        <g id="Group" stroke="#FFFFFF" fill="#979797">
            <path d="M52.4255833,4.7335716 C49.2711574,1.58576457 45.1349379,2.30862987e-06 41.0069919,0.00220858656 C36.8784943,2.30862987e-06 32.7340012,1.57693946 29.5795753,4.72915904 C26.4251495,1.57693946 22.2817595,-0.0022039693 18.1521588,2.30862987e-06 C14.0220065,-0.0022039693 9.88302915,1.58135201 6.73356741,4.7335716 C3.5835541,7.88303334 1.99999812,12.024217 1.99999812,16.152163 C1.99779185,20.2845216 3.57693527,24.4295662 6.73136114,27.5839921 L29.5795753,50.43 L30.572952,49.4344171 L52.4255833,27.5839921 C55.5800091,24.4301178 57.1569463,20.2845216 57.1569463,16.152163 C57.1569463,12.024217 55.571184,7.88303334 52.4255833,4.7335716 L52.4255833,4.7335716 Z M50.4344174,25.5950325 L29.5795753,46.4575966 L8.71976912,25.5950325 C6.10863919,22.9861089 4.81189934,19.5752032 4.81189934,16.152163 C4.81189934,12.7351901 6.11305175,9.32869695 8.72197539,6.7197733 C11.3292443,4.11084965 14.7351859,2.81190353 18.1521588,2.81190353 C21.5757506,2.81190353 24.9838984,4.11084965 27.5977862,6.7197733 L27.7698759,6.89020827 C25.822284,9.66294805 24.8437998,12.9138986 24.8437998,16.1565756 L27.6512884,16.1587818 C27.655701,12.7500824 28.9463736,9.35682699 31.5359923,6.74790335 L31.5619161,6.7197733 C34.1724944,4.11084965 37.5856064,2.81355823 41.0069919,2.81190353 C44.4239648,2.81190353 47.8277001,4.11526221 50.434969,6.72418586 C53.0460989,9.32924852 54.3478029,12.7351901 54.3478029,16.1543693 C54.3389778,19.5757548 53.0460989,22.9861089 50.4344174,25.5950325 L50.4344174,25.5950325 Z" id="Shape"></path>
        </g>
    </g>
</svg>