<svg width="20px" height="19px" viewBox="439 184 20 19" version="1.1" xmlns="http://www.w3.org/2000/svg" xmlns:xlink="http://www.w3.org/1999/xlink">
    <g id="noun_164115_cc" stroke="none" stroke-width="1" fill="none" fill-rule="evenodd" transform="translate(439.000000, 184.000000)">
        <g id="Group" fill="#979797">
            <g id="Shape">
                <path d="M6.52272727,5.56818182 L5.63636364,5.56818182 C5.09090909,5.56818182 4.63636364,5.11363636 4.63636364,4.56818182 L4.63636364,1.97727273 C4.63636364,1.43181818 5.09090909,0.977272727 5.63636364,0.977272727 L6.52272727,0.977272727 C6.70454545,0.977272727 6.84090909,1.11363636 6.84090909,1.29545455 C6.84090909,1.47727273 6.70454545,1.61363636 6.52272727,1.61363636 L5.63636364,1.61363636 C5.43181818,1.61363636 5.27272727,1.77272727 5.27272727,1.97727273 L5.27272727,4.59090909 C5.27272727,4.79545455 5.43181818,4.95454545 5.63636364,4.95454545 L6.52272727,4.95454545 C6.70454545,4.95454545 6.84090909,5.09090909 6.84090909,5.27272727 C6.84090909,5.40909091 6.70454545,5.56818182 6.52272727,5.56818182 L6.52272727,5.56818182 Z"></path>
                <g transform="translate(5.454545, 1.818182)">
                    <path d="M1.06818182,0.75 L0.363636364,0.75 C0.181818182,0.75 0.0454545455,0.613636364 0.0454545455,0.431818182 C0.0454545455,0.25 0.181818182,0.113636364 0.363636364,0.113636364 L1.06818182,0.113636364 C1.25,0.113636364 1.38636364,0.25 1.38636364,0.431818182 C1.38636364,0.613636364 1.25,0.75 1.06818182,0.75 L1.06818182,0.75 Z"></path>
                    <path d="M1.06818182,2.77272727 L0.363636364,2.77272727 C0.181818182,2.77272727 0.0454545455,2.63636364 0.0454545455,2.45454545 C0.0454545455,2.27272727 0.181818182,2.13636364 0.363636364,2.13636364 L1.06818182,2.13636364 C1.25,2.13636364 1.38636364,2.27272727 1.38636364,2.45454545 C1.38636364,2.63636364 1.25,2.77272727 1.06818182,2.77272727 L1.06818182,2.77272727 Z"></path>
                    <path d="M1.06818182,1.77272727 L0.363636364,1.77272727 C0.181818182,1.77272727 0.0454545455,1.63636364 0.0454545455,1.45454545 C0.0454545455,1.27272727 0.181818182,1.13636364 0.363636364,1.13636364 L1.06818182,1.13636364 C1.25,1.13636364 1.38636364,1.27272727 1.38636364,1.45454545 C1.38636364,1.63636364 1.25,1.77272727 1.06818182,1.77272727 L1.06818182,1.77272727 Z"></path>
                </g>
                <path d="M4.97727273,3.59090909 L0.454545455,3.59090909 C0.272727273,3.59090909 0.136363636,3.45454545 0.136363636,3.27272727 C0.136363636,3.09090909 0.272727273,2.95454545 0.454545455,2.95454545 L4.97727273,2.95454545 C5.15909091,2.95454545 5.29545455,3.09090909 5.29545455,3.27272727 C5.29545455,3.45454545 5.15909091,3.59090909 4.97727273,3.59090909 L4.97727273,3.59090909 Z"></path>
                <path d="M14.8636364,3.59090909 L7.81818182,3.59090909 C7.63636364,3.59090909 7.5,3.45454545 7.5,3.27272727 C7.5,3.09090909 7.63636364,2.95454545 7.81818182,2.95454545 L14.8863636,2.95454545 C15.0681818,2.95454545 15.2045455,3.09090909 15.2045455,3.27272727 C15.1818182,3.45454545 15.0454545,3.59090909 14.8636364,3.59090909 L14.8636364,3.59090909 Z"></path>
                <path d="M17.3636364,12.8636364 L14.5227273,12.8636364 C14.3409091,12.8636364 14.2045455,12.7272727 14.2045455,12.5454545 C14.2045455,12.3636364 14.3409091,12.2272727 14.5227273,12.2272727 L17.3636364,12.2272727 C17.5454545,12.2272727 17.6818182,12.3636364 17.6818182,12.5454545 C17.6818182,12.7272727 17.5454545,12.8636364 17.3636364,12.8636364 L17.3636364,12.8636364 Z"></path>
                <path d="M18.7727273,14.2727273 L13.3181818,14.2727273 C13.0227273,14.2727273 12.75,14.1590909 12.5681818,13.9318182 C12.3863636,13.7272727 12.2727273,13.4318182 12.3181818,13.1363636 C12.3636364,12.6363636 12.8181818,12.2272727 13.3409091,12.2045455 C12.9545455,11.0681818 12.7272727,9.88636364 12.6363636,8.68181818 C12.6136364,8.38636364 12.6136364,8.09090909 12.6136364,7.77272727 C12.6136364,7.31818182 12.6363636,6.84090909 12.6818182,6.38636364 L6.54545455,6.38636364 C6.36363636,6.38636364 6.22727273,6.25 6.22727273,6.06818182 L6.22727273,0.386363636 C6.22727273,0.204545455 6.36363636,0.0681818182 6.54545455,0.0681818182 L15.2045455,0.0681818182 C15.75,0.0681818182 16.25,0.318181818 16.5909091,0.75 C16.8863636,1.13636364 17,1.63636364 16.9090909,2.11363636 C17.3409091,2.63636364 17.75,3.20454545 18.0909091,3.77272727 L18.0909091,3.77272727 C19.25,5.70454545 19.8636364,7.95454545 19.8636364,10.2272727 L19.8636364,13.1818182 C19.8636364,13.7954545 19.3863636,14.2727273 18.7727273,14.2727273 L18.7727273,14.2727273 Z M13.3409091,12.8636364 C13.1363636,12.8636364 12.9545455,13.0227273 12.9318182,13.2045455 C12.9318182,13.3181818 12.9545455,13.4318182 13.0227273,13.5 C13.0909091,13.5909091 13.2045455,13.6363636 13.3181818,13.6363636 L18.7727273,13.6363636 C19.0227273,13.6363636 19.2272727,13.4318182 19.2272727,13.1818182 L19.2272727,10.2954545 C19.2272727,8.13636364 18.6363636,6.02272727 17.5454545,4.18181818 C17.1818182,3.59090909 16.7727273,3.02272727 16.3181818,2.47727273 C16.25,2.38636364 16.2272727,2.29545455 16.25,2.18181818 C16.3409091,1.84090909 16.2727273,1.47727273 16.0681818,1.18181818 C15.8636364,0.909090909 15.5454545,0.75 15.1818182,0.75 L6.84090909,0.75 L6.84090909,5.79545455 L13,5.79545455 C13.0909091,5.79545455 13.1818182,5.84090909 13.25,5.90909091 C13.3181818,5.97727273 13.3409091,6.06818182 13.3181818,6.15909091 C13.25,6.70454545 13.2045455,7.27272727 13.2045455,7.81818182 C13.2045455,8.11363636 13.2045455,8.38636364 13.2272727,8.68181818 C13.3181818,9.97727273 13.5909091,11.25 14.0454545,12.4545455 C14.0909091,12.5454545 14.0681818,12.6590909 14,12.75 C13.9318182,12.8409091 13.8409091,12.8863636 13.75,12.8863636 L13.75,12.8863636 L13.3409091,12.8636364 L13.3409091,12.8636364 Z"></path>
                <path d="M12.8181818,8.68181818 L11.8636364,8.68181818 C11.5227273,8.68181818 11.25,8.40909091 11.25,8.06818182 L11.25,7.31818182 L11.1363636,7.31818182 C10.7954545,7.31818182 10.5227273,7.04545455 10.5227273,6.70454545 L10.5227273,6.09090909 C10.5227273,5.90909091 10.6590909,5.77272727 10.8409091,5.77272727 C11.0227273,5.77272727 11.1590909,5.90909091 11.1590909,6.09090909 L11.1590909,6.68181818 L11.2727273,6.68181818 C11.6136364,6.68181818 11.8863636,6.95454545 11.8863636,7.29545455 L11.8863636,8.04545455 L12.8181818,8.04545455 C13,8.04545455 13.1363636,8.18181818 13.1363636,8.36363636 C13.1363636,8.54545455 13,8.68181818 12.8181818,8.68181818 L12.8181818,8.68181818 Z"></path>
                <path d="M12.9318182,18.5227273 L12.5681818,18.5227273 C10.5681818,18.5227273 8.95454545,16.9090909 8.95454545,14.9090909 C8.95454545,13.2727273 7.61363636,11.9318182 5.97727273,11.9318182 L5.36363636,11.9318182 C5.18181818,11.9318182 5.04545455,11.7954545 5.04545455,11.6136364 C5.04545455,11.4318182 5.18181818,11.2954545 5.36363636,11.2954545 L5.97727273,11.2954545 C7.97727273,11.2954545 9.59090909,12.9090909 9.59090909,14.9090909 C9.59090909,16.5454545 10.9318182,17.8863636 12.5681818,17.8863636 L12.9318182,17.8863636 C14.5681818,17.8863636 15.9090909,16.5454545 15.9090909,14.9090909 L15.9090909,13.9772727 C15.9090909,13.7954545 16.0454545,13.6590909 16.2272727,13.6590909 C16.4090909,13.6590909 16.5454545,13.7954545 16.5454545,13.9772727 L16.5454545,14.9090909 C16.5454545,16.8863636 14.9318182,18.5227273 12.9318182,18.5227273 L12.9318182,18.5227273 Z"></path>
                <path d="M0.840909091,4.02272727 C0.75,4.02272727 0.681818182,4 0.613636364,3.93181818 C0.5,3.81818182 0.5,3.61363636 0.613636364,3.47727273 L1.47727273,2.61363636 C1.59090909,2.5 1.79545455,2.5 1.93181818,2.61363636 C2.06818182,2.72727273 2.04545455,2.93181818 1.93181818,3.06818182 L1.06818182,3.93181818 C1,4 0.931818182,4.02272727 0.840909091,4.02272727 L0.840909091,4.02272727 Z"></path>
                <path d="M1.70454545,4.02272727 C1.61363636,4.02272727 1.54545455,4 1.47727273,3.93181818 C1.36363636,3.81818182 1.36363636,3.61363636 1.47727273,3.47727273 L2.34090909,2.61363636 C2.45454545,2.5 2.65909091,2.5 2.79545455,2.61363636 C2.93181818,2.72727273 2.90909091,2.93181818 2.79545455,3.06818182 L1.93181818,3.93181818 C1.86363636,4 1.79545455,4.02272727 1.70454545,4.02272727 L1.70454545,4.02272727 Z"></path>
                <path d="M2.59090909,4.02272727 C2.5,4.02272727 2.43181818,4 2.36363636,3.93181818 C2.25,3.81818182 2.25,3.61363636 2.36363636,3.47727273 L3.22727273,2.61363636 C3.34090909,2.5 3.54545455,2.5 3.68181818,2.61363636 C3.79545455,2.72727273 3.79545455,2.93181818 3.68181818,3.06818182 L2.81818182,3.93181818 C2.75,4 2.65909091,4.02272727 2.59090909,4.02272727 L2.59090909,4.02272727 Z"></path>
                <path d="M3.45454545,4.02272727 C3.36363636,4.02272727 3.29545455,4 3.22727273,3.93181818 C3.11363636,3.81818182 3.11363636,3.61363636 3.22727273,3.47727273 L4.09090909,2.61363636 C4.20454545,2.5 4.40909091,2.5 4.54545455,2.61363636 C4.68181818,2.72727273 4.65909091,2.93181818 4.54545455,3.06818182 L3.68181818,3.93181818 C3.61363636,4 3.54545455,4.02272727 3.45454545,4.02272727 L3.45454545,4.02272727 Z"></path>
            </g>
        </g>
    </g>
</svg>