<svg width="53px" height="41px" viewBox="133 259 53 41" version="1.1" xmlns="http://www.w3.org/2000/svg" xmlns:xlink="http://www.w3.org/1999/xlink">
    <defs></defs>
    <g id="noun_503953_cc" stroke="none" stroke-width="1" fill="none" fill-rule="evenodd" transform="translate(134.000000, 259.000000)">
        <g id="Group" fill="#979797">
            <g transform="translate(0.000000, 0.637820)" id="Shape">
                <path d="M5.36751964,0 C5.163218,0 4.99337377,0.108912766 4.90158474,0.22364875 L0.13041141,6.18761542 C0.0470816155,6.29491732 -0.0023114197,6.42470158 -5.03606595e-05,6.56036333 C0.000963513674,6.62130911 -5.03606595e-05,38.7657833 -5.03606595e-05,38.7657833 C-1.91094742e-05,39.0780471 0.284082255,39.362149 0.596346306,39.36218 L25.6450063,39.36218 L50.6936663,39.36218 C51.0059277,39.3621204 51.2900272,39.0780566 51.290063,38.7657833 C51.290063,38.7657833 51.2888702,6.62130911 51.290063,6.56036333 C51.2923233,6.42470098 51.2429297,6.2949191 51.1596012,6.18761542 L46.3884279,0.22364875 C46.2966365,0.108913959 46.1267946,0 45.922493,0 L25.6450063,0 L5.36751964,0 L5.36751964,0 Z M5.64708058,1.19279333 L25.6450063,1.19279333 L45.642932,1.19279333 L49.4449608,5.96396667 L25.6450063,5.96396667 L1.84505183,5.96396667 L5.64708058,1.19279333 L5.64708058,1.19279333 Z M1.19274297,7.15676 L8.34950297,7.15676 L8.34950297,16.6991067 L1.19274297,16.6991067 L1.19274297,7.15676 L1.19274297,7.15676 Z M9.54229631,7.15676 L25.0486096,7.15676 L25.0486096,16.6991067 L9.54229631,16.6991067 L9.54229631,7.15676 L9.54229631,7.15676 Z M26.241403,7.15676 L41.7477163,7.15676 L41.7477163,16.6991067 L26.241403,16.6991067 L26.241403,7.15676 L26.241403,7.15676 Z M42.9405096,7.15676 L50.0972696,7.15676 L50.0972696,16.6991067 L42.9405096,16.6991067 L42.9405096,7.15676 L42.9405096,7.15676 Z M1.19274297,17.8919 L16.6990563,17.8919 L16.6990563,27.4342467 L1.19274297,27.4342467 L1.19274297,17.8919 L1.19274297,17.8919 Z M17.8918496,17.8919 L25.6450063,17.8919 L33.398163,17.8919 L33.398163,27.4342467 L25.6450063,27.4342467 L17.8918496,27.4342467 L17.8918496,17.8919 L17.8918496,17.8919 Z M34.5909563,17.8919 L50.0972696,17.8919 L50.0972696,27.4342467 L34.5909563,27.4342467 L34.5909563,17.8919 L34.5909563,17.8919 Z M1.19274297,28.62704 L8.34950297,28.62704 L8.34950297,38.1693867 L1.19274297,38.1693867 L1.19274297,28.62704 L1.19274297,28.62704 Z M9.54229631,28.62704 L25.0486096,28.62704 L25.0486096,38.1693867 L9.54229631,38.1693867 L9.54229631,28.62704 L9.54229631,28.62704 Z M26.241403,28.62704 L41.7477163,28.62704 L41.7477163,38.1693867 L26.241403,38.1693867 L26.241403,28.62704 L26.241403,28.62704 Z M42.9405096,28.62704 L50.0972696,28.62704 L50.0972696,38.1693867 L42.9405096,38.1693867 L42.9405096,28.62704 L42.9405096,28.62704 Z"></path>
            </g>
        </g>
    </g>
</svg>