<svg width="59px" height="57px" viewBox="198 254 59 57" version="1.1" xmlns="http://www.w3.org/2000/svg" xmlns:xlink="http://www.w3.org/1999/xlink">
    <defs></defs>
    <g id="noun_308694_cc" stroke="none" stroke-width="1" fill="none" fill-rule="evenodd" transform="translate(199.000000, 255.000000)">
        <g id="Group" stroke="#FFFFFF" fill="#979797">
            <path d="M55.0147714,44.8953676 C50.3757857,43.7622059 47.4679714,38.3544118 46.7823429,36.9454412 C50.4254571,33.0331618 53.6427,28.6315441 55.3071,24.1571324 C57.6204857,17.9364706 57.0464143,11.8727206 53.6874857,7.08610294 C50.7161571,2.84625 45.9737571,0.31625 41.0058,0.31625 C36.0785571,0.31625 31.6928143,2.74352941 28.5040714,7.19448529 C25.4032714,2.78720588 21.0598714,0.382573529 16.1204143,0.382573529 C11.0816143,0.382573529 6.28384286,2.93683824 3.2832,7.21389706 C-0.0382714286,11.9511765 -0.6099,17.9429412 1.67417143,24.0843382 C6.41331429,36.8265441 23.8634571,49.10125 27.7459714,50.8361765 C27.7736571,50.8604412 27.8021571,50.8847059 27.8322857,50.9057353 C28.0244571,51.0480882 28.2549,51.1216912 28.4886,51.1216912 C28.5969,51.1216912 28.7060143,51.1047059 28.8110571,51.0731618 C29.8557857,50.7536765 33.1015286,48.7930882 37.0206857,45.7697059 C40.2110571,52.6689706 46.7725714,54.5656618 47.0632714,54.6465441 C47.1618,54.6732353 47.2611429,54.6861765 47.3588571,54.6861765 C47.6544429,54.6861765 47.9435143,54.5680882 48.1544143,54.3513235 L55.5465,46.7176471 C55.8192857,46.4345588 55.9210714,46.0293382 55.8103286,45.6532353 C55.7004,45.2771324 55.3974857,44.9883824 55.0147714,44.8953676 L55.0147714,44.8953676 Z M51.8781429,8.33816176 C54.8120143,12.5205882 55.2932571,17.8693382 53.2371857,23.3976471 C51.6094286,27.775 48.4329,32.0375 44.8704,35.7904412 C42.4992,35.5453676 39.8413714,34.5569853 37.0597714,33.0873529 C39.9374571,29.8455882 49.8481286,17.9308088 50.5622571,6.73426471 C51.0329143,7.23169118 51.4758857,7.76470588 51.8781429,8.33816176 L51.8781429,8.33816176 Z M48.5330571,4.96213235 C48.4483714,5.11580882 48.3978857,5.28970588 48.3978857,5.47735294 C48.3978857,16.5736029 37.3447714,29.4719118 35.0900143,31.9849265 C32.6211,30.5177206 30.0854143,28.7294118 27.5928857,26.7809559 C29.9274429,24.1272059 36.7047429,15.4825 38.1444,3.15522059 C38.1574286,3.05330882 38.1492857,2.95463235 38.133,2.85838235 C39.0637286,2.63029412 40.0205143,2.50573529 41.0033571,2.50573529 C43.7019,2.50654412 46.3222714,3.38735294 48.5330571,4.96213235 L48.5330571,4.96213235 Z M27.5399571,9.76330882 C27.7362,10.0981618 28.0961143,10.3052206 28.4861571,10.3076471 C28.8656143,10.2769118 29.2377429,10.1070588 29.4380571,9.77544118 C31.1570143,6.92433824 33.3531429,4.85698529 35.8489286,3.67125 C35.2048286,8.33897059 33.7415571,12.4575 32.0967,15.8513235 C26.8836429,12.7632353 19.9182429,5.43610294 17.3532429,2.64242647 C21.4800429,3.05573529 25.0653429,5.54367647 27.5399571,9.76330882 L27.5399571,9.76330882 Z M14.5203429,2.67882353 C14.5643143,2.78397059 14.6123571,2.88830882 14.6921571,2.97808824 C15.0927857,3.43264706 24.2966571,13.8357353 31.0910571,17.80625 C29.0268429,21.5866912 26.8917857,24.2307353 25.8657857,25.4059559 C16.2938571,17.6177941 7.752,8.11977941 6.53057143,6.74397059 C8.6925,4.53022059 11.5457571,3.07029412 14.5203429,2.67882353 L14.5203429,2.67882353 Z M5.09254286,8.46676471 C5.09661429,8.46191176 5.09987143,8.45705882 5.10312857,8.45220588 C8.30408571,12.0514706 28.8794571,34.6605147 42.9861429,37.6968382 C41.1149143,39.5183088 39.1972714,41.1885294 37.3838571,42.6541176 C22.4172857,38.6981618 3.51445714,17.1583824 2.53324286,16.0300735 C2.67167143,13.2768382 3.52504286,10.7023529 5.09254286,8.46676471 L5.09254286,8.46676471 Z M28.5659571,48.8027941 C25.8071571,47.5054412 8.39528571,35.8308824 3.74408571,23.3248529 C3.27017143,22.0509559 2.93957143,20.7875735 2.73762857,19.5444118 C4.81161429,21.7977941 8.39935714,25.5507353 12.7362429,29.4743382 C21.2992714,37.2204412 28.8680571,42.1963235 35.2716,44.3073529 C32.1667286,46.6618382 29.6172,48.2722059 28.5659571,48.8027941 L28.5659571,48.8027941 Z M47.0526857,52.3268382 C45.4371429,51.7040441 40.9854429,49.5655147 38.8039714,44.3558824 C40.8763286,42.6711029 43.0602429,40.7355882 45.1627286,38.6253676 C46.2302571,40.6231618 48.7806,44.6583824 52.7640857,46.4297059 L47.0526857,52.3268382 L47.0526857,52.3268382 Z" id="Shape"></path>
        </g>
    </g>
</svg>