
<svg width="30px" height="54px" viewBox="246 252 30 54" version="1.1" xmlns="http://www.w3.org/2000/svg" xmlns:xlink="http://www.w3.org/1999/xlink">
    <defs></defs>
    <g id="noun_199866_cc" stroke="none" stroke-width="1" fill="none" fill-rule="evenodd" transform="translate(246.000000, 252.000000)">
        <g id="Group" fill="#A5A6A9">
            <path d="M29.15625,5.5862069 L26.53125,4.46896552 C26.25,4.37586207 25.96875,4.37586207 25.78125,4.46896552 L24.375,5.2137931 L24.375,2.97931034 C24.375,2.60689655 24.1875,2.32758621 23.8125,2.14137931 L21.09375,0.931034483 C20.8125,0.837931034 20.53125,0.837931034 20.25,0.931034483 L1.125,10.5206897 C0.84375,10.7068966 0.65625,10.9862069 0.65625,11.3586207 L0.65625,46.6448276 C0.65625,47.0172414 0.9375,47.3896552 1.3125,47.4827586 L20.34375,53.7206897 L20.625,53.7206897 L20.90625,53.7206897 L23.8125,52.7896552 C24.1875,52.6965517 24.46875,52.3241379 24.46875,51.8586207 L24.46875,51.3 L25.96875,51.7655172 C26.15625,51.8586207 26.34375,51.8586207 26.53125,51.7655172 L29.0625,51.2068966 C29.4375,51.1137931 29.71875,50.7413793 29.71875,50.2758621 L29.71875,6.42413793 C29.71875,6.05172414 29.4375,5.77241379 29.15625,5.5862069 L29.15625,5.5862069 Z M20.0625,51.7655172 L2.4375,45.9931034 L2.4375,11.9172414 L20.0625,3.07241379 L20.0625,51.7655172 L20.0625,51.7655172 Z M22.59375,50.1827586 C22.59375,50.1827586 22.5,50.1827586 22.59375,50.1827586 L22.59375,51.3931034 L21.09375,51.8586207 L21.09375,2.8862069 L22.5,3.53793103 L22.5,6.61034483 L22.5,6.70344828 L22.5,50.1827586 L22.59375,50.1827586 Z M25.6875,49.9965517 L23.71875,49.3448276 L23.4375,49.3448276 L23.4375,7.54137931 C23.53125,7.54137931 23.71875,7.54137931 23.8125,7.44827586 L25.59375,6.61034483 L25.59375,49.9965517 L25.6875,49.9965517 Z M27.84375,49.6241379 L26.625,49.9965517 L26.625,6.51724138 L27.84375,7.07586207 L27.84375,49.6241379 L27.84375,49.6241379 Z" id="Shape"></path>
        </g>
    </g>
</svg>