<svg width="21px" height="14px" viewBox="441 185 21 14" version="1.1" xmlns="http://www.w3.org/2000/svg" xmlns:xlink="http://www.w3.org/1999/xlink">
     <g id="noun_492892_cc" stroke="none" stroke-width="1" fill="none" fill-rule="evenodd" transform="translate(441.000000, 185.000000)">
        <path d="M11.6132466,13.8801513 C11.4602174,13.8801513 11.2856129,13.844939 11.0974404,13.8025498 C11.0440581,13.7906629 10.9969038,13.7796731 10.9613156,13.774066 C10.1734823,13.6455526 9.2726565,13.5928464 8.47792798,13.5461958 L8.2490515,13.5325146 C7.47078251,13.4860883 5.03988745,13.1525813 3.73402371,12.973156 L3.19686463,12.8998158 C1.84762779,12.7188205 -0.105940812,11.8627371 0.0417501309,10.2467872 C0.105141575,9.55241098 0.600262116,9.05226272 1.03732944,8.61110055 L1.17278695,8.47339157 C1.62675866,8.00688557 2.0818425,7.49529894 2.22486249,6.82424799 C2.29982009,6.47257424 2.30137707,6.11058352 2.30293406,5.72728604 C2.30449104,5.35968828 2.30604802,4.97975503 2.3765571,4.59959749 C2.54204214,3.70852617 3.08342731,2.93609989 3.98581008,2.30362541 C5.41356333,1.3031046 7.62648079,0.459581005 9.55713951,1.09541972 C9.92125106,1.21541044 10.2660115,1.37823898 10.5992059,1.53590904 C10.8645602,1.66150681 11.1152345,1.77992756 11.3765852,1.87950865 C11.7571563,2.02461893 11.945996,2.08921207 12.1988945,2.13877833 C12.0451981,1.64266714 12.2028982,1.28336781 12.3697178,0.903658835 L12.436668,0.749353003 C12.4833775,0.639454954 12.5943682,0.571721871 12.7131437,0.584057367 C12.7772024,0.590112973 13.3437218,0.646183406 13.553692,0.700908149 C13.6867028,0.735447536 13.7999177,0.781649573 13.8973404,0.836374315 C14.0112225,0.665695917 14.1553547,0.537182485 14.295928,0.411136151 C14.3568727,0.356635691 14.419152,0.301238103 14.4796519,0.240682035 C14.5586132,0.161734866 14.6771663,0.139082411 14.7794824,0.183265912 C14.9220575,0.24516767 16.0922413,0.773126867 16.3391343,1.53321766 C17.0993868,1.65006844 17.7050531,1.93199058 18.2502195,2.230061 C18.3416367,2.27985154 18.4359453,2.334352 18.5322558,2.38974959 C18.7738106,2.52902855 19.0235951,2.67301742 19.2535837,2.76026301 C19.2893943,2.7739442 19.3318777,2.78717682 19.3768078,2.80153085 C19.6156935,2.87756236 19.9426599,2.98162908 19.9938179,3.27700812 C20.0320752,3.49792563 19.8846066,3.66837974 19.7760627,3.76482089 C19.7582686,4.33001085 19.3138612,4.63817395 18.7855992,4.7713973 C18.7642463,4.79270407 18.7437831,4.81378655 18.7237647,4.83419619 C18.5471584,5.01496726 18.3643241,5.20156966 18.0177842,5.29644084 C17.8752091,5.33524158 17.7435328,5.35632406 17.6274264,5.37493944 C17.4230168,5.40768457 17.261313,5.43370126 17.0746975,5.53844082 C16.9661535,5.59922117 16.8611684,5.66628141 16.7561833,5.73289309 C16.570235,5.85086528 16.3778364,5.97309882 16.1636401,6.06752143 C15.9541147,6.1599255 15.6854239,6.23169566 15.409838,6.25546952 C15.3804777,6.91463353 15.2419063,7.36005705 14.8962561,7.96404776 C14.8021698,8.12867055 14.6982968,8.28364922 14.5857492,8.42831094 C14.5950911,8.71449443 14.8613352,8.89504122 15.0528441,8.9493174 C15.0813146,8.95739155 15.132695,8.96703566 15.1967538,8.97959544 C15.6676299,9.07289664 16.3793934,9.21374557 16.2997649,9.70178261 C16.2450481,10.036411 16.0831218,10.1644758 15.9567838,10.2129207 C15.8927251,10.2373674 15.8279991,10.2447687 15.7666095,10.2416287 C15.6262586,10.358031 15.3984942,10.4170171 15.1433715,10.398626 C14.8853572,10.3793377 14.7245431,10.236246 14.6182234,10.1415991 C14.593979,10.120068 14.5706242,10.098537 14.5461574,10.0805945 C14.6077694,10.1626816 14.6522546,10.2553099 14.6553686,10.3542182 C14.6595947,10.4836287 14.5948687,10.602498 14.4820986,10.6722497 C14.4422844,10.6969207 14.3126099,10.7601681 14.1620275,10.7958289 C14.0750588,10.9797399 13.865311,11.1335972 13.6188629,11.1136361 C13.504091,11.1046648 13.3617383,11.0326704 12.8497133,10.7516454 C12.6175005,10.6242534 12.2286996,10.4109615 12.1355031,10.3869633 C11.702217,10.2959049 11.6784174,9.98325619 11.691763,9.79149531 C11.4831273,9.77489846 11.2751589,9.73609772 11.070082,9.67397168 C10.7731431,9.5840347 10.4926638,9.46023119 10.2217488,9.34046474 C9.927479,9.21060562 9.64944635,9.08792351 9.35562144,9.00695781 C9.05267707,8.92330072 8.83848072,8.8744073 8.63340383,8.85467051 C8.66187438,8.8683517 8.68923279,8.88293001 8.71503422,8.8990783 C8.9005376,9.01503195 8.97438307,9.22024974 8.90298429,9.42210329 C8.82402302,9.6454879 8.55844623,9.8603498 8.294204,9.95051105 C8.28019116,10.0103943 8.25772612,10.0758845 8.22525191,10.1476547 C8.08890469,10.450435 7.50992951,10.4255398 7.30218351,10.3342571 C7.25591888,10.3149689 6.98166747,10.2272747 6.73944543,10.1501218 C6.31550125,10.0146556 5.83506083,9.86124693 5.63443247,9.7805055 C5.50942899,9.73026639 5.32236862,9.70447399 5.14153619,9.67935444 C4.95536553,9.65356204 4.76296694,9.6270968 4.59926131,9.57012924 C4.41442521,9.50576038 4.33079299,9.38442396 4.29320297,9.29403843 C4.23003395,9.14175113 4.25405597,8.98273538 4.29898605,8.84682065 C3.92264106,8.72638136 3.63504409,8.57543976 3.44798372,8.39758434 C3.42796537,8.4079013 3.40772459,8.41799398 3.38770624,8.42808666 C3.32587178,8.45926182 3.26537188,8.48976413 3.20776351,8.52161214 C3.20398227,8.52385496 3.20020102,8.52609778 3.19619735,8.52811631 C3.09899714,8.58239249 3.01113882,8.64070574 2.9419643,8.71157877 C2.80650679,8.85063344 2.65258792,8.99305234 2.50378484,9.13098561 C2.04936828,9.55196242 1.53422939,10.0290097 1.56470177,10.4062515 C1.57915947,10.5859012 1.72774011,10.7704851 2.00621761,10.9543961 C2.62078098,11.3605703 3.22110908,11.5693766 4.07789449,11.6754619 C4.57079077,11.7362422 5.04633781,11.8075638 5.50587017,11.8764183 C5.87220599,11.9313673 6.24032122,11.9865406 6.62378385,12.0379011 C6.82663647,12.0650392 7.03260305,12.0910559 7.24057148,12.1172969 C8.04842314,12.2193451 8.88385564,12.3247575 9.6652386,12.5093413 C10.2284215,12.6425647 10.6559245,12.755827 11.0520655,12.8769391 C11.0963283,12.8906203 11.1532693,12.9043015 11.2159935,12.9195526 C11.4802357,12.98437 11.809204,13.0648872 11.9815842,13.2564238 C11.9993783,13.2761606 12.0136136,13.2884961 12.0231779,13.2970188 C12.113038,13.3766388 12.1504056,13.4692671 12.1343909,13.5722125 C12.1099241,13.727864 11.9806945,13.7839344 11.9382111,13.8023255 C11.9264225,13.807484 11.9104078,13.8144367 11.8903895,13.8245294 C11.809204,13.8644516 11.7160074,13.8801513 11.6132466,13.8801513 L11.6132466,13.8801513 Z M2.28491754,8.00935266 C2.07161089,8.32110427 1.81648814,8.59652224 1.56181023,8.85825902 L1.4227939,8.99933223 C1.03288092,9.39317095 0.629622364,9.80024229 0.584247435,10.2972506 C0.47281195,11.5191375 2.17148022,12.208131 3.26848584,12.3554841 L3.8072019,12.4290485 C5.01341875,12.5945684 7.5234975,12.9390651 8.28085844,12.98437 L8.50906763,12.9978269 C8.87829499,13.0195823 9.26976496,13.042459 9.66412647,13.0736342 C9.62364492,13.0639901 9.58227366,13.0541217 9.54023512,13.0442533 C8.78687786,12.8661736 7.96612548,12.7625554 7.17228666,12.6623015 C6.96298368,12.6358362 6.75546011,12.6098195 6.55149536,12.5824572 C6.16514119,12.5308724 5.79413442,12.4752505 5.42512949,12.4198529 C4.9687111,12.351447 4.4969453,12.280574 4.01094423,12.2204665 C3.07675453,12.1049614 2.38767841,11.8636342 1.70683206,11.4135008 C1.28044119,11.1318029 1.0497853,10.8077158 1.02086991,10.450435 C0.968822195,9.80562506 1.56136538,9.25658338 2.13455749,8.72570852 C2.28491754,8.58642956 2.42682541,8.45500047 2.55249616,8.32603847 C2.62723134,8.24933412 2.70841687,8.18586239 2.79249395,8.1304648 C2.78537631,8.09054265 2.77603441,8.04635915 2.76891678,8.01114692 C2.7631337,7.98333598 2.75735062,7.95507649 2.75156754,7.92636842 C2.59853837,7.97660753 2.43505517,8.00307278 2.28491754,8.00935266 L2.28491754,8.00935266 Z M12.2331481,9.84622005 C12.2375967,9.84734146 12.24249,9.84846287 12.2478283,9.84958428 C12.3895137,9.87918946 12.6306236,10.0063572 13.1097295,10.2692154 C13.2685417,10.356461 13.4707271,10.4672562 13.5950633,10.5284851 C13.5946184,10.4847501 13.6044052,10.4405666 13.6250908,10.3995231 C13.6826992,10.2864851 13.8097045,10.2279476 13.9324837,10.2582256 C13.9333734,10.2584499 13.9342631,10.2586742 13.9353752,10.2588984 C13.9178036,10.2470115 13.9011216,10.2366945 13.8864415,10.2288447 C13.7500943,10.1559531 13.6166386,10.1285907 13.475398,10.0994341 C13.2391815,10.0509893 12.9546985,9.99222746 12.7291584,9.69281134 C12.5678995,9.736322 12.4041938,9.7670486 12.2391537,9.78431829 C12.236707,9.80450365 12.2344827,9.82693182 12.2331481,9.84622005 L12.2331481,9.84622005 Z M14.2347608,9.35751016 C14.2828048,9.35751016 14.3324059,9.36423861 14.3822293,9.38173258 C14.5492713,9.44071868 14.6878428,9.51248883 14.8455429,9.62148975 C14.8906954,9.65266491 14.9340685,9.69034425 14.9783313,9.72981783 C15.0635205,9.80562506 15.1113421,9.8455472 15.1829633,9.85092997 C15.2614798,9.85676129 15.3213124,9.84868715 15.3620164,9.83837019 C15.3740274,9.79082246 15.3987167,9.74574183 15.4358618,9.70918391 C15.4767882,9.6688132 15.5275014,9.64391793 15.5804388,9.63472238 C15.4627754,9.59861302 15.2992922,9.56003656 15.0913238,9.51876872 C15.0081364,9.50239615 14.9420759,9.48871497 14.9049307,9.47817373 C14.6046554,9.39317095 14.3163912,9.18369181 14.160248,8.891677 C14.0939651,8.95268163 14.0259027,9.01099488 13.9562833,9.06639247 C13.9702961,9.13726549 13.9778586,9.21105418 13.9851987,9.28394575 C13.9883127,9.31556947 13.9927612,9.35773444 13.997877,9.39608661 C13.999434,9.39563805 14.0012134,9.39518949 14.0027703,9.39474092 C14.0715,9.37769551 14.1509061,9.35751016 14.2347608,9.35751016 L14.2347608,9.35751016 Z M4.80389334,9.05876689 C4.92066705,9.09397912 5.06991498,9.11483732 5.21493681,9.13457411 C5.42824346,9.1641793 5.64911259,9.19468162 5.83595053,9.269816 C6.01811753,9.34315612 6.50901197,9.49992906 6.90337348,9.62575111 C7.30440777,9.75381598 7.46144061,9.80472793 7.51971626,9.83029605 C7.56219964,9.84711718 7.68119762,9.84891143 7.75882433,9.83837019 C7.73391261,9.82244619 7.69988141,9.80315796 7.672523,9.78768252 L7.59222717,9.74148048 C7.46233032,9.66477613 7.41895722,9.49634055 7.49502696,9.3655843 C7.57109669,9.23460377 7.73880598,9.19086883 7.86781313,9.26757318 L7.94054647,9.30951386 C7.99859969,9.34248328 8.06466025,9.38016261 8.12493773,9.42860746 C8.1852152,9.40550645 8.25883825,9.36244435 8.3137775,9.31848513 C8.22102581,9.28910423 8.09980357,9.26286326 7.98836809,9.2390894 C7.79485737,9.19759728 7.59623084,9.15498375 7.43341492,9.07940081 C7.23679023,9.14444251 7.0177005,9.18279469 6.76591414,9.17718764 C6.01589326,9.16193649 5.36351746,9.09577337 4.82902749,8.98430535 C4.81835104,9.01054632 4.80923157,9.03678728 4.80389334,9.05876689 L4.80389334,9.05876689 Z M13.299459,9.4797437 C13.3472806,9.50441469 13.4022198,9.52101154 13.468058,9.5362627 C13.460273,9.49252776 13.45449,9.44744713 13.4495966,9.40259078 C13.3999956,9.42972887 13.3499497,9.45552127 13.299459,9.4797437 L13.299459,9.4797437 Z M8.57446091,8.30002179 C8.84760019,8.31527295 9.11695822,8.37179194 9.49864144,8.47720436 C9.83072363,8.5687113 10.1401184,8.70529888 10.4395039,8.83740082 C10.7075274,8.95559729 10.9608707,9.06751388 11.2262251,9.14780674 C11.4708938,9.22204399 11.7100019,9.25680766 11.9413251,9.25837763 C11.9486651,9.2574805 11.9560052,9.25658338 11.9635677,9.25613481 C11.9809169,9.2550134 11.9973765,9.25591053 12.013836,9.25770478 C12.2593944,9.25187346 12.4953885,9.20858709 12.7193716,9.13524696 C12.722708,9.13345271 12.7260444,9.13143417 12.7293808,9.1298642 C12.7558495,9.11640729 12.7832079,9.10766031 12.8110112,9.10339895 C13.0249851,9.0242275 13.2271705,8.9174694 13.4146757,8.79007737 C13.4266867,8.77549906 13.4402547,8.76204216 13.4556021,8.74948238 C13.4787344,8.730867 13.504091,8.71673725 13.5305597,8.70709313 C13.8993422,8.43010519 14.2047333,8.07237583 14.4236006,7.6897512 C14.7223188,7.16762333 14.8388701,6.79688562 14.8646716,6.23079853 C14.7628004,6.21038889 14.6653778,6.1796623 14.5752952,6.13749733 C14.3210621,6.01840373 14.1455679,5.81655017 14.0679412,5.5534677 C14.025013,5.40813314 14.1073106,5.25494872 14.2514428,5.21188662 C14.39513,5.16860025 14.5474919,5.25136021 14.5901977,5.39691905 C14.6233392,5.50905992 14.6914016,5.58621283 14.8046165,5.63914332 C15.0993311,5.77707659 15.6155821,5.7093435 15.9443279,5.56423322 C16.1209343,5.48618318 16.2879763,5.3803222 16.4648051,5.26795706 C16.5782424,5.19596262 16.6916797,5.12396818 16.8086758,5.05825364 C17.0795909,4.90619062 17.314028,4.86873557 17.5409026,4.83240193 C17.6525605,4.81445939 17.7584354,4.79741398 17.8718727,4.76691167 C17.8253856,4.71712112 17.7969151,4.6498366 17.7975824,4.57582363 C17.7989169,4.42488203 17.920584,4.30354561 18.0700544,4.30354561 C18.0762823,4.30399417 18.0833999,4.30376989 18.0902951,4.30354561 C18.4012469,4.30354561 18.9117148,4.23356971 19.1283578,3.99403682 C18.9579794,3.97968279 18.7529025,3.92764943 18.6617078,3.70605907 C18.6040995,3.56588299 18.6699376,3.40507299 18.8089539,3.34698402 C18.929064,3.29629635 19.0649664,3.33958272 19.1365876,3.44320089 C19.1719534,3.44813508 19.2288944,3.44970506 19.2698209,3.45082646 C19.2824991,3.45105075 19.2953999,3.45149931 19.308523,3.45194787 C19.3238704,3.43041683 19.3425542,3.41090432 19.364352,3.39408319 C19.3694678,3.39004611 19.3741387,3.38623333 19.3788096,3.38264482 C19.322091,3.36088949 19.2566977,3.34025557 19.2119901,3.32590154 C19.156606,3.30818328 19.1045582,3.29158643 19.0605179,3.2747653 C18.7900477,3.17204427 18.5209121,3.01684131 18.2606735,2.86679683 C18.1681443,2.81341778 18.0773944,2.76116014 17.9895361,2.71316385 C17.2526384,2.31012958 16.5722369,2.03919724 15.6478339,2.02663747 C15.2926194,2.02147899 15.105559,2.02506749 14.8715668,2.11612588 C14.8815759,2.12644284 14.89203,2.13653551 14.9029289,2.14685247 C15.0125849,2.25069492 15.0181456,2.42451326 14.9151623,2.53508415 C14.812179,2.64587933 14.6397988,2.65126209 14.5301427,2.54741965 C14.2803581,2.3110267 14.1504613,2.05758835 14.0359118,1.83397946 C13.8793239,1.52850774 13.7758957,1.32665418 13.4169,1.2331287 C13.3217016,1.20845771 13.0708049,1.17571258 12.8561637,1.15193871 C12.7026897,1.50159393 12.6208369,1.70098039 12.7313827,2.01430197 C12.8179064,2.25966619 12.9057647,2.36642429 13.0076359,2.49022781 C13.1321945,2.64139369 13.2729903,2.81274494 13.3797548,3.18729543 C13.4213485,3.33307855 13.3377163,3.48536585 13.1931393,3.52708225 C13.0485623,3.56924722 12.8977574,3.48469301 12.8561637,3.33890988 C12.7809837,3.07515456 12.6960169,2.97176068 12.5883627,2.84100443 C12.5630061,2.81027784 12.5372047,2.77865411 12.5105135,2.74456329 C11.9553379,2.6683075 11.7682776,2.61649842 11.1832969,2.39378666 C10.9021502,2.28657999 10.6301231,2.15806656 10.3672154,2.0335902 C10.0342435,1.87614442 9.719733,1.72744564 9.38742838,1.61799615 C7.64583187,1.04473204 5.55613848,1.87210735 4.29631694,2.75510453 C3.51560126,3.30212768 3.04984097,3.95680605 2.91171435,4.70097284 C2.85032474,5.03223696 2.84876775,5.37112665 2.8474332,5.72975314 C2.84587621,6.12426471 2.84409681,6.53245746 2.75712819,6.94020165 C2.723097,7.0992174 2.67638751,7.24926188 2.61900157,7.39168078 C2.69707314,7.363197 2.76068701,7.3275362 2.79716489,7.2882869 C2.88213167,7.19700423 3.01736675,7.1752489 3.12613312,7.23535641 C3.2348995,7.29523963 3.28983875,7.42173453 3.26003365,7.54307094 C3.24468625,7.60564555 3.27093253,7.74828873 3.29339757,7.8590839 C3.32164568,7.84383275 3.34967137,7.82813303 3.37725221,7.81198474 C3.44086608,7.77452969 3.51671339,7.7646613 3.58766732,7.78394952 C3.65862125,7.80368632 3.71867631,7.85145833 3.75404206,7.91650003 C3.87815583,8.1439217 4.66910311,8.58508387 6.77614574,8.62814596 C7.39693704,8.64339712 7.78729488,8.28364922 8.12649471,7.96853339 C8.27040441,7.83486148 8.40630677,7.70836658 8.55199587,7.61842961 C8.68011332,7.53925815 8.84804504,7.57940458 8.92678389,7.70881514 C9.00552273,7.8382257 8.9652636,8.00733413 8.83714616,8.08672986 C8.75862974,8.13495043 8.66921444,8.2127762 8.57446091,8.30002179 L8.57446091,8.30002179 Z M14.3083838,1.21316762 C14.3933506,1.33338263 14.458299,1.46032609 14.5205784,1.58166251 C14.5330342,1.60566066 14.5452677,1.62988308 14.5577235,1.65365695 C14.9225024,1.48611849 15.183853,1.47154018 15.6560637,1.47714722 C15.6696317,1.4773715 15.6829773,1.47759579 15.6963228,1.47782007 C15.4810143,1.20172926 15.0632981,0.931918333 14.7238758,0.762809907 C14.7016332,0.782770981 14.679613,0.802732055 14.6575928,0.822244566 C14.5076776,0.95614076 14.3842311,1.06671165 14.3083838,1.21316762 L14.3083838,1.21316762 Z M17.039999,3.74889689 C16.6151651,3.74889689 16.3111086,3.35348819 16.2777447,3.30840756 C16.2059011,3.21106929 16.2059011,3.07762166 16.2777447,2.98028339 C16.3108862,2.93520276 16.6151651,2.54001835 17.0397766,2.54001835 C17.4646105,2.54001835 17.768667,2.93520276 17.8020309,2.98028339 C17.8738745,3.07762166 17.8738745,3.21106929 17.8020309,3.30840756 C17.7688894,3.35348819 17.4648329,3.74889689 17.039999,3.74889689 L17.039999,3.74889689 Z M16.8916408,3.14423334 C16.9895083,3.20860219 17.0907122,3.20815363 17.1881348,3.14423334 C17.0902673,3.08031304 16.9895083,3.08008876 16.8916408,3.14423334 L16.8916408,3.14423334 Z M13.6235338,2.81790342 C13.5892802,2.81790342 13.5548041,2.81095068 13.5216627,2.79569953 C13.2320638,2.66314902 12.7643017,2.27985154 12.8486012,1.68528067 C12.8699541,1.53523619 13.0078583,1.43094519 13.1568838,1.45202767 C13.3059093,1.47355872 13.4093375,1.61261339 13.388207,1.76288215 C13.3693008,1.89565693 13.4191242,2.00555498 13.4871866,2.09033348 C13.6733573,1.97886546 13.9289249,2.06498964 14.0230111,2.09683765 C14.1658087,2.14483394 14.2427681,2.30048546 14.1951689,2.44447433 C14.151351,2.57680055 14.0178953,2.65395347 13.8853294,2.62726394 C13.8744305,2.66000908 13.8575261,2.69095996 13.8343938,2.71720092 C13.7794545,2.78067265 13.7022727,2.81790342 13.6235338,2.81790342 L13.6235338,2.81790342 Z" id="Shape" fill="#969696"></path>
    </g>
</svg>