
<svg width="69px" height="44px" viewBox="25 258 69 44" version="1.1" xmlns="http://www.w3.org/2000/svg" xmlns:xlink="http://www.w3.org/1999/xlink">
    <defs></defs>
    <g id="noun_40841_cc" stroke="none" stroke-width="1" fill="none" fill-rule="evenodd" transform="translate(25.000000, 258.000000)">
        <g id="Group" fill="#969696">
            <path d="M0.047010989,27.148 L0.047010989,31.8036552 L0.426131868,32.4355862 L20.9077582,43.3521379 L20.9123077,43.3513793 C21.0131538,43.4044828 21.1284066,43.4371034 21.2459341,43.4371034 C21.3634615,43.4371034 21.4832637,43.4075172 21.593967,43.3453103 L67.9225385,17.4854483 L68.2887692,16.8595862 L68.2887692,12.2964828 C68.2887692,12.0264138 68.1333297,11.8003448 67.914956,11.6782069 L67.914956,11.666069 L47.4333297,0.590206897 L46.7440879,0.594758621 L0.413241758,26.4568966 C0.159230769,26.598 0.0272967033,26.8726207 0.0508021978,27.1457241 L0.047010989,27.148 L0.047010989,27.148 Z M2.19283516,27.1017241 L32.5088571,10.179931 C28.7494945,16.6843448 20.1661978,21.6313103 14.8152857,23.181931 C9.07918681,24.8433103 6.96369231,25.916 3.78514286,27.9491034 L2.19283516,27.1017241 L2.19283516,27.1017241 Z M51.6863077,4.51834483 C50.1106813,5.79586207 48.5919231,6.42096552 46.1966374,7.39503448 C45.6112747,7.63248276 44.9743516,7.89117241 44.2714615,8.18627586 C37.5382747,11.0106207 33.9859121,14.5693103 33.5552308,17.1122069 C33.2026484,19.1893103 26.0554615,21.8672414 20.2344396,24.0057931 C15.5022527,25.7468276 11.4138132,27.2473793 10.5228791,28.5006207 C9.62436264,29.7614483 9.01549451,30.3068966 8.65153846,30.5428276 L4.50926374,28.336 C7.21542857,26.6162069 9.34305495,25.5108966 15.0154615,23.8692414 C20.7515604,22.2063448 30.1181209,16.7101379 33.6538022,9.54117241 L47.0966703,2.03689655 L51.6863077,4.51834483 L51.6863077,4.51834483 Z M18.3721978,35.7242069 C20.9487033,34.6234483 27.0988022,31.8673793 28.518989,30.0929655 C29.5342747,28.82 32.499,29.4132414 34.311956,30.0413793 L21.321,37.296069 L18.3721978,35.7242069 L18.3721978,35.7242069 Z M12.2691099,32.4712414 C12.8643297,31.8385517 14.0183736,30.8811724 15.8313297,30.4525517 C20.7962967,29.2797241 37.2387692,20.5578621 37.4252967,20.4683448 C38.6119451,19.8872414 38.3541429,19.0550345 38.1471429,18.3844138 C37.8696264,17.4953103 37.5852857,16.5758621 39.5104615,15.2346207 C40.8244945,14.3182069 45.2821978,12.5817241 47.9974615,13.9131034 C48.350044,14.0868276 48.5312637,14.3743448 48.5471868,14.7961379 C48.6032967,16.1616552 47.0132637,18.3381379 45.1388901,19.4548276 C44.3556264,19.9228966 42.8444505,20.5912414 41.5395165,19.8166897 C41.1611538,19.5906207 41.1353736,19.3569655 41.1558462,19.1794483 C41.2832308,18.0665517 43.9583077,15.2717931 44.8136044,14.9986897 C43.7869451,15.3271724 40.6182527,17.5969655 40.4438571,19.0975172 C40.4006374,19.4836552 40.4908681,20.0268276 41.1748022,20.4311724 C42.3766154,21.1473103 43.9158462,21.0191034 45.5058791,20.070069 C47.6001429,18.8213793 49.3137692,16.405931 49.2622088,14.7870345 C50.3298132,14.4448966 55.0195385,12.788069 58.2807363,8.08537931 L62.6883956,10.4704828 C62.0135604,11.5454483 60.1824066,12.2767586 58.1017912,13.1036552 C55.5131538,14.1338621 52.5817912,15.3013793 50.7385055,17.5484138 C50.0917253,18.3366207 50.9735604,19.5898621 51.6605275,20.3613793 L39.1836593,27.3262759 L35.6214396,26.3734483 L37.7854615,28.1076552 L35.142989,29.5808966 C33.7228022,28.9618621 30.0930989,27.6471724 28.5576593,29.5649655 C27.1450549,31.3310345 19.7158022,34.423931 17.5669451,35.2948276 L12.2691099,32.4712414 L12.2691099,32.4712414 Z M39.326967,27.9923448 L38.7757253,30.353931 L38.6233187,28.4368966 L38.1365275,27.9877931 C38.1312198,27.9786897 38.1243956,27.9733793 38.1160549,27.9688276 L37.1864505,27.110069 L39.326967,27.9923448 L39.326967,27.9923448 Z M9.3476044,30.9137931 C9.80785714,30.5397931 10.3863956,29.926069 11.105967,28.914069 C11.8702747,27.8444138 15.6690659,26.2285517 19.9038462,24.6703448 C26.5286044,22.2366897 33.9578571,19.7241379 34.2657033,17.1971724 C34.6091868,14.3735862 38.0698022,11.5621379 44.5467033,8.84551724 C45.2473187,8.55117241 47.9678901,7.42537931 48.5502198,7.18868966 C51.1199011,6.14331034 50.7695934,6.30262069 52.3725165,4.88931034 L56.9644286,7.37303448 C54.0095604,11.6190345 50.1720989,13.5709655 49.0862967,14.0595172 C48.9285824,13.721931 48.6768462,13.4488276 48.3121319,13.2697931 C45.2912967,11.7851724 40.5636593,13.6286207 39.1017692,14.645931 C36.7459121,16.2853103 37.1758352,17.6758621 37.4632088,18.5953103 C37.6694505,19.2636552 37.7475495,19.5124828 37.1098681,19.8235172 C36.9263736,19.9130345 18.5443187,28.8473103 15.6175055,29.7705517 C13.5603956,30.4176552 12.2721429,31.4986897 11.6465934,32.1389655 L9.3476044,30.9137931 L9.3476044,30.9137931 Z M66.0875934,12.3063448 L52.3035165,19.9995172 C51.6241319,19.2545517 51.0205714,18.332069 51.2905055,18.0005517 C53.0162637,15.8968966 55.8960659,14.3948276 58.4050879,13.3972414 C60.6077802,12.5195172 62.5268901,12.0036552 63.3086374,10.8027586 L66.0875934,12.3063448 L66.0875934,12.3063448 Z M66.8572088,16.4385517 L21.9601978,41.5011034 L21.9601978,38.5773793 L38.2055275,29.5088276 L38.7764835,31.5176552 L39.8660769,28.5408276 L66.857967,13.514069 L66.857967,16.4385517 L66.8572088,16.4385517 Z M1.47857143,28.3405517 L20.5286374,38.4946897 L20.5286374,41.5276552 L1.47857143,31.3742759 L1.47857143,28.3405517 L1.47857143,28.3405517 Z" id="Shape"></path>
        </g>
    </g>
</svg>