<svg width="45px" height="37px" viewBox="237 226 45 37" version="1.1" xmlns="http://www.w3.org/2000/svg" xmlns:xlink="http://www.w3.org/1999/xlink">
    <defs></defs>
    <g id="noun_311741_cc" stroke="none" stroke-width="1" fill="none" fill-rule="evenodd" transform="translate(237.000000, 227.000000)">
        <g id="Group" fill="#969696">
            <path d="M0.614754098,29.4375 L3.87295082,29.4375 L3.87295082,34.1875 C3.87295082,35.1875 4.67213115,36 5.6557377,36 L6.51639344,36 C7.5,36 8.29918033,35.1875 8.29918033,34.1875 L8.29918033,29.4375 L36.8852459,29.4375 L36.8852459,34.1875 C36.8852459,35.1875 37.6844262,36 38.6680328,36 L39.5286885,36 C40.5122951,36 41.3114754,35.1875 41.3114754,34.1875 L41.3114754,29.4375 L44.3852459,29.4375 C44.7540984,29.4375 45,29.1875 45,28.8125 L45,19.3125 C45,18.9375 44.7540984,18.6875 44.3852459,18.6875 L44.1393443,18.6875 C44.692623,18.0625 45,17.25 45,16.3125 C45,14.875 44.1393443,13.625 42.9098361,13.0625 L42.9098361,2.9375 C42.9098361,1.3125 41.6188525,-3.55271368e-15 40.0204918,-3.55271368e-15 L5.5942623,-3.55271368e-15 C3.99590164,-3.55271368e-15 2.70491803,1.3125 2.70491803,2.9375 L2.70491803,12.8125 C1.16803279,13.1875 0,14.625 0,16.3125 C0,17.1875 0.307377049,18.0625 0.860655738,18.6875 L0.614754098,18.6875 C0.245901639,18.6875 0,18.9375 0,19.3125 L0,28.8125 C0,29.1875 0.307377049,29.4375 0.614754098,29.4375 L0.614754098,29.4375 Z M7.06967213,34.1875 C7.06967213,34.5 6.82377049,34.75 6.51639344,34.75 L5.6557377,34.75 C5.34836066,34.75 5.10245902,34.5 5.10245902,34.1875 L5.10245902,29.5 L7.06967213,29.5 L7.06967213,34.1875 L7.06967213,34.1875 Z M40.0819672,34.1875 C40.0819672,34.5 39.8360656,34.75 39.5286885,34.75 L38.6680328,34.75 C38.3606557,34.75 38.1147541,34.5 38.1147541,34.1875 L38.1147541,29.5 L40.0819672,29.5 L40.0819672,34.1875 L40.0819672,34.1875 Z M1.2295082,16.3125 C1.2295082,15 2.27459016,13.9375 3.56557377,13.9375 L6.08606557,13.9375 L22.5,13.9375 L22.5,13.9375 L23.0532787,13.9375 L39.4672131,13.9375 L39.4672131,13.9375 L41.4344262,13.9375 C42.7254098,13.9375 43.7704918,15 43.7704918,16.3125 C43.7704918,17.125 43.3401639,17.8125 42.7868852,18.25 C42.6639344,18.125 42.5409836,18.0625 42.3565574,18.0625 C42.0491803,18.0625 41.7418033,18.3125 41.7418033,18.6875 L41.557377,18.6875 L41.7418033,18.6875 L41.7418033,18.6875 C41.7418033,18.875 41.6803279,19.125 41.557377,19.3125 L41.557377,19.3125 C41.4344262,19.5625 41.3114754,19.75 41.0655738,19.9375 C40.4508197,20.5 39.5286885,20.8125 38.4836066,20.8125 C37.4385246,20.8125 36.5163934,20.4375 35.9016393,19.9375 C35.7172131,19.75 35.5327869,19.5625 35.4098361,19.3125 C35.2868852,19.125 35.2254098,18.875 35.2254098,18.6875 L35.2254098,18.6875 L35.2254098,18.6875 C35.2254098,18.3125 34.9795082,18.0625 34.6106557,18.0625 C34.2418033,18.0625 33.9959016,18.3125 33.9959016,18.6875 L33.9959016,18.6875 L3.56557377,18.6875 C2.27459016,18.6875 1.2295082,17.625 1.2295082,16.3125 L1.2295082,16.3125 Z M23.7295082,12.75 C24.0368852,10.875 25.6352459,9.375 27.602459,9.375 L34.9795082,9.375 C36.9467213,9.375 38.545082,10.8125 38.852459,12.75 L23.7295082,12.75 L23.7295082,12.75 Z M6.76229508,12.75 C7.06967213,10.875 8.66803279,9.375 10.6352459,9.375 L18.0122951,9.375 C19.9795082,9.375 21.5778689,10.8125 21.8852459,12.75 L6.76229508,12.75 L6.76229508,12.75 Z M1.2295082,19.9375 L3.56557377,19.9375 L34.4262295,19.9375 C35.102459,21.1875 36.6393443,22.0625 38.545082,22.0625 C40.3893443,22.0625 41.9877049,21.1875 42.6639344,19.9375 L43.8319672,19.9375 L43.8319672,28.1875 L1.2295082,28.1875 L1.2295082,19.9375 L1.2295082,19.9375 Z M3.93442623,2.9375 C3.93442623,2 4.67213115,1.25 5.5942623,1.25 L40.0819672,1.25 C41.0040984,1.25 41.7418033,2 41.7418033,2.9375 L41.7418033,12.75 L41.4959016,12.75 L40.0819672,12.75 C39.7745902,10.1875 37.6229508,8.125 34.9795082,8.125 L27.602459,8.125 C25.3893443,8.125 23.545082,9.5625 22.807377,11.5 C22.0696721,9.5 20.1639344,8.125 18.0122951,8.125 L10.6352459,8.125 C7.99180328,8.125 5.84016393,10.125 5.53278689,12.75 L3.99590164,12.75 L3.99590164,2.9375 L3.93442623,2.9375 Z" id="Shape"></path>
        </g>
    </g>
</svg>