<svg width="46px" height="40px" viewBox="39 221 46 40" version="1.1" xmlns="http://www.w3.org/2000/svg" xmlns:xlink="http://www.w3.org/1999/xlink">
    <defs></defs>
    <g id="noun_604240_cc" stroke="none" stroke-width="1" fill="none" fill-rule="evenodd" transform="translate(39.000000, 221.000000)">
        <g id="Group" fill="#969696">
            <path d="M31.0554463,0.455670968 C29.2417126,0.455670968 27.7456697,1.82252287 27.4815109,3.5873977 C26.7966347,3.68139144 26.1267828,3.91354239 25.5115325,4.28300243 C23.8611252,5.27390004 22.8541016,7.09976418 22.8541427,9.06490825 L22.8541427,9.83579421 L24.3777522,9.83579421 L24.3777522,11.2480831 L25.9013617,11.2480831 L25.9013617,9.83579421 L27.4249712,9.83579421 L27.4249712,11.2480831 L28.9485808,11.2480831 L28.9485808,9.83579421 L30.4721903,9.83579421 L30.4721903,11.2480831 L31.9957998,11.2480831 L31.9957998,9.83579421 L32.7576045,9.83579421 L33.5194093,9.83579421 L33.5194093,9.06490825 C33.5194504,7.09976418 32.5124268,5.27390004 30.8620195,4.28300243 C30.2845288,3.9362174 29.6580937,3.71558165 29.0170243,3.61148791 C29.2429939,2.67550379 30.05548,1.99744413 31.0554463,1.99744413 L37.5069818,1.99744413 C38.6863074,1.99744413 39.6138474,2.93718386 39.6138474,4.13544996 L39.6138474,18.9569489 L19.8009725,18.9569489 C19.8102891,18.8650816 19.8032336,18.772268 19.7801417,18.6829234 C19.3747,17.108773 18.008452,16.0450451 16.4740279,16.0450451 C16.2483219,16.0450451 16.0382847,16.1312888 15.8193511,16.177542 C15.2376553,15.0389425 14.2168872,14.181066 12.9268745,14.181066 L12.9268745,14.1840771 C11.6879238,14.1840771 10.6204252,14.8890375 10.0224938,15.9095387 C9.59402741,16.0033155 9.19797837,16.1883159 8.85002877,16.4515675 C8.06004273,15.6285906 6.99380174,15.116392 5.83256767,15.1145603 C3.66421018,15.1145603 1.89470777,16.8035512 1.58610127,18.9569489 L1.52360951,18.9569489 C0.692706628,18.9569489 0,19.6579932 0,20.4987221 L0,23.5822684 C0,24.4231515 0.692706628,25.1240415 1.52360951,25.1240415 L1.52360951,31.2911342 C1.52360951,34.6944443 4.25490613,37.4582268 7.61804757,37.4582268 L7.61804757,39 L9.14165708,39 L9.14165708,37.4582268 L36.5666283,37.4582268 L36.5666283,39 L38.0902378,39 L38.0902378,37.4582268 C41.4533788,37.4582268 44.1846759,34.6944443 44.1846759,31.2911342 L44.1846759,25.1240415 C45.0155794,25.1240415 45.7082854,24.4231515 45.7082854,23.5822684 L45.7082854,20.4987221 C45.7082854,19.6579932 45.0155794,18.9569489 44.1846759,18.9569489 L41.1374569,18.9569489 L41.1374569,4.13544996 C41.1374569,2.11156433 39.5055979,0.455670968 37.5069818,0.455670968 L31.0554463,0.455670968 L31.0554463,0.455670968 Z M28.186776,5.07797921 C28.8400541,5.07797921 29.4933336,5.25729221 30.0823611,5.61097498 C31.0332762,6.18189358 31.5765756,7.18949538 31.7964218,8.29402167 L28.186776,8.29402167 L24.5771302,8.29402167 C24.7969764,7.18949538 25.3402758,6.18189358 26.2911909,5.61097498 C26.8802184,5.25729221 27.5334979,5.07797921 28.186776,5.07797921 L28.186776,5.07797921 Z M24.3777522,12.7898563 L24.3777522,14.3316294 L25.9013617,14.3316294 L25.9013617,12.7898563 L24.3777522,12.7898563 L24.3777522,12.7898563 Z M27.4249712,12.7898563 L27.4249712,14.3316294 L28.9485808,14.3316294 L28.9485808,12.7898563 L27.4249712,12.7898563 L27.4249712,12.7898563 Z M30.4721903,12.7898563 L30.4721903,14.3316294 L31.9957998,14.3316294 L31.9957998,12.7898563 L30.4721903,12.7898563 L30.4721903,12.7898563 Z M12.9268745,15.7258503 C13.773497,15.7258503 14.5247996,16.3152547 14.7569916,17.2104098 C14.8126342,17.4255942 14.9574081,17.6059749 15.1541249,17.7052173 C15.3508418,17.8044597 15.5803306,17.8128921 15.7836423,17.7283484 C16.0066378,17.635842 16.2396144,17.5868183 16.4740279,17.5868183 C17.2991706,17.5868183 17.9789671,18.0884265 18.2535565,18.9569489 L3.11863822,18.9569489 C3.39945987,17.6253734 4.51098497,16.6563335 5.83256767,16.6563335 C6.70407505,16.6577226 7.51132695,17.0894176 8.03465954,17.8126634 C8.04502653,17.8281161 8.05594502,17.8431824 8.06739338,17.8578327 C8.16567323,18.1313771 8.40781433,18.3255959 8.6934341,18.3599734 C8.97905386,18.3943509 9.25945991,18.2630263 9.41840643,18.020442 C9.68389127,17.6373113 10.105701,17.4003793 10.5670652,17.3700064 C10.923147,17.3579139 11.2234408,17.097808 11.2901845,16.7436611 C11.6219486,16.130999 12.2249884,15.7258503 12.9268745,15.7258503 L12.9268745,15.7258503 Z M24.3777522,15.8734026 L24.3777522,17.4151757 L25.9013617,17.4151757 L25.9013617,15.8734026 L24.3777522,15.8734026 L24.3777522,15.8734026 Z M27.4249712,15.8734026 L27.4249712,17.4151757 L28.9485808,17.4151757 L28.9485808,15.8734026 L27.4249712,15.8734026 L27.4249712,15.8734026 Z M30.4721903,15.8734026 L30.4721903,17.4151757 L31.9957998,17.4151757 L31.9957998,15.8734026 L30.4721903,15.8734026 L30.4721903,15.8734026 Z M1.52360951,20.4987221 L44.1846759,20.4987221 L44.1846759,23.5822684 L1.52360951,23.5822684 L1.52360951,20.4987221 L1.52360951,20.4987221 Z M3.04721903,25.1240415 L42.6610664,25.1240415 L42.6610664,31.2911342 C42.6610664,33.8669746 40.6356545,35.9164537 38.0902378,35.9164537 L9.14165708,35.9164537 L7.61804757,35.9164537 C5.07263131,35.9164537 3.04721903,33.8669746 3.04721903,31.2911342 L3.04721903,25.1240415 L3.04721903,25.1240415 Z" id="Shape"></path>
        </g>
    </g>
</svg>