<svg width="71px" height="65px" viewBox="820 396 71 65" version="1.1" xmlns="http://www.w3.org/2000/svg" xmlns:xlink="http://www.w3.org/1999/xlink">
    <g id="noun_576343_cc" stroke="none" stroke-width="1" fill="none" fill-rule="evenodd" transform="translate(820.000000, 396.000000)">
        <g id="Group" fill="#979797">
            <g id="Shape">
                <path d="M69.0083333,59.8541667 L66.8958333,59.8541667 L66.8958333,40.8416667 C66.8958333,40.4529667 66.5803667,40.1375 66.1916667,40.1375 L49.2916667,40.1375 C48.9029667,40.1375 48.5875,40.4529667 48.5875,40.8416667 L48.5875,59.8541667 L44.3625,59.8541667 L44.3625,40.8416667 C44.3625,40.4529667 44.0470333,40.1375 43.6583333,40.1375 L26.7583333,40.1375 C26.3696333,40.1375 26.0541667,40.4529667 26.0541667,40.8416667 L26.0541667,59.8541667 L21.8291667,59.8541667 L21.8291667,40.8416667 C21.8291667,40.4529667 21.5137,40.1375 21.125,40.1375 L4.225,40.1375 C3.8363,40.1375 3.52083333,40.4529667 3.52083333,40.8416667 L3.52083333,59.8541667 L1.40833333,59.8541667 C1.01963333,59.8541667 0.704166667,60.1696333 0.704166667,60.5583333 C0.704166667,60.9470333 1.01963333,61.2625 1.40833333,61.2625 L6.3375,61.2625 L6.3375,63.375 C6.3375,63.7637 6.65296667,64.0791667 7.04166667,64.0791667 C7.43036667,64.0791667 7.74583333,63.7637 7.74583333,63.375 L7.74583333,61.2625 L62.6708333,61.2625 L62.6708333,63.375 C62.6708333,63.7637 62.9863,64.0791667 63.375,64.0791667 C63.7637,64.0791667 64.0791667,63.7637 64.0791667,63.375 L64.0791667,61.2625 L69.0083333,61.2625 C69.3970333,61.2625 69.7125,60.9470333 69.7125,60.5583333 C69.7125,60.1696333 69.3970333,59.8541667 69.0083333,59.8541667 L69.0083333,59.8541667 Z M65.4875,41.5458333 L65.4875,54.2208333 L49.9958333,54.2208333 L49.9958333,41.5458333 L65.4875,41.5458333 L65.4875,41.5458333 Z M42.9541667,41.5458333 L42.9541667,54.2208333 L27.4625,54.2208333 L27.4625,41.5458333 L42.9541667,41.5458333 L42.9541667,41.5458333 Z M20.4208333,41.5458333 L20.4208333,54.2208333 L4.92916667,54.2208333 L4.92916667,41.5458333 L20.4208333,41.5458333 L20.4208333,41.5458333 Z M4.92916667,59.8541667 L4.92916667,55.6291667 L20.4208333,55.6291667 L20.4208333,59.8541667 L4.92916667,59.8541667 L4.92916667,59.8541667 Z M27.4625,59.8541667 L27.4625,55.6291667 L42.9541667,55.6291667 L42.9541667,59.8541667 L27.4625,59.8541667 L27.4625,59.8541667 Z M49.9958333,59.8541667 L49.9958333,55.6291667 L65.4875,55.6291667 L65.4875,59.8541667 L49.9958333,59.8541667 L49.9958333,59.8541667 Z"></path>
                <path d="M52.1083333,24.6458333 C58.7091917,24.6458333 64.0791667,19.2758583 64.0791667,12.675 C64.0791667,6.07414167 58.7091917,0.704166667 52.1083333,0.704166667 C45.507475,0.704166667 40.1375,6.07414167 40.1375,12.675 C40.1375,19.2758583 45.507475,24.6458333 52.1083333,24.6458333 L52.1083333,24.6458333 Z M52.1083333,2.1125 C57.9332,2.1125 62.6708333,6.85013333 62.6708333,12.675 C62.6708333,18.4998667 57.9332,23.2375 52.1083333,23.2375 C46.2834667,23.2375 41.5458333,18.4998667 41.5458333,12.675 C41.5458333,6.85013333 46.2834667,2.1125 52.1083333,2.1125 L52.1083333,2.1125 Z"></path>
                <path d="M49.2916667,13.3791667 L52.1083333,13.3791667 C52.4970333,13.3791667 52.8125,13.0637 52.8125,12.675 L52.8125,7.04166667 C52.8125,6.65296667 52.4970333,6.3375 52.1083333,6.3375 C51.7196333,6.3375 51.4041667,6.65296667 51.4041667,7.04166667 L51.4041667,11.9708333 L49.2916667,11.9708333 C48.9029667,11.9708333 48.5875,12.2863 48.5875,12.675 C48.5875,13.0637 48.9029667,13.3791667 49.2916667,13.3791667 L49.2916667,13.3791667 Z"></path>
            </g>
        </g>
    </g>
</svg>