<svg width="30px" height="23px" viewBox="37 231 30 23" version="1.1" xmlns="http://www.w3.org/2000/svg" xmlns:xlink="http://www.w3.org/1999/xlink">
    <defs></defs>
    <g id="noun_308298_cc" stroke="none" stroke-width="1" fill="none" fill-rule="evenodd" transform="translate(37.000000, 231.000000)">
        <path d="M28.3909574,3.83333333 L24.956117,3.83333333 L23.0944149,0 L16.0013298,0 L14.1396277,3.83333333 L7.44680851,3.83333333 L7.44680851,1.91666667 L2.79255319,1.91666667 L2.79255319,3.83333333 L1.3962766,3.83333333 C0.625134325,3.83333333 9.44376913e-17,4.47692401 0,5.27083333 L0,21.5625 C9.44376913e-17,22.3564093 0.625134325,23 1.3962766,23 L28.3909574,23 C29.1620997,23 29.787234,22.3564093 29.787234,21.5625 L29.787234,5.27083333 C29.787234,4.47692401 29.1620997,3.83333333 28.3909574,3.83333333 L28.3909574,3.83333333 Z M3.72340426,2.875 L6.51595745,2.875 L6.51595745,3.83333333 L3.72340426,3.83333333 L3.72340426,2.875 L3.72340426,2.875 Z M28.856383,21.5625 C28.856383,21.8271364 28.6480049,22.0416667 28.3909574,22.0416667 L1.3962766,22.0416667 C1.13922917,22.0416667 0.930851064,21.8271364 0.930851064,21.5625 L0.930851064,5.27083333 C0.930851064,5.00619689 1.13922917,4.79166667 1.3962766,4.79166667 L14.7167553,4.79166667 L16.5784574,0.958333333 L22.5172872,0.958333333 L24.3789894,4.79166667 L28.3909574,4.79166667 C28.6480049,4.79166667 28.856383,5.00619689 28.856383,5.27083333 L28.856383,21.5625 L28.856383,21.5625 Z" id="Shape" fill="#0096DB"></path>
        <rect id="Rectangle-path" fill="#0096DB" x="6.38297872" y="5.91428571" width="0.930851064" height="15.3333333"></rect>
        <path d="M20,6 C16.1340068,6 13,9.13400675 13,13 C13,16.8659932 16.1340068,20 20,20 C23.8659932,20 27,16.8659932 27,13 C27,11.1434846 26.2625021,9.36300718 24.9497475,8.05025253 C23.6369928,6.73749788 21.8565154,6 20,6 L20,6 Z M20,19.125 C16.6172559,19.125 13.875,16.3827441 13.875,13 C13.875,9.61725591 16.6172559,6.875 20,6.875 C23.3827441,6.875 26.125,9.61725591 26.125,13 C26.125,14.624451 25.4796894,16.1823687 24.331029,17.331029 C23.1823687,18.4796894 21.624451,19.125 20,19.125 L20,19.125 Z" id="Shape" fill="#0096DB"></path>
        <path d="M20,9 C17.790861,9 16,10.790861 16,13 C16,15.209139 17.790861,17 20,17 C22.209139,17 24,15.209139 24,13 C24,11.939134 23.5785726,10.9217184 22.8284271,10.1715729 C22.0782816,9.42142736 21.060866,9 20,9 L20,9 Z M20,16.2 C18.2326888,16.2 16.8,14.7673112 16.8,13 C16.8,11.2326888 18.2326888,9.8 20,9.8 C21.7673112,9.8 23.2,11.2326888 23.2,13 C23.2,14.7673112 21.7673112,16.2 20,16.2 L20,16.2 Z" id="Shape" fill="#0096DB"></path>
        <ellipse id="Oval" fill="#0096DB" cx="11.7819149" cy="6.87261905" rx="0.930851064" ry="0.958333333"></ellipse>
    </g>
</svg>