<svg width="31px" height="30px" viewBox="37 389 31 30" version="1.1" xmlns="http://www.w3.org/2000/svg" xmlns:xlink="http://www.w3.org/1999/xlink">
    <defs></defs>
    <g id="noun_15812_cc" stroke="none" stroke-width="1" fill="none" fill-rule="evenodd" transform="translate(37.000000, 389.000000)">
        <g id="Group" fill="#0096DB">
            <g id="Shape">
                <path d="M14.4994014,16.8882495 L22.4319412,13.1977721 C23.5749404,12.7036382 22.8310489,11.1120991 21.6308998,11.6225132 L14.8916008,14.5369683 L14.8916008,6.88105918 C14.8916008,5.67903864 13,5.7339089 13,6.88105918 L13.028261,16.0513273 C13.027947,16.7369041 13.7994714,17.2313394 14.4994014,16.8882495 L14.4994014,16.8882495 Z"></path>
                <path d="M15.0006046,0 C6.71607949,0 0,6.71570949 0,14.9998488 C0,23.2845928 6.71607949,30 15.0006046,30 C23.2845252,30 30,23.2842905 30,14.9998488 C30,6.71570949 23.2848275,0 15.0006046,0 L15.0006046,0 Z M15.0006046,28.2867594 C7.66295147,28.2867594 1.71325782,22.3374281 1.71325782,14.9998488 C1.71325782,7.66196729 7.66295147,1.71324056 15.0006046,1.71324056 C22.3382578,1.71324056 28.2873468,7.66196729 28.2873468,14.9998488 C28.2873468,22.3377304 22.3385601,28.2867594 15.0006046,28.2867594 L15.0006046,28.2867594 Z"></path>
            </g>
        </g>
    </g>
</svg>