<svg width="29px" height="31px" viewBox="0 0 29 31" version="1.1" xmlns="http://www.w3.org/2000/svg" xmlns:xlink="http://www.w3.org/1999/xlink">
    <defs></defs>
    <path d="M16.1444663,0.342083215 L16.1161458,0.776919933 C16.1020615,0.98518357 15.9956421,1.1368986 15.7895179,1.27780769 C15.5833946,1.41871678 15.2803523,1.51545961 15.0097659,1.5328384 L12.4628254,1.5328384 C10.7687314,1.5328384 9.39290377,2.87805597 9.39290377,4.53082661 L9.39290377,6.78390379 C9.39290377,6.84684318 9.39479167,6.86130139 9.39479167,6.80775594 C9.39473367,6.77581655 9.39290377,6.77135442 9.39290377,6.837112 L9.39290377,7.82054003 C9.39112659,7.84374792 9.39112659,7.86705208 9.39290377,7.89025997 L9.39290377,9.87362964 C9.39290377,11.1138166 9.8695961,12.2349513 10.6314454,13.1119695 L10.6314454,13.8825665 L7.71822917,11.0515413 C8.1745606,9.67354436 7.90720283,8.15487033 6.8384117,7.11599458 C6.05812803,6.35771579 5.03085717,5.97844676 4.00449207,5.97844676 C2.97812793,5.97844676 1.95274497,6.35771579 1.1724613,7.11599458 C-0.388107193,8.63255215 -0.388107193,11.1056269 1.1724613,12.6220906 C2.24157143,13.6587118 3.80377243,13.9183631 5.22037797,13.475251 L8.6074871,16.766799 L5.1599613,18.6786122 C3.7627645,19.4505122 2.8981121,20.8894937 2.8981121,22.4471968 L2.8981121,30.4026892 L13.1179683,30.4026892 L21.7481121,30.4026892 L26.0981121,30.4026892 L26.0981121,22.4471968 C26.0981121,20.8899634 25.2346381,19.4507001 23.8381508,18.6786122 L23.8362629,18.6786122 L20.3811845,16.7612951 L23.8098304,13.4275476 C25.2181139,13.86709 26.7716555,13.6075825 27.8332034,12.5762218 C28.8901461,11.5488067 29.2665989,10.0299561 28.8055337,8.64801364 C28.7537403,8.49220806 28.6222008,8.37385217 28.458366,8.33564112 C28.2945312,8.29743007 28.1220434,8.34487791 28.003125,8.46086852 L25.7393879,10.6607384 L24.3309246,10.5084542 L24.1761071,9.13972812 L26.4360675,6.94352748 C26.5554256,6.82796431 26.6042511,6.66034305 26.5649309,6.50113059 C26.5256107,6.34191813 26.4038189,6.2140896 26.2434901,6.16375724 C25.5332047,5.93999361 24.7874764,5.92004276 24.08737,6.08302761 C23.3872636,6.24610639 22.7317341,6.59245248 22.203125,7.10498582 C21.1439754,8.13672218 20.8789947,9.64398258 21.3308591,11.0111765 L18.3647788,13.8935744 L18.3647788,13.1945338 C19.1691421,12.3069944 19.6731776,11.1524266 19.6731766,9.87362964 L19.6731766,6.837112 C19.6731766,6.78544533 19.671772,6.79071439 19.6712887,6.81325985 C19.6716048,6.83204773 19.6731766,6.8439367 19.6731766,6.78757306 L19.6731766,3.45932945 L19.6675129,3.42997339 C19.5539653,2.58658645 19.2877221,1.82557713 18.7801429,1.25395582 C18.2725646,0.682428645 17.511795,0.337762003 16.5957034,0.342083215 L16.1444663,0.342083215 L16.1444663,0.342083215 Z M16.7712887,1.34752829 C17.3224279,1.38886162 17.7519817,1.53200769 18.0475913,1.86492891 C18.3811831,2.2404987 18.6080839,2.82132879 18.7065099,3.54005909 L18.7065099,6.78573842 C18.7065119,6.73688994 18.7052987,6.7467827 18.704622,6.80408573 C18.704622,6.87641906 18.7065099,6.87477512 18.7065099,6.83344179 L18.7065099,7.10315118 C18.4324445,6.95359967 18.1395126,6.849729 17.8417966,6.79674718 C17.1674403,6.67688052 16.4664156,6.72913994 15.7914067,6.75638236 C15.116394,6.78362479 14.471232,6.78739458 13.9411458,6.64629761 C13.4110597,6.50473094 12.992465,6.25126179 12.6421875,5.66470421 C12.5506975,5.51166027 12.3784514,5.42158354 12.1966151,5.43169036 C11.9883467,5.44293503 11.8109916,5.58273879 11.7567054,5.77845824 C11.768866,5.73430673 11.674761,5.92732306 11.5131508,6.11238367 C11.3515444,6.29744427 11.1303199,6.51526906 10.8976567,6.71601755 C10.7143729,6.87411755 10.5325641,7.00233355 10.3595704,7.11966385 L10.3595704,6.83344179 C10.3595704,6.88510845 10.3610717,6.86787715 10.3614583,6.80775594 C10.3614583,6.73542261 10.3595704,6.74073582 10.3595704,6.78206915 L10.3595704,4.53082661 C10.3595704,3.378566 11.291352,2.47039752 12.4628254,2.47039752 L15.0588542,2.47039752 L15.0739583,2.47039752 C15.5131759,2.4422157 15.9646382,2.30753291 16.3464841,2.04656946 C16.5670881,1.89570279 16.6362347,1.59496465 16.7712887,1.34752829 L16.7712887,1.34752829 Z M12.2853512,6.66281027 C12.7011899,7.09107997 13.1716946,7.41523194 13.6862629,7.55266527 C14.4038863,7.7442077 15.1425047,7.725417 15.8329425,7.69761094 C16.5233812,7.66942912 17.1689754,7.63316006 17.6680992,7.72146309 C18.1357619,7.80412976 18.4520301,7.96124903 18.7065099,8.34160964 L18.7065099,9.86995942 C18.7065099,12.1443261 16.8515423,13.9577913 14.5339841,13.9577913 C12.2164375,13.9577913 10.3595704,12.1443261 10.3595704,9.86995942 L10.3595704,8.22602003 C10.4861351,8.16965639 10.6046001,8.09840336 10.7315099,8.02052761 C10.9993655,7.85594579 11.2762595,7.64596776 11.5395833,7.41872836 C11.8029072,7.19158291 12.0494159,6.94880594 12.2494792,6.71968776 C12.2657772,6.70089988 12.2696042,6.68065876 12.2853512,6.66281027 L12.2853512,6.66281027 Z M4.00637997,6.91050215 C4.7833499,6.91050215 5.55937443,7.20324924 6.1549484,7.78200985 C7.0413769,8.64362197 7.292775,9.93949242 6.7893234,11.0552106 C6.70901853,11.2323464 6.74874484,11.439215 6.8893879,11.5762812 L10.6314454,15.2127625 L10.6314454,15.6420946 L9.81959623,16.0934443 C9.75400076,16.1132371 9.69349898,16.1463875 9.64212203,16.1906866 L9.47786507,16.282424 L5.7584633,12.6697939 C5.61785002,12.5324874 5.40492297,12.4931434 5.22226587,12.570717 C4.07605827,13.0591079 2.74258993,12.8161393 1.8559246,11.9579099 L1.8540367,11.9579099 C0.664780727,10.8002008 0.665364883,8.93896742 1.8559246,7.78200985 C2.4514976,7.20324924 3.229411,6.91233679 4.00637997,6.91233679 L4.00637997,6.91050215 L4.00637997,6.91050215 Z M24.9898433,7.02058691 L23.3283849,8.63333561 C23.2232243,8.73475384 23.1717313,8.87743611 23.1886716,9.0204683 L23.4133462,10.9854897 C23.438434,11.2036028 23.6155933,11.3757643 23.8400387,11.4001448 L25.863997,11.6184797 C26.0099188,11.6337849 26.1550927,11.5838339 26.2585933,11.4827081 L27.9219405,9.86629015 C27.9139171,10.6202477 27.7166398,11.3610857 27.1497401,11.9120403 C26.2706843,12.7661372 24.9463819,13.0081167 23.8079425,12.5230136 C23.6256641,12.4449751 23.4127901,12.483581 23.271745,12.6202559 L19.5108075,16.2769201 L18.3647788,15.6420946 L18.3647788,15.2237712 L22.1597004,11.5359163 C22.3018134,11.3989389 22.3423534,11.1910147 22.2616538,11.0130112 C21.7631786,9.90818994 22.0104248,8.62547382 22.8865883,7.77100109 C23.4537964,7.22107988 24.21442,7.02791418 24.9898433,7.02058691 L24.9898433,7.02058691 Z M4.54069047,7.52514479 C4.50060434,7.52584996 4.46064919,7.53139675 4.42174503,7.54165745 L2.4940754,8.0645617 C2.32689985,8.109899 2.19522131,8.23786248 2.14856747,8.40032176 L1.61237003,10.2736057 C1.56595496,10.4357633 1.61126338,10.6076903 1.73131547,10.7249554 L3.1208988,12.0771688 C3.24194619,12.1944931 3.41977889,12.2385716 3.58724007,12.1927584 L5.51490873,11.6698532 C5.64226612,11.6362982 5.75130624,11.5541762 5.81699207,11.4423433 C5.83659599,11.4081141 5.85181605,11.3717538 5.86230457,11.3340932 L6.39661507,9.46080921 C6.44302977,9.29865196 6.39772138,9.12672534 6.27766963,9.00946048 L4.8880863,7.65724612 C4.79646395,7.56903343 4.67117469,7.52139072 4.54069047,7.52514479 L4.54069047,7.52514479 Z M4.3934246,8.51958064 L5.3921875,9.49016527 L5.00703173,10.8368748 L3.6174484,11.2148343 L2.61679663,10.2405795 L3.00384127,8.89387088 L4.3934246,8.51958064 L4.3934246,8.51958064 Z M11.5981121,13.9944859 C12.4311574,14.5633829 13.4404715,14.9026892 14.5339841,14.9026892 C15.5951927,14.9026892 16.5797447,14.5880833 17.3981121,14.0495288 L17.3981121,14.9026892 C17.3981102,15.1993498 17.1707676,15.5329436 16.6504554,15.8219012 C16.1301441,16.1107648 15.357761,16.3117801 14.4981121,16.3117801 C13.6384632,16.3117801 12.8660801,16.1107648 12.3457679,15.8219012 C11.8254566,15.5329436 11.598114,15.1993498 11.5981121,14.9026892 L11.5981121,13.9944859 L11.5981121,13.9944859 Z M11.3809901,16.3081108 C11.5284348,16.4295745 11.692161,16.5399617 11.8662113,16.6365314 C12.5704251,17.0276011 13.4892031,17.251174 14.4981121,17.251174 C15.5070211,17.251174 16.4257991,17.0276011 17.1300129,16.6365314 C17.3040632,16.5399617 17.4677894,16.4295745 17.6152341,16.3081108 L18.4063155,16.7466171 L16.8260417,22.8875377 L12.0984375,22.8875377 L10.5276042,16.7814771 L11.3809901,16.3081108 L11.3809901,16.3081108 Z M19.2785804,17.2309921 L20.9438155,18.155708 L19.2729167,24.6525706 C19.2722266,24.6568431 19.2715972,24.6611246 19.2710288,24.665414 C19.1341497,25.2700079 18.7331165,25.7057195 18.196745,25.7057195 C17.6409368,25.7057195 17.2590813,25.3739312 17.3244792,24.8287069 L19.2785804,17.2328267 L19.2785804,17.2309921 L19.2785804,17.2309921 Z M9.6553383,17.2658521 L11.6,24.8287069 C11.665395,25.3739312 11.2835423,25.7057195 10.7277341,25.7057195 C10.1913627,25.7057195 9.79032943,25.2700079 9.6534504,24.665414 C9.65292132,24.6598994 9.65229192,24.6543943 9.6515625,24.6489013 L7.99010417,18.1887333 L9.6553383,17.2658521 L9.6553383,17.2658521 Z M21.8179683,18.6382484 L23.3585933,19.4932434 C24.4564608,20.0997161 25.1314454,21.2249955 25.1314454,22.4453621 L25.1314454,29.4614606 L22.2314454,29.4614606 L22.2314454,23.3554 C22.2314187,23.0960043 22.0150387,22.885729 21.7481121,22.885703 L20.7248046,22.885703 L21.8179683,18.6382484 L21.8179683,18.6382484 Z M7.1159504,18.6731083 L8.1996746,22.885703 L7.2481121,22.885703 C6.98118553,22.885729 6.76480546,23.0960043 6.76477877,23.3554 L6.76477877,29.4614606 L3.86477877,29.4614606 L3.86477877,22.4453621 C3.86477877,21.2249955 4.5397644,20.0997161 5.63762997,19.4932434 L5.63951787,19.4932434 L7.1159504,18.6731083 L7.1159504,18.6731083 Z M7.73144543,23.8232623 L8.44134127,23.8232623 L8.70944047,24.8635678 C8.91825013,25.7831406 9.65812133,26.6396095 10.7277341,26.6396095 C11.7761325,26.6396095 12.6978907,25.783258 12.561003,24.7021095 C12.5590566,24.6829805 12.5559039,24.6639856 12.5515625,24.645232 L12.3401042,23.8232623 L16.584375,23.8232623 L16.3729167,24.6489013 C16.3686502,24.6670509 16.3654978,24.6854309 16.3634762,24.7039442 C16.2265885,25.7850926 17.1483467,26.6414442 18.196745,26.6414442 C19.2663578,26.6414442 20.006229,25.7849752 20.2150387,24.8654025 L20.4831379,23.8232623 L21.2647788,23.8232623 L21.2647788,29.459626 L13.1179683,29.459626 L7.73144543,29.459626 L7.73144543,23.8232623 L7.73144543,23.8232623 Z M10.5351567,23.8232623 C10.2682191,23.8232623 10.0518234,24.0335528 10.0518234,24.2929593 C10.0518234,24.5523658 10.2682191,24.7626563 10.5351567,24.7626563 C10.8020944,24.7626563 11.0184901,24.5523658 11.0184901,24.2929593 C11.0184901,24.0335528 10.8020944,23.8232623 10.5351567,23.8232623 L10.5351567,23.8232623 Z M18.3893234,23.8232623 C18.1223858,23.8232623 17.9059901,24.0335528 17.9059901,24.2929593 C17.9059901,24.5523658 18.1223858,24.7626563 18.3893234,24.7626563 C18.656261,24.7626563 18.8726567,24.5523658 18.8726567,24.2929593 C18.8726567,24.0335528 18.656261,23.8232623 18.3893234,23.8232623 L18.3893234,23.8232623 Z" id="Shape" stroke="none" fill="#006695" fill-rule="evenodd"></path>
</svg>