<svg width="59px" height="67px" viewBox="571 418 59 67" version="1.1" xmlns="http://www.w3.org/2000/svg" xmlns:xlink="http://www.w3.org/1999/xlink">
    <g id="noun_170717_cc" stroke="none" stroke-width="1" fill="none" fill-rule="evenodd" transform="translate(572.000000, 419.000000)">
        <g id="Group" fill="#969696">
            <g id="Shape">
                <path d="M21.7142857,10.8333333 C24.3463203,10.8333333 27.1428571,10.1078869 27.1428571,8.57638889 C27.1428571,7.04489087 24.3463203,6.31944444 21.7142857,6.31944444 C19.0822511,6.31944444 16.2857143,7.04489087 16.2857143,8.57638889 C16.3679654,10.1078869 19.1645022,10.8333333 21.7142857,10.8333333 L21.7142857,10.8333333 Z M21.7142857,7.60912698 C24.3463203,7.60912698 25.7445887,8.33457341 25.8268398,8.57638889 C25.7445887,8.81820437 24.3463203,9.54365079 21.7142857,9.54365079 C19.0822511,9.54365079 17.6839827,8.81820437 17.6017316,8.57638889 C17.6839827,8.33457341 19.0822511,7.60912698 21.7142857,7.60912698 L21.7142857,7.60912698 Z"></path>
                <path d="M56.5086207,14.8431619 C56.262931,14.5984944 55.9353448,14.4353827 55.6077586,14.4353827 L44.2241379,14.4353827 L44.2241379,8.48180678 C44.2241379,2.93601004 32.8405172,0 22.112069,0 C11.3836207,0 0,3.01756587 0,8.48180678 L0,56.5181932 C0,62.06399 11.3836207,65 22.112069,65 L22.1939655,65 L55.6077586,65 C56.3448276,65 56.9181034,64.4291092 56.9181034,63.6951066 L57,15.6587202 C56.9181034,15.4140527 56.7543103,15.0878294 56.5086207,14.8431619 L56.5086207,14.8431619 Z M54.2974138,35.2321205 L43.0775862,46.4868256 L38.737069,50.8092848 L34.1508621,46.1606023 L50.2844828,30.0941029 C50.3663793,30.0125471 50.4482759,29.9309912 50.4482759,29.8494354 L54.2974138,26.0163112 L54.2974138,35.2321205 L54.2974138,35.2321205 Z M33.1681034,47.1392723 L48.6465517,62.553325 L39.3103448,62.553325 L28.5,51.7879548 L33.1681034,47.1392723 L33.1681034,47.1392723 Z M54.2974138,62.553325 L50.4482759,62.553325 L39.637931,51.706399 L43.1594828,48.1994981 L44.3060345,47.0577164 L54.2974138,57.0075282 L54.2974138,62.553325 L54.2974138,62.553325 Z M45.2068966,46.0790464 L54.2974138,37.0263488 L54.2974138,46.3237139 L49.875,50.727729 L45.2068966,46.0790464 L45.2068966,46.0790464 Z M48.8922414,29.523212 L32.7586207,45.6712673 C32.6767241,45.7528231 32.5948276,45.8343789 32.5948276,45.9159348 L27.6810345,50.8092848 L23.012931,46.1606023 L44.3060345,24.9560853 L48.8922414,29.523212 L48.8922414,29.523212 Z M50.7758621,51.706399 L54.2974138,48.1994981 L54.2974138,55.2132999 L50.7758621,51.706399 L50.7758621,51.706399 Z M38.1637931,14.4353827 C39.4741379,13.9460477 40.7025862,13.293601 41.6034483,12.6411543 L41.6034483,14.4353827 L38.1637931,14.4353827 L38.1637931,14.4353827 Z M22.0301724,2.52823087 C34.1508621,2.52823087 41.6034483,5.95357591 41.6034483,8.48180678 C41.6034483,11.0100376 34.1508621,14.4353827 22.0301724,14.4353827 C9.90948276,14.4353827 2.45689655,11.0100376 2.45689655,8.48180678 C2.45689655,5.95357591 9.90948276,2.52823087 22.0301724,2.52823087 L22.0301724,2.52823087 Z M2.45689655,56.5997491 L2.45689655,12.6411543 C6.38793103,15.4956085 14.4137931,17.0451694 22.0301724,17.0451694 L54.2974138,17.0451694 L54.2974138,22.1016311 L51.512931,19.3287327 C51.2672414,19.0840652 50.8577586,19.0840652 50.612069,19.3287327 C50.3663793,19.5734003 50.3663793,19.9811794 50.612069,20.2258469 L54.2974138,23.8958595 L54.2974138,24.140527 L51.7586207,26.6687578 L49.7931034,28.6260979 L40.5387931,19.4918444 C40.2931034,19.2471769 39.8836207,19.2471769 39.637931,19.4918444 C39.3922414,19.7365119 39.3922414,20.1442911 39.637931,20.3889586 L43.3232759,24.0589711 L38.6551724,28.7076537 L33.4956897,23.5696361 L29.237069,19.3287327 C28.9913793,19.0840652 28.5818966,19.0840652 28.3362069,19.3287327 C28.0905172,19.5734003 28.0905172,19.9811794 28.3362069,20.2258469 L32.1853448,24.0589711 L27.5172414,28.7076537 L21.7844828,22.9987453 C21.5387931,22.7540778 21.1293103,22.7540778 20.8836207,22.9987453 C20.637931,23.2434128 20.637931,23.651192 20.8836207,23.8958595 L26.6163793,29.6047679 L20.3103448,35.8845671 C20.0646552,36.1292346 20.0646552,36.5370138 20.3103448,36.7816813 C20.5560345,37.0263488 20.9655172,37.0263488 21.2112069,36.7816813 L28.0086207,30.0125471 L33.1681034,24.8745295 L37.8362069,29.523212 L18.1810345,49.0966123 C17.9353448,49.3412798 17.9353448,49.749059 18.1810345,49.9937265 C18.3448276,50.1568381 18.5086207,50.1568381 18.6724138,50.1568381 L18.6724138,50.1568381 C18.8362069,50.1568381 19,50.0752823 19.1637931,49.9937265 L22.112069,47.0577164 L37.5905172,62.4717691 L28.1724138,62.4717691 L21.8663793,56.1919699 C21.6206897,55.9473024 21.2112069,55.9473024 20.9655172,56.1919699 C20.7198276,56.4366374 20.7198276,56.8444166 20.9655172,57.0890841 L26.3706897,62.4717691 L22.0301724,62.4717691 L22.0301724,62.4717691 C20.4741379,62.4717691 19,62.3902133 17.6077586,62.3086575 L11.4655172,56.1919699 C11.2198276,55.9473024 10.8103448,55.9473024 10.5646552,56.1919699 C10.3189655,56.4366374 10.3189655,56.8444166 10.5646552,57.0890841 L15.6422414,62.1455458 C7.2887931,61.1668758 2.45689655,58.5570891 2.45689655,56.5997491 L2.45689655,56.5997491 Z" stroke="#FFFFFF" stroke-width="0.75"></path>
            </g>
        </g>
    </g>
</svg>