<svg width="92px" height="92px" viewBox="792 406 92 92" version="1.1" xmlns="http://www.w3.org/2000/svg" xmlns:xlink="http://www.w3.org/1999/xlink">
    <g id="noun_86490_cc" stroke="none" stroke-width="1" fill="none" fill-rule="evenodd" transform="translate(837.961941, 451.961941) rotate(-315.000000) translate(-837.961941, -451.961941) translate(805.461941, 419.461941)">
        <g id="Group" fill="#969696">
            <g id="Shape">
                <path d="M64.7364865,20.3783784 L64.7364865,17.9189189 L62.277027,15.4594595 L61.0472973,14.2297297 L50.7702703,3.9527027 L54.4594595,0.263513514 L52,0.263513514 L48.3108108,3.9527027 L43.8310811,8.43243243 L39.3513514,3.9527027 L43.0405405,0.263513514 L40.5810811,0.263513514 L38.1216216,2.72297297 L35.6621622,0.263513514 L33.2027027,0.263513514 L36.8918919,3.9527027 L38.1216216,5.18243243 L43.8310811,10.8918919 L48.3108108,15.3716216 L43.9189189,19.8513514 L24.3310811,0.263513514 L21.8716216,0.263513514 L42.6013514,21.0810811 L42.6013514,21.0810811 L38.1216216,25.5608108 L16.6013514,3.9527027 L16.6013514,3.9527027 L20.2905405,0.263513514 L17.8310811,0.263513514 L15.3716216,2.72297297 L14.1418919,3.9527027 L8.43243243,9.66216216 L3.9527027,14.1418919 L0.263513514,10.4527027 L0.263513514,12.9121622 L3.9527027,16.6013514 L8.43243243,21.0810811 L3.9527027,25.5608108 L0.175675676,29.3378378 L0.175675676,31.7972973 L3.9527027,28.1081081 L5.18243243,26.8783784 L5.18243243,26.8783784 L10.8918919,21.1689189 L15.3716216,16.6891892 L19.8513514,21.1689189 L19.8513514,21.1689189 L0.263513514,40.6689189 L0.263513514,43.1283784 L21.0810811,22.3986486 L25.5608108,26.8783784 L4.04054054,48.3108108 L0.263513514,44.6216216 L0.263513514,47.0810811 L2.72297297,49.5405405 L3.9527027,50.7702703 L9.66216216,56.4797297 L14.1418919,60.9594595 L10.5405405,64.7364865 L13,64.7364865 L16.6891892,61.0472973 L21.1689189,56.5675676 L25.6486486,61.0472973 L21.9594595,64.7364865 L24.4189189,64.7364865 L26.8783784,62.277027 L29.3378378,64.7364865 L31.7972973,64.7364865 L21.1689189,54.1081081 L16.6891892,49.6283784 L16.6891892,49.6283784 L21.1689189,45.1486486 L21.1689189,45.1486486 L40.7567568,64.7364865 L43.2162162,64.7364865 L22.3986486,43.9189189 L22.3986486,43.9189189 L22.3986486,43.9189189 L26.8783784,39.4391892 L26.8783784,39.4391892 L48.4864865,61.0472973 L44.7972973,64.7364865 L47.2567568,64.7364865 L49.7162162,62.277027 L50.9459459,61.0472973 L56.6554054,55.3378378 L61.1351351,50.8581081 L64.8243243,54.5472973 L64.8243243,52.0878378 L61.1351351,48.3986486 L56.4797297,43.9189189 L60.9594595,39.4391892 L60.9594595,39.4391892 L64.6486486,43.1283784 L64.6486486,40.6689189 L62.1891892,38.2094595 L64.6486486,35.75 L64.6486486,33.2905405 L60.8716216,37.0675676 L59.7297297,38.2094595 L54.0202703,43.9189189 L49.5405405,48.3108108 L45.1486486,43.9189189 L64.7364865,24.3310811 L64.7364865,21.8716216 L43.9189189,42.6891892 L39.4391892,38.2094595 L60.9594595,16.6891892 L64.7364865,20.3783784 L64.7364865,20.3783784 Z M45.0608108,9.66216216 L49.5405405,5.18243243 L54.0202703,9.66216216 L49.5405405,14.1418919 L45.0608108,9.66216216 L45.0608108,9.66216216 Z M9.75,19.8513514 L5.27027027,15.3716216 L9.75,10.8918919 L14.2297297,15.3716216 L9.75,19.8513514 L9.75,19.8513514 Z M21.0810811,19.8513514 L15.3716216,14.1418919 L10.8918919,9.66216216 L15.3716216,5.18243243 L15.3716216,5.18243243 L36.9797297,26.7905405 L32.5,31.2702703 L28.0202703,26.7905405 L26.7905405,25.5608108 L21.0810811,19.8513514 L21.0810811,19.8513514 Z M19.9391892,55.3378378 L15.4594595,59.8175676 L10.9797297,55.3378378 L15.4594595,50.8581081 L19.9391892,55.3378378 L19.9391892,55.3378378 Z M26.7905405,36.9797297 L25.5608108,38.2094595 L21.0810811,42.6891892 L19.8513514,43.9189189 L14.1418919,49.6283784 L9.66216216,54.1081081 L5.27027027,49.6283784 L5.27027027,49.6283784 L26.7905405,28.1081081 L31.2702703,32.5878378 L26.7905405,36.9797297 L26.7905405,36.9797297 Z M55.25,45.1486486 L59.7297297,49.6283784 L55.3378378,54.1081081 L50.8581081,49.6283784 L55.25,45.1486486 L55.25,45.1486486 Z M42.6013514,43.9189189 L43.8310811,45.1486486 L54.1081081,55.3378378 L49.6283784,59.8175676 L49.6283784,59.8175676 L28.0202703,38.2094595 L28.0202703,38.2094595 L32.5,33.7297297 L32.5,33.7297297 L32.5,33.7297297 L36.9797297,38.2094595 L42.6013514,43.9189189 L42.6013514,43.9189189 Z M38.2094595,36.9797297 L33.7297297,32.5 L38.2094595,28.0202703 L39.4391892,26.7905405 L43.9189189,22.3108108 L45.1486486,21.0810811 L55.25,10.9797297 L59.7297297,15.4594595 L38.2094595,36.9797297 L38.2094595,36.9797297 Z"></path>
            </g>
        </g>
    </g>
</svg>