<svg width="60px" height="47px" viewBox="131 358 60 47" version="1.1" xmlns="http://www.w3.org/2000/svg" xmlns:xlink="http://www.w3.org/1999/xlink">
    <defs></defs>
    <g id="Page-1" stroke="none" stroke-width="1" fill="none" fill-rule="evenodd" transform="translate(132.000000, 359.000000)">
        <path d="M51.4283571,42.8562857 L47.1426429,42.8562857 L47.1426429,24.642 C47.1426429,24.0495 46.6637143,23.5705714 46.0712143,23.5705714 L11.7855,23.5705714 C11.1940714,23.5705714 10.7140714,24.0495 10.7140714,24.642 L10.7140714,42.8562857 L6.42835714,42.8562857 L6.42835714,14.4023571 L28.9283571,2.28664286 L51.4283571,14.4023571 L51.4283571,42.8562857 Z M12.8569286,42.8562857 L44.9997857,42.8562857 L44.9997857,38.5705714 L12.8569286,38.5705714 L12.8569286,42.8562857 Z M12.8569286,29.9991429 L44.9997857,29.9991429 L44.9997857,25.7134286 L12.8569286,25.7134286 L12.8569286,29.9991429 Z M12.8569286,36.4277143 L44.9997857,36.4277143 L44.9997857,32.142 L12.8569286,32.142 L12.8569286,36.4277143 Z M57.2933571,15.1277143 L29.4362143,0.127714286 C29.1190714,-0.0426428571 28.7376429,-0.0426428571 28.4205,0.127714286 L0.563357143,15.1277143 C0.0426428571,15.4084286 -0.152357143,16.0577143 0.128357143,16.5784286 C0.409071429,17.0991429 1.05835714,17.2952143 1.57907143,17.0134286 L4.2855,15.5573571 L4.2855,43.9277143 C4.2855,44.5202143 4.7655,44.9991429 5.35692857,44.9991429 L52.4997857,44.9991429 C53.0922857,44.9991429 53.5712143,44.5202143 53.5712143,43.9277143 L53.5712143,15.5562857 L56.2776429,17.0134286 C56.4383571,17.1012857 56.6119286,17.142 56.7844286,17.142 C57.1658571,17.142 57.5355,16.9384286 57.7294286,16.5784286 C58.0101429,16.0577143 57.8140714,15.4073571 57.2933571,15.1277143 L57.2933571,15.1277143 Z" id="Fill-1" stroke="#FFFFFF" fill="#969696"></path>
        <path d="M30,14.9991429 L34.2857143,14.9991429 L34.2857143,12.8562857 L30,12.8562857 L30,14.9991429 Z M23.5714286,14.9991429 L27.8571429,14.9991429 L27.8571429,12.8562857 L23.5714286,12.8562857 L23.5714286,14.9991429 Z M22.5,10.7134286 C21.9085714,10.7134286 21.4285714,11.1934286 21.4285714,11.7848571 L21.4285714,16.0705714 C21.4285714,16.662 21.9085714,17.142 22.5,17.142 L35.3571429,17.142 C35.9496429,17.142 36.4285714,16.662 36.4285714,16.0705714 L36.4285714,11.7848571 C36.4285714,11.1934286 35.9496429,10.7134286 35.3571429,10.7134286 L22.5,10.7134286 Z" id="Fill-4" stroke="#FFFFFF" fill="#969696"></path>
    </g>
</svg>