<svg width="28px" height="23px" viewBox="0 -1 28 23" version="1.1" xmlns="http://www.w3.org/2000/svg" xmlns:xlink="http://www.w3.org/1999/xlink">
    <defs></defs>
    <path d="M5.5,4 C6.3285968,4 7,4.67160201 7,5.50044418 C7,6.32839799 6.3285968,7 5.5,7 C4.6714032,7 4,6.32839799 4,5.50044418 C4,4.67160201 4.6714032,4 5.5,4" id="Fill-1" stroke="none" fill="#0096DB" fill-rule="evenodd"></path>
    <path d="M9.11238419,0.580846349 C6.51163058,-0.35341228 3.19516882,-0.14977188 0.457364714,1.11326495 C0.057433728,1.29747402 -0.112476831,1.76149432 0.0782718155,2.14934378 C0.268218997,2.53719325 0.745892079,2.70041647 1.14582306,2.51698466 C3.50693867,1.42649809 6.34492588,1.24306628 8.55536608,2.03819654 C12.5674994,3.48155617 11.8157253,8.58344772 11.2114208,12.6819051 C11.0815835,13.5671967 10.9581579,14.4035214 10.8900333,15.1543483 C10.8675923,15.3937423 10.9613637,15.6284729 11.1432962,15.7924733 C11.2923687,15.9269382 11.4871247,16 11.6882924,16 C11.7315715,16 11.7748506,15.996891 11.8173282,15.9898957 L17.3273994,15.1154856 C17.7641978,15.0455328 18.0607398,14.6468018 17.9894094,14.2231986 C17.9172776,13.7988183 17.5069276,13.5143435 17.0693277,13.5811873 L12.6011609,14.2908197 C12.6588664,13.8485625 12.7277924,13.3829877 12.7983213,12.9018678 C13.4475078,8.49561808 14.3371339,2.46024516 9.11238419,0.580846349" id="Fill-3" stroke="none" fill="#0096DB" fill-rule="evenodd"></path>
    <path d="M21.5,4 C22.3285968,4 23,4.67160201 23,5.50044418 C23,6.32839799 22.3285968,7 21.5,7 C20.6714032,7 20,6.32839799 20,5.50044418 C20,4.67160201 20.6714032,4 21.5,4" id="Fill-5" stroke="none" fill="#0096DB" fill-rule="evenodd"></path>
    <path d="M26.2041896,3 C26.4910778,3 26.7684295,2.81623965 26.9106816,2.49465903 C27.1125364,2.03525814 26.9607479,1.46897624 26.5713429,1.22990027 C26.4195544,1.13802009 22.7941142,-1.02678938 17.5895968,0.610177852 C17.1660195,0.743310353 16.9140983,1.2570893 17.0269463,1.75774251 C17.140589,2.25933327 17.5808551,2.55653751 17.9996642,2.42152991 C22.5795441,0.984261428 25.8092217,2.87624303 25.8410098,2.89593164 C25.9570366,2.96718565 26.0818052,3 26.2041896,3" id="Fill-7" stroke="none" fill="#0096DB" fill-rule="evenodd"></path>
    <path d="M6.47289559,20.3997857 C9.05541624,21.4668393 11.7812314,22 14.5175118,22 C17.2175661,22 19.9280858,21.4800219 22.5194617,20.440798 C22.9268044,20.277481 23.1103502,19.8446541 22.9316346,19.4748105 C22.752114,19.104967 22.2763441,18.9379881 21.8698064,19.1005728 C17.0782968,21.023027 11.8480485,21.0105769 7.13784636,19.0668841 C6.73291871,18.8969757 6.2555388,19.0624899 6.07199307,19.4308687 C5.88844734,19.7992476 6.06796794,20.2328068 6.47289559,20.3997857" id="Fill-9" stroke="none" fill="#0096DB" fill-rule="evenodd"></path>
</svg>