<svg width="34px" height="34px" viewBox="22 394 34 34" version="1.1" xmlns="http://www.w3.org/2000/svg" xmlns:xlink="http://www.w3.org/1999/xlink">
    <defs></defs>
    <g id="noun_592907_cc" stroke="none" stroke-width="1" fill="none" fill-rule="evenodd" transform="translate(22.000000, 394.000000)">
        <g id="Group" fill="#969696">
            <g id="Shape">
                <path d="M31.4019685,20.2287402 L31.4019685,18.0980315 C31.4019685,15.161811 29.0114173,12.7777559 26.0816929,12.7777559 C25.8998031,12.7777559 25.7244094,12.784252 25.5490157,12.8037402 L25.5490157,2.66338583 L9.58169291,2.66338583 L9.58169291,0 L0,0 L0,25.0163386 L19.1633858,25.0163386 L19.1633858,33 L33,33 L33,20.2287402 L31.4019685,20.2287402 L31.4019685,20.2287402 Z M26.0816929,13.8366142 C28.4267717,13.8366142 30.3366142,15.7464567 30.3366142,18.0915354 L30.3366142,20.2222441 L21.8202756,20.2222441 L21.8202756,18.0915354 C21.8202756,15.7464567 23.7301181,13.8366142 26.0816929,13.8366142 L26.0816929,13.8366142 Z M1.06535433,1.06535433 L8.51633858,1.06535433 L8.51633858,3.72874016 L24.4836614,3.72874016 L24.4836614,6.92480315 L1.06535433,6.92480315 L1.06535433,1.06535433 L1.06535433,1.06535433 Z M19.1633858,23.9509843 L1.06535433,23.9509843 L1.06535433,7.98366142 L24.4836614,7.98366142 L24.4836614,13.0181102 C22.3269685,13.7001969 20.7549213,15.7139764 20.7549213,18.0980315 L20.7549213,20.2287402 L19.1633858,20.2287402 L19.1633858,23.9509843 L19.1633858,23.9509843 Z M31.9346457,31.9346457 L20.2287402,31.9346457 L20.2287402,21.2875984 L31.9411417,21.2875984 L31.9411417,31.9346457 L31.9346457,31.9346457 Z"></path>
                <path d="M25.5490157,28.7017717 L25.5490157,30.3712598 L26.6143701,30.3712598 L26.6143701,28.7017717 C27.530315,28.4614173 28.2124016,27.6364173 28.2124016,26.6490157 C28.2124016,25.4732283 27.2574803,24.5183071 26.0816929,24.5183071 C24.9059055,24.5183071 23.9509843,25.4732283 23.9509843,26.6490157 C23.9509843,27.6364173 24.6330709,28.4614173 25.5490157,28.7017717 L25.5490157,28.7017717 Z M26.0816929,25.5836614 C26.6663386,25.5836614 27.1470472,26.057874 27.1470472,26.6490157 C27.1470472,27.2336614 26.6728346,27.7143701 26.0816929,27.7143701 C25.4970472,27.7143701 25.0163386,27.2401575 25.0163386,26.6490157 C25.0163386,26.0643701 25.4905512,25.5836614 26.0816929,25.5836614 L26.0816929,25.5836614 Z"></path>
            </g>
        </g>
    </g>
</svg>