<svg id="Ebene_1" data-name="Ebene 1" xmlns="http://www.w3.org/2000/svg" viewBox="0 0 117.2 98.78"><defs><style>.cls-1{fill:#fff;}</style></defs><title>IH-icon-heart</title><path class="cls-1" d="M58.6,98.78,14.52,56.29C12.09,54,0,41.91,0,28.17,0,10,10.26,0,28.88,0,43.52,0,58,17.11,58.18,17.28a.85.85,0,0,0,.82,0C59.16,17.11,73.69,0,88.32,0c18.63,0,28.88,10,28.88,28.17,0,13.67-12.13,25.86-14.56,28.17ZM28.88,8C14.83,8,8,14.6,8,28.17c0,8.66,7.55,18.09,12,22.3l.11.11L58.6,87.67,97.13,50.53c1.24-1.17,12.07-11.75,12.07-22.36C109.2,14.6,102.37,8,88.32,8,80,8,69.1,17.72,65.15,22.42A8.69,8.69,0,0,1,52,22.4C48.11,17.72,37.25,8,28.88,8Z"/></svg>