<svg width="55px" height="32px" viewBox="133 225 55 32" version="1.1" xmlns="http://www.w3.org/2000/svg" xmlns:xlink="http://www.w3.org/1999/xlink">
    <defs></defs>
    <g id="noun_437989_cc" stroke="none" stroke-width="1" fill="none" fill-rule="evenodd" transform="translate(133.000000, 225.000000)">
        <g id="Group" fill="#969696">
            <path d="M52.0666667,3.87692308 L30.6166667,3.87692308 L28.9055556,1.23076923 C28.2944444,0.246153846 26.95,-0.0615384615 25.9722222,0.615384615 C25.3611111,0.984615385 25.0555556,1.6 24.9944444,2.27692308 L24.9944444,2.27692308 L24.9944444,2.27692308 L24.9944444,2.46153846 L24.9944444,3.93846154 L2.93333333,3.93846154 C1.58888889,3.93846154 0.55,5.04615385 0.55,6.33846154 L0.55,29.4153846 C0.55,30.7692308 1.65,31.8153846 2.93333333,31.8153846 L52.0666667,31.8153846 C53.4111111,31.8153846 54.45,30.7076923 54.45,29.4153846 L54.45,6.27692308 C54.45,4.92307692 53.4111111,3.87692308 52.0666667,3.87692308 L52.0666667,3.87692308 Z M26.6444444,1.6 C27.0722222,1.35384615 27.6222222,1.47692308 27.8666667,1.84615385 L35.1388889,13.1692308 C35.3833333,13.6 35.2611111,14.1538462 34.8944444,14.4 C34.7111111,14.5230769 34.4666667,14.5846154 34.2222222,14.5230769 C33.9777778,14.4615385 33.7944444,14.3384615 33.6722222,14.1538462 L28.05,5.41538462 L26.4,2.83076923 C26.3388889,2.70769231 26.2777778,2.58461538 26.2777778,2.4 L26.2777778,2.21538462 C26.2777778,1.96923077 26.4,1.72307692 26.6444444,1.6 L26.6444444,1.6 Z M26.2166667,5.10769231 L26.3388889,5.10769231 L26.95,6.09230769 L28.5388889,8.55384615 C28.4166667,9.04615385 27.9277778,9.41538462 27.3777778,9.41538462 C26.7055556,9.41538462 26.2166667,8.86153846 26.2166667,8.24615385 L26.2166667,5.10769231 L26.2166667,5.10769231 Z M30.1888889,12.0615385 C30.1888889,11.7538462 30.25,11.5076923 30.3111111,11.2 L32.6333333,14.8307692 C32.9388889,15.3230769 33.4277778,15.6307692 33.9777778,15.7538462 C34.1,15.8153846 34.2833333,15.8153846 34.4055556,15.8153846 C34.8333333,15.8153846 35.2,15.6923077 35.5666667,15.4461538 C36.5444444,14.8307692 36.85,13.4769231 36.1777778,12.4923077 L33.3055556,8.06153846 C33.6111111,8 33.9166667,7.93846154 34.2222222,7.93846154 L45.2833333,7.93846154 C47.5444444,7.93846154 49.3777778,9.78461538 49.3777778,12.0615385 L49.3777778,23.5692308 C49.3777778,25.8461538 47.5444444,27.6923077 45.2833333,27.6923077 L34.2833333,27.6923077 C32.0222222,27.6923077 30.1888889,25.8461538 30.1888889,23.5692308 L30.1888889,12.0615385 L30.1888889,12.0615385 Z M53.2277778,29.3538462 C53.2277778,30.0307692 52.6777778,30.5230769 52.0666667,30.5230769 L2.93333333,30.5230769 C2.26111111,30.5230769 1.77222222,29.9692308 1.77222222,29.3538462 L1.77222222,6.27692308 C1.77222222,5.6 2.32222222,5.10769231 2.93333333,5.10769231 L24.9944444,5.10769231 L24.9944444,8.18461538 C24.9944444,9.53846154 26.0944444,10.5846154 27.3777778,10.5846154 C28.1111111,10.5846154 28.8444444,10.2153846 29.2722222,9.66153846 L29.3944444,9.84615385 C29.0888889,10.5230769 28.9055556,11.2615385 28.9055556,12.0615385 L28.9055556,23.5692308 C28.9055556,26.5230769 31.2888889,28.9230769 34.2222222,28.9230769 L45.2833333,28.9230769 C48.2166667,28.9230769 50.6,26.5230769 50.6,23.5692308 L50.6,12.0615385 C50.6,9.10769231 48.2166667,6.70769231 45.2833333,6.70769231 L34.2833333,6.70769231 C33.7333333,6.70769231 33.1833333,6.76923077 32.6333333,6.95384615 L31.4111111,5.04615385 L52.0666667,5.04615385 C52.7388889,5.04615385 53.2277778,5.6 53.2277778,6.21538462 L53.2277778,29.3538462 L53.2277778,29.3538462 Z" id="Shape"></path>
            <path d="M35.8111111,23.8769231 C37.8277778,23.8769231 39.4777778,22.2153846 39.4777778,20.1846154 C39.4777778,18.1538462 37.8277778,16.4923077 35.8111111,16.4923077 C33.7944444,16.4923077 32.1444444,18.1538462 32.1444444,20.1846154 C32.0833333,22.2153846 33.7333333,23.8769231 35.8111111,23.8769231 L35.8111111,23.8769231 Z M35.8111111,17.6615385 C37.1555556,17.6615385 38.2555556,18.7692308 38.2555556,20.1230769 C38.2555556,21.4769231 37.1555556,22.5846154 35.8111111,22.5846154 C34.4666667,22.5846154 33.3666667,21.4769231 33.3666667,20.1230769 C33.3055556,18.7692308 34.4055556,17.6615385 35.8111111,17.6615385 L35.8111111,17.6615385 Z" id="Shape"></path>
            <ellipse id="Oval" cx="35.8111111" cy="18.5230769" rx="0.488888889" ry="0.492307692"></ellipse>
            <ellipse id="Oval" cx="35.8111111" cy="21.7846154" rx="0.488888889" ry="0.492307692"></ellipse>
            <ellipse id="Oval" cx="37.4" cy="20.1230769" rx="0.488888889" ry="0.492307692"></ellipse>
            <ellipse id="Oval" cx="34.1611111" cy="20.1230769" rx="0.488888889" ry="0.492307692"></ellipse>
            <ellipse id="Oval" transform="translate(36.941543, 19.017859) rotate(-45.000000) translate(-36.941543, -19.017859) " cx="36.9304274" cy="19.0101625" rx="0.4888842" ry="0.492302971"></ellipse>
            <ellipse id="Oval" transform="translate(34.672854, 21.293023) rotate(-45.000000) translate(-34.672854, -21.293023) " cx="34.6617385" cy="21.2853255" rx="0.4888842" ry="0.492302971"></ellipse>
            <ellipse id="Oval" transform="translate(36.936208, 21.298456) rotate(-45.000000) translate(-36.936208, -21.298456) " cx="36.9250924" cy="21.2907594" rx="0.4888842" ry="0.492302971"></ellipse>
            <ellipse id="Oval" transform="translate(34.678250, 19.012487) rotate(-45.000000) translate(-34.678250, -19.012487) " cx="34.6671347" cy="19.0047902" rx="0.4888842" ry="0.492302971"></ellipse>
            <path d="M21.8777778,9.66153846 L7.39444444,9.66153846 C7.02777778,9.66153846 6.78333333,9.90769231 6.78333333,10.2769231 C6.78333333,10.6461538 7.02777778,10.8923077 7.39444444,10.8923077 L21.8777778,10.8923077 C22.2444444,10.8923077 22.4888889,10.6461538 22.4888889,10.2769231 C22.4888889,9.90769231 22.1833333,9.66153846 21.8777778,9.66153846 L21.8777778,9.66153846 Z" id="Shape"></path>
            <path d="M21.8777778,13.4153846 L7.39444444,13.4153846 C7.02777778,13.4153846 6.78333333,13.6615385 6.78333333,14.0307692 C6.78333333,14.4 7.02777778,14.6461538 7.39444444,14.6461538 L21.8777778,14.6461538 C22.2444444,14.6461538 22.4888889,14.4 22.4888889,14.0307692 C22.4888889,13.6615385 22.1833333,13.4153846 21.8777778,13.4153846 L21.8777778,13.4153846 Z" id="Shape"></path>
            <path d="M21.8777778,17.2307692 L7.39444444,17.2307692 C7.02777778,17.2307692 6.78333333,17.4769231 6.78333333,17.8461538 C6.78333333,18.2153846 7.02777778,18.4615385 7.39444444,18.4615385 L21.8777778,18.4615385 C22.2444444,18.4615385 22.4888889,18.2153846 22.4888889,17.8461538 C22.4888889,17.4769231 22.1833333,17.2307692 21.8777778,17.2307692 L21.8777778,17.2307692 Z" id="Shape"></path>
            <path d="M21.8777778,20.9846154 L7.39444444,20.9846154 C7.02777778,20.9846154 6.78333333,21.2307692 6.78333333,21.6 C6.78333333,21.9692308 7.02777778,22.2153846 7.39444444,22.2153846 L21.8777778,22.2153846 C22.2444444,22.2153846 22.4888889,21.9692308 22.4888889,21.6 C22.4888889,21.2307692 22.1833333,20.9846154 21.8777778,20.9846154 L21.8777778,20.9846154 Z" id="Shape"></path>
            <path d="M21.8777778,24.7384615 L7.39444444,24.7384615 C7.02777778,24.7384615 6.78333333,24.9846154 6.78333333,25.3538462 C6.78333333,25.7230769 7.02777778,25.9692308 7.39444444,25.9692308 L21.8777778,25.9692308 C22.2444444,25.9692308 22.4888889,25.7230769 22.4888889,25.3538462 C22.4888889,24.9846154 22.1833333,24.7384615 21.8777778,24.7384615 L21.8777778,24.7384615 Z" id="Shape"></path>
            <path d="M43.1444444,12.0615385 C44.3666667,12.0615385 45.4055556,13.0461538 45.4055556,14.3384615 C45.4055556,14.7076923 45.65,14.9538462 46.0166667,14.9538462 C46.3833333,14.9538462 46.6277778,14.7076923 46.6277778,14.3384615 C46.6277778,12.4307692 45.1,10.8307692 43.1444444,10.8307692 C42.7777778,10.8307692 42.5333333,11.0769231 42.5333333,11.4461538 C42.5333333,11.8153846 42.8388889,12.0615385 43.1444444,12.0615385 L43.1444444,12.0615385 Z" id="Shape"></path>
            <path d="M46.0777778,21.1692308 C45.7722222,21.1076923 45.4055556,21.3538462 45.4055556,21.6615385 C45.2833333,22.6461538 44.55,23.3846154 43.5722222,23.5692308 C43.2666667,23.6307692 43.0222222,23.9384615 43.0833333,24.3076923 C43.1444444,24.6153846 43.3888889,24.8 43.6944444,24.8 L43.8166667,24.8 C45.2833333,24.5538462 46.4444444,23.3846154 46.6277778,21.8461538 C46.6277778,21.5384615 46.4444444,21.1692308 46.0777778,21.1692308 L46.0777778,21.1692308 Z" id="Shape"></path>
        </g>
    </g>
</svg>