<svg width="23px" height="24px" viewBox="-1 -1 23 24" version="1.1" xmlns="http://www.w3.org/2000/svg" xmlns:xlink="http://www.w3.org/1999/xlink">
    <defs></defs>
    <path d="M8.4225,0.152777778 C6.2661,0.152777778 4.11,0.99 2.4609,2.65588889 C-0.8202,5.99622222 -0.8202,11.4125 2.4609,14.7531389 C5.6319,17.9654444 10.7052,18.0763611 14.0115,15.0861944 L20.5902,21.7757222 C20.6835,21.8698333 20.844,21.8698333 20.9286,21.7842778 C21.0216,21.6990278 21.0216,21.5279167 20.937,21.4426667 L14.3499,14.7531389 C14.3583,14.7445833 14.3583,14.7445833 14.367,14.7445833 C17.6481,11.40425 17.6565,5.99652778 14.3754,2.65588889 C12.7347,0.99 10.5786,0.152777778 8.4225,0.152777778 L8.4225,0.152777778 L8.4225,0.152777778 Z M8.4225,0.631277778 C10.452,0.631277778 12.4896,1.41716667 14.037,2.99780556 C17.1405,6.15022222 17.1405,11.2505556 14.037,14.4029722 C10.9338,17.5553889 5.9112,17.5553889 2.8077,14.4029722 C-0.2958,11.2505556 -0.2958,6.15022222 2.8077,2.99780556 C4.3551,1.41716667 6.393,0.631277778 8.4225,0.631277778 L8.4225,0.631277778 L8.4225,0.631277778 Z" id="Shape" stroke="#FBFBFF" stroke-width="1" fill="#FBFBFF" fill-rule="evenodd"></path>
</svg>