<svg width="20px" height="20px" viewBox="0 0 20 20" version="1.1" xmlns="http://www.w3.org/2000/svg" xmlns:xlink="http://www.w3.org/1999/xlink">
    <defs></defs>
    <path d="M18.9878788,19.7445455 C19.1121212,19.7445455 19.2366667,19.6966667 19.3312121,19.6018182 C19.520303,19.4130303 19.520303,19.1057576 19.3312121,18.9163636 L10.4142424,10 L19.3312121,1.0830303 C19.520303,0.893636364 19.520303,0.586666667 19.3312121,0.397272727 C19.1418182,0.207878788 18.8348485,0.207878788 18.6448485,0.397272727 L9.38545455,9.65757576 C9.29424242,9.74818182 9.2430303,9.87121212 9.2430303,10.000303 C9.2430303,10.1290909 9.29424242,10.2521212 9.38545455,10.3427273 L18.6448485,19.6021212 C18.74,19.6966667 18.8639394,19.7445455 18.9878788,19.7445455 L18.9878788,19.7445455 L18.9878788,19.7445455 Z" id="Shape" stroke="none" fill="#006695" fill-rule="evenodd"></path>
    <path d="M9.98787879,19.7445455 C10.1121212,19.7445455 10.2366667,19.6966667 10.3312121,19.6018182 C10.520303,19.4130303 10.520303,19.1057576 10.3312121,18.9163636 L1.41424242,10 L10.3312121,1.0830303 C10.520303,0.893636364 10.520303,0.586666667 10.3312121,0.397272727 C10.1418182,0.207878788 9.83484848,0.207878788 9.64484848,0.397272727 L0.385454545,9.65757576 C0.294242424,9.74818182 0.243030303,9.87121212 0.243030303,10.000303 C0.243030303,10.1290909 0.294242424,10.2521212 0.385454545,10.3427273 L9.64484848,19.6021212 C9.74,19.6966667 9.86393939,19.7445455 9.98787879,19.7445455 L9.98787879,19.7445455 L9.98787879,19.7445455 Z" id="Shape" stroke="none" fill="#006695" fill-rule="evenodd" transform="translate(5.358030, 9.999886) scale(-1, 1) translate(-5.358030, -9.999886) "></path>
</svg>