<svg width="12px" height="30px" viewBox="0 0 12 30" version="1.1" xmlns="http://www.w3.org/2000/svg" xmlns:xlink="http://www.w3.org/1999/xlink">
    <defs></defs>
    <g id="Shape" stroke="none" stroke-width="1" fill="none" fill-rule="evenodd">
        <path d="M5.25714286,29.7142857 L0.512051618,25.8748651 C0.054908761,25.4939128 0.054908761,24.7619048 0.512051618,24.3809524 C0.969194475,24 1.48571429,24 1.94285714,24.3809524 L5.94285714,27.7142857 L10.0571429,24.2857143 C10.5142857,23.9047619 10.9718664,23.8209417 11.4290093,24.2018941 C11.8861522,24.5828465 11.8861522,25.4939128 11.4290093,25.8748651 L6.74285714,29.7142857 C6.62857143,29.9047619 6.28571429,30 6.05714286,30 C5.71428571,30 5.48571429,29.9047619 5.25714286,29.7142857 Z" id="Fill-1" fill="#006695"></path>
        <path d="M6,25 C5.4,25 5,24.6031746 5,24.0079365 L5,0.992063492 C5,0.396825397 5.4,0 6,0 C6.6,0 7,0.396825397 7,0.992063492 L7,24.0079365 C7,24.6031746 6.5,25 6,25" id="Fill-3" fill="#006695"></path>
    </g>
</svg>