
<svg width="25px" height="20px" viewBox="0 0 25 20" version="1.1" xmlns="http://www.w3.org/2000/svg" xmlns:xlink="http://www.w3.org/1999/xlink">
    <defs></defs>
    <path d="M0.728181818,10.4851515 L0.728181818,10.4851515 L24.12,10.4839394 C24.3881818,10.4839394 24.6051515,10.2675758 24.6051515,9.99939394 C24.6051515,9.73121212 24.3881818,9.51424242 24.12,9.51424242 L24.12,9.51424242 L0.728181818,9.51515152 C0.46030303,9.51515152 0.243030303,9.73212121 0.243030303,10 C0.243030303,10.2678788 0.460606061,10.4851515 0.728181818,10.4851515 L0.728181818,10.4851515 L0.728181818,10.4851515 Z" id="Shape" stroke="none" fill="#FBFBFF" fill-rule="evenodd"></path>
    <path d="M9.98787879,19.7445455 C10.1121212,19.7445455 10.2366667,19.6966667 10.3312121,19.6018182 C10.520303,19.4130303 10.520303,19.1057576 10.3312121,18.9163636 L1.41424242,10 L10.3312121,1.0830303 C10.520303,0.893636364 10.520303,0.586666667 10.3312121,0.397272727 C10.1418182,0.207878788 9.83484848,0.207878788 9.64484848,0.397272727 L0.385454545,9.65757576 C0.294242424,9.74818182 0.243030303,9.87121212 0.243030303,10.000303 C0.243030303,10.1290909 0.294242424,10.2521212 0.385454545,10.3427273 L9.64484848,19.6021212 C9.74,19.6966667 9.86393939,19.7445455 9.98787879,19.7445455 L9.98787879,19.7445455 L9.98787879,19.7445455 Z" id="Shape" stroke="none" fill="#FBFBFF" fill-rule="evenodd"></path>
</svg>