<svg width="75px" height="65px" viewBox="542 396 75 65" version="1.1" xmlns="http://www.w3.org/2000/svg" xmlns:xlink="http://www.w3.org/1999/xlink">
    <g id="noun_47302_cc" stroke="none" stroke-width="1" fill="none" fill-rule="evenodd" transform="translate(542.000000, 396.000000)">
        <g id="Group" fill="#979797">
            <g id="Shape">
                <path d="M74.75,46.5833333 L74.75,39.4513889 C74.75,37.9166667 73.4861111,36.5625 71.8611111,36.5625 L70.3263889,36.5625 L70.3263889,35.6597222 C70.3263889,32.5 67.7083333,29.8819444 64.5486111,29.8819444 L42.8819444,29.8819444 C40.8055556,29.8819444 39.0902778,30.9652778 38.0069444,32.5 C37.0138889,30.875 35.2083333,29.8819444 33.1319444,29.8819444 L11.5555556,29.8819444 C8.39583333,29.8819444 5.77777778,32.5 5.77777778,35.6597222 L5.77777778,36.5625 L3.61111111,36.5625 C2.07638889,36.5625 0.722222222,37.8263889 0.722222222,39.4513889 L0.722222222,46.5833333 C0.722222222,47.6666667 1.35416667,48.6597222 2.25694444,49.1111111 C1.35416667,50.0138889 0.722222222,51.2777778 0.722222222,52.7222222 L0.722222222,56.6944444 C0.722222222,59.4027778 2.97916667,61.6597222 5.6875,61.6597222 L69.7847222,61.6597222 C72.4930556,61.6597222 74.75,59.4027778 74.75,56.6944444 L74.75,52.7222222 C74.75,51.2777778 74.1180556,50.0138889 73.2152778,49.1111111 C74.1180556,48.6597222 74.75,47.6666667 74.75,46.5833333 L74.75,46.5833333 Z M72.9444444,46.5833333 C72.9444444,47.125 72.4930556,47.6666667 71.8611111,47.6666667 L68.7013889,47.6666667 L64.7291667,47.6666667 C64.7291667,47.6666667 64.7291667,47.6666667 64.6388889,47.6666667 C64.0972222,47.6666667 63.6458333,47.2152778 63.6458333,46.6736111 L63.6458333,39.5416667 C63.6458333,39 64.0972222,38.4583333 64.7291667,38.4583333 L68.5208333,38.4583333 L70.3263889,38.4583333 L71.8611111,38.4583333 C72.4027778,38.4583333 72.9444444,38.9097222 72.9444444,39.5416667 L72.9444444,46.5833333 L72.9444444,46.5833333 Z M2.4375,46.5833333 L2.4375,39.4513889 C2.4375,38.9097222 2.88888889,38.3680556 3.52083333,38.3680556 L5.6875,38.3680556 L7.49305556,38.3680556 L10.5625,38.3680556 C11.1041667,38.3680556 11.6458333,38.8194444 11.6458333,39.4513889 L11.6458333,46.5833333 C11.6458333,47.0347222 11.2847222,47.4861111 10.9236111,47.5763889 C10.8333333,47.5763889 10.7430556,47.6666667 10.6527778,47.6666667 L7.3125,47.6666667 L3.52083333,47.6666667 C2.97916667,47.6666667 2.4375,47.125 2.4375,46.5833333 L2.4375,46.5833333 Z M38.0069444,46.7638889 C38.1875,47.125 38.4583333,47.3958333 38.7291667,47.6666667 L37.2847222,47.6666667 C37.5555556,47.3958333 37.8263889,47.125 38.0069444,46.7638889 L38.0069444,46.7638889 Z M42.8819444,31.6875 L64.4583333,31.6875 C66.625,31.6875 68.4305556,33.4930556 68.4305556,35.6597222 L68.4305556,36.5625 L64.6388889,36.5625 C63.1041667,36.5625 61.75,37.8263889 61.75,39.4513889 L61.75,46.5833333 C61.75,46.9444444 61.8402778,47.3055556 61.9305556,47.6666667 L42.8819444,47.6666667 C40.8055556,47.6666667 39.1805556,46.1319444 38.9097222,44.1458333 L38.9097222,43.6944444 L38.9097222,35.75 L38.9097222,35.2986111 C39.1805556,33.2222222 40.8958333,31.6875 42.8819444,31.6875 L42.8819444,31.6875 Z M7.49305556,35.6597222 C7.49305556,33.4930556 9.29861111,31.6875 11.4652778,31.6875 L33.0416667,31.6875 C35.1180556,31.6875 36.7430556,33.2222222 37.0138889,35.2083333 L37.0138889,35.6597222 L37.0138889,43.6041667 L37.0138889,44.0555556 C36.7430556,46.0416667 35.1180556,47.5763889 33.0416667,47.5763889 L13.1805556,47.5763889 C13.2708333,47.2152778 13.3611111,46.8541667 13.3611111,46.4930556 L13.3611111,39.3611111 C13.3611111,37.8263889 12.0972222,36.4722222 10.4722222,36.4722222 L7.40277778,36.4722222 L7.40277778,35.6597222 L7.49305556,35.6597222 Z M72.9444444,56.6041667 C72.9444444,58.3194444 71.5,59.7638889 69.7847222,59.7638889 L5.6875,59.7638889 C3.97222222,59.7638889 2.52777778,58.3194444 2.52777778,56.6041667 L2.52777778,52.6319444 C2.52777778,50.9166667 3.97222222,49.4722222 5.6875,49.4722222 L69.7847222,49.4722222 C71.5,49.4722222 72.9444444,50.9166667 72.9444444,52.6319444 L72.9444444,56.6041667 L72.9444444,56.6041667 Z"></path>
                <path d="M9.65972222,62.3819444 L4.42361111,62.3819444 C3.88194444,62.3819444 3.52083333,62.7430556 3.52083333,63.2847222 C3.52083333,63.8263889 3.88194444,64.1875 4.42361111,64.1875 L9.65972222,64.1875 C10.2013889,64.1875 10.5625,63.8263889 10.5625,63.2847222 C10.5625,62.8333333 10.1111111,62.3819444 9.65972222,62.3819444 L9.65972222,62.3819444 Z"></path>
                <path d="M70.4166667,62.3819444 L65.1805556,62.3819444 C64.6388889,62.3819444 64.2777778,62.7430556 64.2777778,63.2847222 C64.2777778,63.8263889 64.6388889,64.1875 65.1805556,64.1875 L70.4166667,64.1875 C70.9583333,64.1875 71.3194444,63.8263889 71.3194444,63.2847222 C71.3194444,62.8333333 70.9583333,62.3819444 70.4166667,62.3819444 L70.4166667,62.3819444 Z"></path>
                <path d="M38.4583333,23.7430556 L58.8611111,23.7430556 C59.4027778,23.7430556 59.7638889,23.3819444 59.7638889,22.8402778 L59.7638889,7.40277778 C59.7638889,6.86111111 59.4027778,6.5 58.8611111,6.5 L54.4375,6.5 L49.6527778,0.902777778 C49.4722222,0.722222222 49.2013889,0.631944444 48.9305556,0.631944444 C48.6597222,0.631944444 48.3888889,0.722222222 48.2083333,0.902777778 L43.4236111,6.40972222 L38.3680556,6.40972222 C37.8263889,6.40972222 37.4652778,6.77083333 37.4652778,7.3125 L37.4652778,22.75 C37.5555556,23.2916667 37.9166667,23.7430556 38.4583333,23.7430556 L38.4583333,23.7430556 Z M48.9305556,2.88888889 L52,6.40972222 L45.8611111,6.40972222 L48.9305556,2.88888889 L48.9305556,2.88888889 Z M39.3611111,8.30555556 L57.9583333,8.30555556 L57.9583333,21.9375 L39.3611111,21.9375 L39.3611111,8.30555556 L39.3611111,8.30555556 Z"></path>
            </g>
        </g>
    </g>
</svg>