<svg width="32px" height="29px" viewBox="36 310 32 29" version="1.1" xmlns="http://www.w3.org/2000/svg" xmlns:xlink="http://www.w3.org/1999/xlink">
    <defs></defs>
    <g id="noun_140416_cc" stroke="none" stroke-width="1" fill="none" fill-rule="evenodd" transform="translate(36.000000, 310.000000)">
        <g id="Group" fill="#0096DB">
            <g id="Shape">
                <path d="M19.8615181,19.0002979 C19.2378759,18.1271989 17.9905916,17.877742 17.1174925,18.5013842 L14.7476523,19.9981254 L14.4981954,19.9981254 L14.373467,20.1228538 C14.1240101,20.1228538 13.0014543,19.873397 10.1327003,15.8820871 C7.63813164,12.1402341 7.63813164,10.6375535 7.76286008,10.1386397 C8.01231694,10.1386397 8.13704538,10.0139113 8.13704538,10.0139113 L10.631614,8.39244169 C11.5047131,7.89352796 11.7541699,6.64624363 11.1305278,5.64841617 L7.75692063,0.65333941 L7.6321922,0.528610977 C7.6321922,0.528610977 7.00855003,0.0296972459 6.01072257,0.0296972459 C5.01289511,0.0296972459 4.01506765,0.403882544 2.89251175,1.27698157 L2.76778332,1.40171001 C0.522671528,4.64464926 0.148486229,8.51717012 0.0237577967,8.76662699 L0.0237577967,8.89135542 L0.0237577967,9.01608385 C0.896856826,13.1321221 2.89251175,16.5057293 4.38925294,18.7508411 L4.38925294,18.7508411 L5.63653727,20.4970391 L5.63653727,20.4970391 C7.2580069,22.8668793 9.50311869,25.7415727 12.8767258,27.9866845 L13.0014543,28.111413 C13.1261827,28.111413 15.246566,28.8597836 17.996531,28.8597836 L17.996531,28.8597836 C18.9943585,28.8597836 19.8674575,28.7350551 20.7405565,28.6103267 L20.9900134,28.4855983 C24.1082242,26.6146718 23.6093105,24.4942884 23.4845821,24.36956 L19.8615181,19.0002979 L19.8615181,19.0002979 Z M20.3663712,27.2383139 C19.6180006,27.3630424 18.86963,27.4877708 17.996531,27.4877708 L17.996531,27.4877708 C15.7514192,27.4877708 13.8804927,26.9888571 13.5063074,26.8641286 C10.1386397,24.4942884 8.01231694,21.619595 6.26611888,19.2497548 L5.89193359,18.7508411 C4.51992083,16.6304577 2.27480904,13.1321221 1.27698157,8.89135542 C1.40171001,8.14298482 1.90062374,4.90004557 3.77155023,2.27480904 C5.76720515,0.902796275 6.64030418,1.40171001 6.88976105,1.52643844 L10.2574287,6.5215152 C10.5068856,6.8957005 10.3821572,7.2698858 10.0079719,7.51934266 L7.63813164,8.89135542 C7.38867478,9.01608385 7.13921791,9.26554072 6.88976105,9.76445445 C6.39084732,11.1364672 7.13921791,13.381579 9.3843297,16.7551861 C11.6294415,19.9981254 13.2509111,21.500806 14.6288633,21.500806 C15.1277771,21.500806 15.5019624,21.2513492 15.6266908,21.0018923 L17.8718026,19.5051511 C18.2459879,19.2556942 18.6201732,19.3804227 18.86963,19.754608 L22.3620262,24.7496847 C22.3620262,24.9872627 22.3620262,26.1098186 20.3663712,27.2383139 L20.3663712,27.2383139 Z"></path>
                <path d="M21.9878409,1.02752471 C16.8680357,1.02752471 12.8767258,4.14573553 12.8767258,8.01825639 C12.8767258,11.3859241 15.8702082,14.135889 20.1169144,14.7595312 L20.4910997,18.1271989 C20.4910997,18.3766558 20.6158281,18.5013842 20.865285,18.6261126 L21.1147418,18.6261126 C21.2394703,18.6261126 21.3641987,18.6261126 21.4889271,18.5013842 L26.1038791,14.5100743 C27.1017066,13.8864322 27.7253488,13.5122469 27.9748056,13.26279 L27.9748056,13.26279 C30.095189,11.8907773 31.2177449,10.0198508 31.2177449,8.01825639 C31.0989559,4.14573553 27.1017066,1.02752471 21.9878409,1.02752471 L21.9878409,1.02752471 Z M27.226435,12.2590231 C27.1017066,12.2590231 25.3555085,13.5063074 25.2307801,13.5063074 L21.4889271,16.7492467 L21.2394703,14.1299496 C21.2394703,13.8804927 20.9900134,13.6310359 20.7405565,13.6310359 C16.8739751,13.2568506 13.9992817,10.7622819 13.9992817,8.01231694 C13.9992817,4.89410612 17.4916778,2.26886959 21.8631124,2.26886959 C26.234547,2.26886959 29.7269431,4.76343824 29.7269431,8.01231694 C29.8516716,9.63972602 28.9726331,11.1364672 27.226435,12.2590231 L27.226435,12.2590231 Z"></path>
                <path d="M18.988419,7.51340321 L18.4895053,7.51340321 C18.11532,7.51340321 17.8658631,7.76286008 17.8658631,8.13704538 C17.8658631,8.51123067 18.11532,8.76068754 18.4895053,8.76068754 L18.988419,8.76068754 C19.3626043,8.76068754 19.6120612,8.51123067 19.6120612,8.13704538 C19.6120612,7.76286008 19.3626043,7.51340321 18.988419,7.51340321 L18.988419,7.51340321 Z"></path>
                <path d="M22.2372977,7.51340321 L21.738384,7.51340321 C21.3641987,7.51340321 21.1147418,7.76286008 21.1147418,8.13704538 C21.1147418,8.51123067 21.3641987,8.76068754 21.738384,8.76068754 L22.2372977,8.76068754 C22.611483,8.76068754 22.8609399,8.51123067 22.8609399,8.13704538 C22.8609399,7.76286008 22.611483,7.51340321 22.2372977,7.51340321 L22.2372977,7.51340321 Z"></path>
                <path d="M25.480237,7.51340321 L24.9813232,7.51340321 C24.607138,7.51340321 24.3576811,7.76286008 24.3576811,8.13704538 C24.3576811,8.51123067 24.607138,8.76068754 24.9813232,8.76068754 L25.480237,8.76068754 C25.8544223,8.76068754 26.1038791,8.51123067 26.1038791,8.13704538 C26.1038791,7.76286008 25.8544223,7.51340321 25.480237,7.51340321 L25.480237,7.51340321 Z"></path>
            </g>
        </g>
    </g>
</svg>