<svg width="20px" height="34px" viewBox="0 0 20 34" version="1.1" xmlns="http://www.w3.org/2000/svg" xmlns:xlink="http://www.w3.org/1999/xlink">
    <defs></defs>
    <path d="M1.25,30.4004036 C1.25,31.6903034 2.43432127,32.7407407 3.88992425,32.7407407 L17.3604515,32.7407407 C18.8156787,32.7407407 20,31.6903034 20,30.4004036 L20,28.962963 L1.25,28.962963 L1.25,30.4004036 L1.25,30.4004036 Z M8.98528616,30.0300528 L11.9825358,30.0300528 C12.3954701,30.0300528 12.7317542,30.3267997 12.7317542,30.6934869 C12.7317542,31.0611733 12.3962216,31.3575872 11.9825358,31.3575872 L8.98528616,31.3575872 C8.57197607,31.3575872 8.23644343,31.0608403 8.23606769,30.6934869 C8.23606769,30.3271327 8.57160034,30.0300528 8.98528616,30.0300528 L8.98528616,30.0300528 Z" id="Shape" stroke="none" fill="none"></path>
    <path d="M17.3604515,1.25925926 L3.88992425,1.25925926 C2.43432127,1.25925926 1.25,2.24646923 1.25,3.46019547 L1.25,5.03703704 L20,5.03703704 L20,3.46019547 C20,2.24646923 18.8156787,1.25925926 17.3604515,1.25925926 L17.3604515,1.25925926 Z M17.1834796,3.75563787 C16.770921,3.75563787 16.4274979,3.4764871 16.4274979,3.13154322 C16.4274979,2.78628604 16.7547643,2.50744857 17.1688259,2.50744857 L17.1834796,2.50744857 C17.5982927,2.50744857 17.9319466,2.78597274 17.9319466,3.13154322 C17.9319466,3.4764871 17.5982927,3.75563787 17.1834796,3.75563787 L17.1834796,3.75563787 Z" id="Shape" stroke="none" fill="none"></path>
    <path d="M16.8781219,2.51851852 L16.8659466,2.51851852 C16.5219156,2.51851852 16.25,2.79982895 16.25,3.14814815 C16.25,3.49615127 16.5353397,3.77777778 16.8781219,3.77777778 C17.2227772,3.77777778 17.5,3.49615127 17.5,3.14814815 C17.5,2.79951287 17.2227772,2.51851852 16.8781219,2.51851852 L16.8781219,2.51851852 Z" id="Shape" stroke="none" fill="#0096DB" fill-rule="evenodd"></path>
    <path d="M16.6808907,0 L3.31985465,0 C1.4892388,0 0,1.45309091 0,3.23927273 L0,30.7607273 C0,32.5469091 1.4892388,34 3.31985465,34 L16.6808907,34 C18.5107612,34 20,32.5469091 20,30.7607273 L20,3.23927273 C20,1.45309091 18.5107612,0 16.6808907,0 L16.6808907,0 Z M19.2989844,30.7607273 C19.2989844,32.1690909 18.1242896,33.316 16.6808907,33.316 L3.31985465,33.316 C1.87608311,33.316 0.701388242,32.1690909 0.701388242,30.7607273 L0.701388242,29.1912727 L19.2989844,29.1912727 L19.2989844,30.7607273 L19.2989844,30.7607273 Z M19.2989844,28.5065455 L0.701388242,28.5065455 L0.701388242,5.75418182 L19.2989844,5.75418182 L19.2989844,28.5065455 L19.2989844,28.5065455 Z M19.2989844,5.06909091 L0.701388242,5.06909091 L0.701388242,3.23890909 C0.701388242,1.83018182 1.87608311,0.684363636 3.31985465,0.684363636 L16.6808907,0.684363636 C18.1242896,0.684363636 19.2989844,1.83018182 19.2989844,3.23890909 L19.2989844,5.06909091 L19.2989844,5.06909091 Z" id="Shape" stroke="none" fill="#0096DB" fill-rule="evenodd"></path>
    <path d="M8.12494776,31.4814815 L10.6250522,31.4814815 C10.9704346,31.4814815 11.25,31.1999963 11.25,30.8515359 C11.25,30.5033915 10.9691809,30.2222222 10.6250522,30.2222222 L8.12494776,30.2222222 C7.77987881,30.2222222 7.5,30.5040233 7.5,30.8515359 C7.50031341,31.1999963 7.78019223,31.4814815 8.12494776,31.4814815 L8.12494776,31.4814815 Z" id="Shape" stroke="none" fill="#0096DB" fill-rule="evenodd"></path>
</svg>