<svg width="45px" height="40px" viewBox="39 364 45 40" version="1.1" xmlns="http://www.w3.org/2000/svg" xmlns:xlink="http://www.w3.org/1999/xlink">
    <defs></defs>
    <g id="Page-1" stroke="none" stroke-width="1" fill="none" fill-rule="evenodd" transform="translate(39.000000, 364.000000)">
        <path d="M39.405409,15.0830506 L22.7632391,3.48035018 C22.5161472,3.30846908 22.1892551,3.30846908 21.9421632,3.48035018 L5.30095472,15.0830506 L3.02857432,15.0830506 L22.3527011,1.60902497 L41.676828,15.0835348 L39.405409,15.0835348 L39.405409,15.0830506 Z M33.0584155,38.5469995 L33.0584155,17.4855127 C33.0584155,17.084134 32.7353692,16.7592545 32.3373301,16.7592545 L12.3680722,16.7592545 C11.9695523,16.7592545 11.6469868,17.084134 11.6469868,17.4855127 L11.6469868,38.5469995 L6.43353949,38.5469995 L6.43353949,16.0605941 L22.3527011,4.96046432 L38.2718628,16.0591416 L38.2718628,38.5465153 L33.0584155,38.5465153 L33.0584155,38.5469995 Z M13.0891576,38.5469995 L31.6162447,38.5469995 L31.6162447,18.2117708 L13.0891576,18.2117708 L13.0891576,38.5469995 Z M44.6765432,16.0063669 C44.6952914,15.9395511 44.706348,15.871767 44.7058673,15.8034987 C44.7053866,15.7952678 44.7039444,15.7875211 44.7034637,15.7792901 C44.7005793,15.7163478 44.6900034,15.6543737 44.6712552,15.5938522 C44.6683709,15.5841688 44.666448,15.5740012 44.6626022,15.5648019 C44.6409696,15.5028279 44.6097226,15.444243 44.570784,15.3900158 C44.5626117,15.3788798 44.5544394,15.368228 44.5453056,15.3575762 C44.5030019,15.3038331 44.4549296,15.2539634 44.3958006,15.2128088 L22.7632391,0.128910825 C22.5161472,-0.0429702749 22.1892551,-0.0429702749 21.9421632,0.128910825 L0.309601697,15.2128088 C0.250472695,15.2539634 0.20288106,15.3038331 0.160096661,15.3575762 C0.151443636,15.368228 0.142790611,15.3783956 0.135099034,15.3895316 C0.0961604233,15.444243 0.06491339,15.5023437 0.0428001049,15.5643177 C0.0394350398,15.5744853 0.0375121455,15.5841688 0.0346278039,15.5943364 C0.015879584,15.6538896 0.00530366501,15.7153794 0.00241932347,15.7773535 C0.00193859988,15.7865527 1.57055288e-05,15.7952678 1.57055288e-05,15.8044671 C-0.00046501806,15.8722512 0.0101109009,15.9400353 0.0288591209,16.0063669 C0.0307820152,16.0131453 0.0293398444,16.0199237 0.0317434624,16.0267021 C0.0336663567,16.0334805 0.0389543162,16.0383222 0.0408772106,16.0455848 C0.0620290485,16.1070747 0.0884688459,16.1675962 0.126926733,16.2237601 C0.128368904,16.226181 0.130772522,16.2276335 0.132214692,16.2300544 C0.136541205,16.2358644 0.141829164,16.240222 0.145674953,16.2460321 C0.18413284,16.2968701 0.227878687,16.3404456 0.275951046,16.378211 C0.286526964,16.386442 0.296141436,16.3951571 0.307198079,16.4029038 C0.361519844,16.4411534 0.419687399,16.4721404 0.481700742,16.4939282 C0.49227666,16.4978016 0.503333303,16.4997382 0.514389946,16.5031274 C0.578806906,16.5224943 0.644666038,16.5345986 0.711967341,16.5350828 C0.714851682,16.5350828 0.7172553,16.5365353 0.720139642,16.5365353 L0.727831219,16.5365353 L0.730234837,16.5365353 L4.99136873,16.5365353 L4.99136873,39.2737418 C4.99136873,39.6746363 5.31393426,40 5.71245411,40 L12.3680722,40 L32.3373301,40 L38.9934289,40 C39.391468,40 39.7145143,39.6746363 39.7145143,39.2737418 L39.7145143,16.535567 L43.9852626,16.535567 L43.9867048,16.535567 C44.0554483,16.535567 44.1227496,16.5224943 44.1890894,16.5026433 C44.2087991,16.4968332 44.2270666,16.4886023 44.2462955,16.4813397 C44.2929257,16.4634253 44.3361909,16.4406692 44.3780138,16.4125873 C44.3953199,16.4014513 44.4121452,16.3907995 44.4284898,16.378211 C44.4731971,16.3428665 44.5135779,16.3012277 44.5496321,16.2547472 C44.5573237,16.2455479 44.5659767,16.2382853 44.5727069,16.229086 C44.5746298,16.2271493 44.5765526,16.2256968 44.5779948,16.223276 C44.6169334,16.167112 44.6433732,16.1065905 44.6645251,16.0446165 C44.6669287,16.0378381 44.6717359,16.0329963 44.6736588,16.0262179 C44.6755817,16.0194395 44.6746203,16.0131453 44.6765432,16.0063669 L44.6765432,16.0063669 Z" id="Fill-1" fill="#969696"></path>
    </g>
</svg>