<svg width="24px" height="24px" viewBox="128 0 24 24" version="1.1" xmlns="http://www.w3.org/2000/svg" xmlns:xlink="http://www.w3.org/1999/xlink">
    <defs></defs>
    <path d="M136.128099,10.8140496 C135.880165,11.0619835 135.458678,11.0619835 135.18595,10.8140496 C134.938017,10.5661157 134.938017,10.1446281 135.18595,9.87190083 L136.871901,8.18595041 C137.119835,7.93801653 137.541322,7.93801653 137.81405,8.18595041 C138.061983,8.4338843 138.061983,8.8553719 137.81405,9.12809917 L136.128099,10.8140496 L136.128099,10.8140496 Z M143.128099,8.18595041 C142.880165,7.93801653 142.458678,7.93801653 142.18595,8.18595041 C141.938017,8.4338843 141.938017,8.8553719 142.18595,9.12809917 L143.871901,10.8140496 C144.119835,11.0619835 144.541322,11.0619835 144.81405,10.8140496 C145.061983,10.5661157 145.061983,10.1446281 144.81405,9.87190083 L143.128099,8.18595041 L143.128099,8.18595041 Z M152,12 C152,18.6133333 146.64,24 140,24 C133.36,24 128,18.64 128,12 C128,5.36 133.36,0 140,0 C146.64,0 152,5.36 152,12 L152,12 Z M150,12 C150,6.48924731 145.510753,2 140,2 C134.489247,2 130,6.48924731 130,12 C130,17.5107527 134.489247,22 140,22 C145.510753,22 150,17.5107527 150,12 L150,12 Z M145.72,16.6016483 C146.093333,16.2460054 146.093333,15.687138 145.72,15.3568982 C145.346667,15.0012553 144.76,15.0012553 144.413333,15.3568982 C142.946667,16.7540667 142.173333,16.3222146 140.546667,15.280689 C139,14.2899695 136.893333,12.918204 134.28,15.4077043 C133.906667,15.7633472 133.906667,16.3222146 134.28,16.6524545 C134.653333,17.0080974 135.24,17.0080974 135.613333,16.6524545 C137.08,15.2552859 137.906667,15.687138 139.506667,16.7286637 C140.386667,17.3129341 141.48,17.9988169 142.733333,17.9988169 C143.613333,18.0242199 144.626667,17.643174 145.72,16.6016483 L145.72,16.6016483 Z" id="Shape" stroke="none" fill="#0096DB" fill-rule="evenodd"></path>
</svg>