<svg width="24px" height="24px" viewBox="0 0 24 24" version="1.1" xmlns="http://www.w3.org/2000/svg" xmlns:xlink="http://www.w3.org/1999/xlink">
    <defs></defs>
    <path d="M12,2.08 C17.4666667,2.08 21.92,6.53333333 21.92,12 C21.92,17.4666667 17.4666667,21.92 12,21.92 C6.53333333,21.92 2.08,17.4666667 2.08,12 C2.08,6.53333333 6.53333333,2.08 12,2.08 L12,2.08 Z M12,0 C5.36,0 0,5.38666667 0,12 C0,18.6133333 5.36,24 12,24 C18.64,24 24,18.6133333 24,12 C24,5.38666667 18.64,0 12,0 L12,0 Z M17.0133333,16.8 C17.44,16.4 17.44,15.76 17.0666667,15.3333333 C16.6666667,14.9066667 16.0266667,14.9066667 15.6,15.28 C14.6133333,16.2133333 13.3333333,16.72 12,16.72 C10.6666667,16.72 9.38666667,16.2133333 8.4,15.28 C7.97333333,14.88 7.33333333,14.9066667 6.93333333,15.3333333 C6.53333333,15.76 6.56,16.4 6.98666667,16.8 C8.34666667,18.08 10.1333333,18.8 12,18.8 C13.8666667,18.7733333 15.6533333,18.08 17.0133333,16.8 L17.0133333,16.8 Z M9.54666667,9.28 C9.73333333,9.14666667 9.76,8.88 9.62666667,8.69333333 C8.85333333,7.70666667 7.22666667,7.70666667 6.45333333,8.69333333 C6.32,8.88 6.34666667,9.14666667 6.53333333,9.28 C6.72,9.41333333 6.98666667,9.38666667 7.12,9.2 C7.57333333,8.61333333 8.50666667,8.61333333 8.96,9.2 C9.04,9.30666667 9.17333333,9.36 9.30666667,9.36 C9.38666667,9.36 9.46666667,9.33333333 9.54666667,9.28 L9.54666667,9.28 Z M17.4666667,9.28 C17.6533333,9.14666667 17.68,8.88 17.5466667,8.69333333 C16.7733333,7.70666667 15.1466667,7.70666667 14.3733333,8.69333333 C14.24,8.88 14.2666667,9.14666667 14.4533333,9.28 C14.64,9.41333333 14.9066667,9.38666667 15.04,9.2 C15.4933333,8.61333333 16.4266667,8.61333333 16.88,9.2 C16.96,9.30666667 17.0933333,9.36 17.2266667,9.36 C17.3066667,9.36 17.3866667,9.33333333 17.4666667,9.28 L17.4666667,9.28 Z" id="Shape" stroke="none" fill="#0096DB" fill-rule="evenodd"></path>
</svg>